<?xml version="1.0" encoding="utf-8"?>
<!-- Generator: Adobe Illustrator 16.0.0, SVG Export Plug-In . SVG Version: 6.00 Build 0)  -->
<!DOCTYPE svg PUBLIC "-//W3C//DTD SVG 1.1//EN" "http://www.w3.org/Graphics/SVG/1.1/DTD/svg11.dtd">
<svg version="1.1" id="Layer_1" xmlns="http://www.w3.org/2000/svg" xmlns:xlink="http://www.w3.org/1999/xlink" x="0px" y="0px"
	 width="483.164px" height="186.797px" viewBox="0 0 483.164 186.797" enable-background="new 0 0 483.164 186.797"
	 xml:space="preserve">
<g>
	<polygon fill-rule="evenodd" clip-rule="evenodd" fill="#FF9900" points="62.22,179.35 33.816,169.16 33.816,127.527 
		62.22,137.205 	"/>
	<polygon fill-rule="evenodd" clip-rule="evenodd" fill="#FF9900" points="67.429,179.35 95.833,169.16 95.833,127.527 
		67.429,137.205 	"/>
	<polygon fill-rule="evenodd" clip-rule="evenodd" fill="#FF9900" points="36.735,124.414 65.482,116.322 92.136,124.916 
		65.482,133.965 	"/>
</g>
<g>
	<polygon fill-rule="evenodd" clip-rule="evenodd" fill="#FF9900" points="28.404,121.188 0,111 0,69.367 28.404,79.043 	"/>
	<polygon fill-rule="evenodd" clip-rule="evenodd" fill="#FF9900" points="33.613,121.188 62.018,111 62.018,69.367 33.613,79.043 	
		"/>
	<polygon fill-rule="evenodd" clip-rule="evenodd" fill="#FF9900" points="2.919,66.252 31.667,58.16 58.322,66.756 31.667,75.805 	
		"/>
</g>
<g>
	<polygon fill-rule="evenodd" clip-rule="evenodd" fill="#FF9900" points="94.681,121.188 66.276,111 66.276,69.367 94.681,79.043 	
		"/>
	<polygon fill-rule="evenodd" clip-rule="evenodd" fill="#FF9900" points="99.89,121.188 128.294,111 128.294,69.367 99.89,79.043 	
		"/>
	<polygon fill-rule="evenodd" clip-rule="evenodd" fill="#FF9900" points="69.197,66.252 97.943,58.16 124.598,66.756 
		97.943,75.805 	"/>
</g>
<g>
	<polygon fill-rule="evenodd" clip-rule="evenodd" fill="#FF9900" points="128.497,63.025 100.092,52.838 100.092,11.205 
		128.497,20.883 	"/>
	<polygon fill-rule="evenodd" clip-rule="evenodd" fill="#FF9900" points="133.706,63.025 162.11,52.838 162.11,11.205 
		133.706,20.883 	"/>
	<polygon fill-rule="evenodd" clip-rule="evenodd" fill="#FF9900" points="103.011,8.09 131.758,0 158.414,8.594 131.758,17.643 	
		"/>
</g>
<g>
	<polygon fill-rule="evenodd" clip-rule="evenodd" fill="#FF9900" points="194.773,63.025 166.369,52.838 166.369,11.205 
		194.773,20.883 	"/>
	<polygon fill-rule="evenodd" clip-rule="evenodd" fill="#FF9900" points="199.982,63.025 228.386,52.838 228.386,11.205 
		199.982,20.883 	"/>
	<polygon fill-rule="evenodd" clip-rule="evenodd" fill="#FF9900" points="169.289,8.09 198.035,0 224.689,8.594 198.035,17.643 	
		"/>
</g>
<g>
	<path stroke="#000000" d="M180.326,152.229l-9.542,33.146h-4.147l-7.428-24.619l-6.812,24.619h-4.227l-9.917-33.146h5.128
		l7.223,24.701l6.875-24.701h3.783l7.475,24.779l7.425-24.779H180.326z"/>
	<path stroke="#000000" d="M206.718,175.488l4.803,0.984c-0.873,2.834-2.578,5.182-5.109,7.037
		c-2.535,1.857-5.516,2.787-8.945,2.787c-4.521,0-8.178-1.592-10.975-4.781c-2.796-3.186-4.192-7.363-4.192-12.531
		c0-5.279,1.452-9.545,4.356-12.797c2.905-3.252,6.553-4.879,10.943-4.879c4.326,0,7.804,1.498,10.436,4.492
		c2.633,2.996,3.98,7.475,4.047,13.441h-24.059c0,5.014,1.047,8.393,3.145,10.145c2.094,1.752,4.311,2.627,6.645,2.627
		C202.025,182.014,204.993,179.838,206.718,175.488z M206.437,165.4c-0.043-1.857-0.348-3.51-0.916-4.953s-1.529-2.672-2.883-3.689
		s-2.979-1.525-4.879-1.525c-2.554,0-4.721,0.918-6.5,2.756c-1.779,1.836-2.776,4.307-2.996,7.412H206.437z"/>
	<path stroke="#000000" d="M221.348,185.375h-2.482v-44.754h5.164v17.133c2.356-4.297,5.606-6.445,9.753-6.445
		c3.795,0,6.975,1.5,9.54,4.502c2.563,3,3.847,7.359,3.847,13.074c0,4.928-1.264,9.061-3.784,12.4
		c-2.523,3.342-5.805,5.012-9.845,5.012c-4.499,0-7.949-2.137-10.352-6.406L221.348,185.375z M224.03,172.381
		c0.24,3.402,1.284,5.871,3.13,7.408c1.848,1.535,3.799,2.305,5.852,2.305c2.623,0,4.736-1.139,6.344-3.416
		c1.605-2.275,2.409-5.396,2.409-9.357c0-4.27-0.776-7.625-2.327-10.066c-1.553-2.439-3.705-3.662-6.457-3.662
		c-2.164,0-4.115,0.869-5.853,2.605c-1.737,1.74-2.771,3.984-3.098,6.738V172.381z"/>
	<path stroke="#000000" d="M260.328,176.785l4.924-1.018c1.094,4.164,4.553,6.246,10.373,6.246c2.143,0,3.96-0.48,5.447-1.439
		c1.489-0.961,2.234-2.314,2.234-4.061c0-2.594-1.895-4.242-5.684-4.941l-6.981-1.326c-2.735-0.525-4.909-1.555-6.528-3.086
		c-1.615-1.531-2.424-3.555-2.424-6.072c0-2.777,1.103-5.102,3.311-6.973c2.207-1.871,5.18-2.807,8.918-2.807
		c7.189,0,11.629,2.811,13.311,8.432l-4.724,1.016c-1.354-3.441-4.14-5.164-8.354-5.164c-2.098,0-3.819,0.43-5.162,1.291
		c-1.344,0.859-2.015,2.061-2.015,3.607c0,2.436,1.718,3.969,5.149,4.602l6.453,1.188c6.756,1.225,10.133,4.504,10.133,9.828
		c0,3.045-1.256,5.504-3.773,7.377c-2.515,1.875-5.861,2.812-10.041,2.812C267.042,186.297,262.187,183.125,260.328,176.785z"/>
	<path stroke="#000000" d="M316.171,175.488l4.803,0.984c-0.871,2.834-2.576,5.182-5.111,7.037
		c-2.531,1.857-5.514,2.787-8.941,2.787c-4.521,0-8.18-1.592-10.975-4.781c-2.797-3.186-4.193-7.363-4.193-12.531
		c0-5.279,1.451-9.545,4.359-12.797c2.904-3.252,6.551-4.879,10.943-4.879c4.322,0,7.803,1.498,10.434,4.492
		c2.633,2.996,3.98,7.475,4.045,13.441h-24.057c0,5.014,1.047,8.393,3.141,10.145c2.098,1.752,4.312,2.627,6.648,2.627
		C311.478,182.014,314.449,179.838,316.171,175.488z M315.892,165.4c-0.045-1.857-0.352-3.51-0.918-4.953
		c-0.568-1.443-1.527-2.672-2.881-3.689s-2.98-1.525-4.879-1.525c-2.555,0-4.721,0.918-6.502,2.756
		c-1.777,1.836-2.777,4.307-2.994,7.412H315.892z"/>
	<path stroke="#000000" d="M332.251,185.375h-5.162v-33.146h4.523v7.727c1.594-3.619,3.197-5.965,4.803-7.035
		c1.605-1.074,3.25-1.611,4.934-1.611c0.523,0,1.203,0.041,2.031,0.121v4.924h-1.045c-2.838,0-5.195,1.055-7.072,3.162
		c-1.875,2.107-2.879,4.879-3.012,8.312V185.375z"/>
	<path stroke="#000000" d="M375.455,152.229l-11.443,33.146h-5.352l-11.826-33.146h5.711l9.201,26.943l9.129-26.943H375.455z"/>
	<path stroke="#000000" d="M385.107,140.621v5.725h-5.525v-5.725H385.107z M384.986,152.229v33.146h-5.164v-33.146H384.986z"/>
	<path stroke="#000000" d="M411.962,173.766l4.643,0.82c-0.654,3.662-2.109,6.529-4.359,8.602c-2.252,2.072-5.061,3.109-8.428,3.109
		c-4.568,0-8.049-1.688-10.443-5.061c-2.393-3.371-3.59-7.488-3.59-12.352c0-5.037,1.262-9.227,3.787-12.564
		c2.523-3.342,5.963-5.012,10.312-5.012c3.607,0,6.496,1.08,8.672,3.24c2.176,2.156,3.523,4.945,4.049,8.365l-4.643,0.885
		c-0.875-5.471-3.516-8.207-7.928-8.207c-2.84,0-5.023,1.207-6.551,3.623c-1.529,2.416-2.295,5.545-2.295,9.391
		c0,4.24,0.758,7.533,2.277,9.883c1.518,2.35,3.652,3.525,6.406,3.525C408.128,182.014,410.826,179.264,411.962,173.766z"/>
	<path stroke="#000000" d="M445.726,175.488l4.805,0.984c-0.875,2.834-2.576,5.182-5.111,7.037
		c-2.531,1.857-5.514,2.787-8.943,2.787c-4.521,0-8.182-1.592-10.977-4.781c-2.795-3.186-4.193-7.363-4.193-12.531
		c0-5.279,1.453-9.545,4.359-12.797c2.904-3.252,6.553-4.879,10.943-4.879c4.324,0,7.805,1.498,10.436,4.492
		c2.633,2.996,3.98,7.475,4.045,13.441h-24.057c0,5.014,1.047,8.393,3.143,10.145c2.098,1.752,4.309,2.627,6.646,2.627
		C441.033,182.014,444.001,179.838,445.726,175.488z M445.447,165.4c-0.043-1.857-0.35-3.51-0.918-4.953s-1.527-2.672-2.881-3.689
		s-2.98-1.525-4.879-1.525c-2.557,0-4.723,0.918-6.5,2.756c-1.781,1.836-2.779,4.307-2.996,7.412H445.447z"/>
	<path stroke="#000000" d="M454.007,176.785l4.924-1.018c1.094,4.164,4.551,6.246,10.373,6.246c2.143,0,3.959-0.48,5.447-1.439
		c1.488-0.961,2.232-2.314,2.232-4.061c0-2.594-1.895-4.242-5.682-4.941l-6.98-1.326c-2.736-0.525-4.91-1.555-6.529-3.086
		c-1.615-1.531-2.424-3.555-2.424-6.072c0-2.777,1.102-5.102,3.311-6.973c2.207-1.871,5.18-2.807,8.918-2.807
		c7.189,0,11.627,2.811,13.311,8.432l-4.725,1.016c-1.354-3.441-4.139-5.164-8.354-5.164c-2.098,0-3.818,0.43-5.162,1.291
		c-1.344,0.859-2.016,2.061-2.016,3.607c0,2.436,1.717,3.969,5.15,4.602l6.453,1.188c6.756,1.225,10.133,4.504,10.133,9.828
		c0,3.045-1.256,5.504-3.773,7.377c-2.514,1.875-5.861,2.812-10.041,2.812C460.722,186.297,455.865,183.125,454.007,176.785z"/>
</g>
<g>
	<g>
		<path fill-rule="evenodd" clip-rule="evenodd" d="M337.613,81.389v-7.963c0.006-1.211,0.918-2.02,2.02-2.018l35.684-0.002
			c1.141,0,2.057,0.83,2.059,2.01l-0.002,6.828c-0.008,1.145-0.973,2.641-2.688,5.014l-18.482,26.391
			c6.861-0.16,14.119,0.867,20.354,4.371c1.406,0.789,1.781,1.959,1.893,3.107v8.494c0,1.172-1.281,2.525-2.627,1.822
			c-10.984-5.754-25.559-6.385-37.705,0.068c-1.24,0.662-2.539-0.672-2.539-1.844v-8.076c0-1.293,0.023-3.502,1.328-5.473
			l21.416-30.725l-18.646-0.002C338.535,83.393,337.621,82.58,337.613,81.389z"/>
		<path fill-rule="evenodd" clip-rule="evenodd" d="M209.906,131.117H199.05c-1.033-0.068-1.859-0.846-1.941-1.836l0.007-55.719
			c0-1.115,0.938-2.006,2.095-2.006l10.11-0.004c1.058,0.055,1.907,0.855,1.975,1.871v7.275h0.203
			c2.636-7.035,7.601-10.318,14.288-10.318c6.79,0,11.046,3.283,14.088,10.318c2.633-7.035,8.612-10.318,14.997-10.318
			c4.56,0,9.525,1.877,12.565,6.098c3.445,4.689,2.737,11.49,2.737,17.471l-0.009,35.162c0,1.113-0.938,2.006-2.094,2.006h-10.844
			c-1.089-0.07-1.949-0.934-1.949-2.002l-0.002-29.537c0-2.346,0.203-8.209-0.305-10.438c-0.811-3.752-3.242-4.807-6.383-4.807
			c-2.635,0-5.372,1.758-6.487,4.572c-1.114,2.814-1.013,7.504-1.013,10.672v29.533c0,1.113-0.938,2.006-2.094,2.006h-10.844
			c-1.09-0.07-1.949-0.934-1.949-2.002l-0.011-29.537c0-6.215,1.014-15.361-6.688-15.361c-7.804,0-7.499,8.91-7.499,15.361
			L212,129.111C212.001,130.225,211.064,131.117,209.906,131.117z"/>
		<path fill-rule="evenodd" clip-rule="evenodd" d="M403.589,70.381c15.984,0,24.631,13.836,24.631,31.424
			c0,17-9.549,30.486-24.631,30.486c-15.684,0-24.229-13.838-24.229-31.074C379.361,83.865,388.007,70.381,403.589,70.381z
			 M403.691,83.188c-7.945,0-8.447,10.904-8.447,17.705s-0.1,19.906,8.346,19.906c8.346,0,8.746-10.291,8.746-17.443
			c0-4.689-0.199-10.318-1.607-14.773C409.519,84.713,407.107,83.188,403.691,83.188z"/>
		<path fill-rule="evenodd" clip-rule="evenodd" d="M451.355,131.117h-10.816c-1.088-0.07-1.947-0.934-1.947-2.002l-0.018-55.74
			c0.092-1.02,0.99-1.818,2.086-1.818l10.07-0.004c0.947,0.051,1.729,0.697,1.928,1.562v8.521h0.205
			c3.041-7.621,7.295-11.256,14.795-11.256c4.863,0,9.627,1.758,12.668,6.566c2.838,4.455,2.838,11.959,2.838,17.354v35.061
			c-0.123,0.988-1.008,1.756-2.08,1.756h-10.885c-1.004-0.066-1.814-0.805-1.934-1.756V99.107c0-6.096,0.711-15.008-6.789-15.008
			c-2.637,0-5.068,1.758-6.283,4.455c-1.52,3.4-1.725,6.801-1.725,10.553v30.004C453.449,130.225,452.511,131.117,451.355,131.117z"
			/>
		<path fill-rule="evenodd" clip-rule="evenodd" d="M310.398,104.508c0,4.23,0.102,7.754-2.031,11.516
			c-1.727,3.055-4.469,4.936-7.516,4.936c-4.164,0-6.602-3.174-6.602-7.875c0-9.244,8.295-10.926,16.148-10.926V104.508z
			 M321.343,130.977c-0.721,0.645-1.756,0.688-2.566,0.254c-3.605-2.998-4.25-4.383-6.223-7.236
			c-5.959,6.072-10.18,7.893-17.898,7.893c-9.141,0-16.25-5.641-16.25-16.922c0-8.812,4.773-14.805,11.578-17.742
			c5.891-2.586,14.117-3.057,20.414-3.762v-1.41c0-2.584,0.203-5.639-1.32-7.871c-1.32-2-3.859-2.822-6.094-2.822
			c-4.141,0-7.822,2.121-8.727,6.52c-0.188,0.979-0.902,1.945-1.885,1.996l-10.523-1.139c-0.889-0.201-1.876-0.914-1.62-2.27
			c2.419-12.766,13.946-16.623,24.278-16.623c5.281,0,12.188,1.41,16.35,5.406c5.283,4.936,4.773,11.516,4.773,18.684v16.914
			c0,5.088,2.115,7.318,4.1,10.061c0.691,0.988,0.848,2.162-0.037,2.885c-2.217,1.859-6.156,5.281-8.324,7.211L321.343,130.977z"/>
		<path fill-rule="evenodd" clip-rule="evenodd" d="M169.31,104.508c0,4.23,0.103,7.754-2.031,11.516
			c-1.725,3.055-4.467,4.936-7.515,4.936c-4.163,0-6.601-3.174-6.601-7.875c0-9.244,8.294-10.926,16.146-10.926V104.508z
			 M180.256,130.977c-0.719,0.645-1.755,0.688-2.565,0.254c-3.605-2.998-4.252-4.383-6.223-7.236
			c-5.959,6.072-10.18,7.893-17.898,7.893c-9.141,0-16.25-5.641-16.25-16.922c0-8.812,4.773-14.805,11.578-17.742
			c5.891-2.586,14.117-3.057,20.412-3.762v-1.41c0-2.584,0.203-5.639-1.318-7.871c-1.32-2-3.861-2.822-6.094-2.822
			c-4.141,0-7.823,2.121-8.727,6.52c-0.188,0.979-0.901,1.945-1.887,1.996l-10.521-1.139c-0.889-0.201-1.877-0.914-1.619-2.27
			c2.416-12.766,13.945-16.623,24.276-16.623c5.282,0,12.187,1.41,16.352,5.406c5.28,4.936,4.772,11.516,4.772,18.684v16.914
			c0,5.088,2.113,7.318,4.098,10.061c0.693,0.988,0.85,2.162-0.035,2.885c-2.217,1.859-6.158,5.281-8.325,7.211L180.256,130.977z"/>
	</g>
</g>
</svg>
