<?xml version="1.0" standalone="no"?>
<!DOCTYPE svg PUBLIC "-//W3C//DTD SVG 20010904//EN"
 "http://www.w3.org/TR/2001/REC-SVG-20010904/DTD/svg10.dtd">
<svg version="1.0" xmlns="http://www.w3.org/2000/svg"
 width="900.000000pt" height="450.000000pt" viewBox="0 0 900.000000 450.000000"
 preserveAspectRatio="xMidYMid meet">
<metadata>
Created by potrace 1.10, written by Peter Selinger 2001-2011
</metadata>
<g transform="translate(0.000000,450.000000) scale(0.100000,-0.100000)"
fill="#7a7777" stroke="none">
<path d="M7328 3058 c-27 -21 -28 -21 -86 -3 -44 13 -67 15 -88 8 -28 -9 -74
-64 -74 -88 0 -24 33 -26 62 -5 32 24 67 26 94 5 10 -8 37 -15 60 -15 33 0 46
6 73 34 57 59 22 114 -41 64z"/>
<path d="M2517 2909 c-90 -18 -165 -85 -200 -179 -24 -64 -23 -225 0 -277 19
-41 68 -110 93 -131 69 -57 205 -70 289 -27 57 28 92 68 121 133 28 62 24 96
-12 100 -24 3 -28 -2 -48 -55 -25 -67 -50 -97 -102 -124 -48 -24 -101 -24
-157 1 -54 25 -87 60 -113 119 -50 115 -29 239 54 322 41 41 54 48 102 54 30
4 69 4 87 0 42 -9 106 -58 115 -88 10 -33 35 -57 59 -57 83 0 -26 174 -124
199 -64 16 -115 19 -164 10z"/>
<path d="M3105 2906 c-74 -16 -137 -67 -177 -140 -32 -59 -33 -65 -32 -171 0
-92 4 -118 23 -158 50 -107 145 -167 262 -167 174 0 289 129 289 324 0 113
-21 167 -96 241 -58 59 -63 62 -131 73 -40 7 -75 11 -80 11 -4 -1 -31 -6 -58
-13z m183 -81 c62 -37 112 -138 112 -228 0 -160 -104 -277 -236 -264 -28 3
-62 11 -75 19 -35 19 -99 80 -99 94 0 6 -7 25 -15 40 -23 44 -20 170 6 228 25
57 78 112 122 125 44 14 152 5 185 -14z"/>
<path d="M2154 2904 c-8 -4 -10 -73 -6 -249 3 -171 2 -245 -6 -245 -6 0 -55
66 -108 148 -54 81 -117 173 -141 204 -24 31 -43 61 -43 67 0 6 -4 11 -9 11
-5 0 -14 14 -21 31 -12 27 -17 30 -53 27 l-40 -3 2 -303 c0 -167 3 -308 6
-313 8 -12 42 -11 50 2 4 5 6 118 6 249 -1 138 2 241 7 244 6 3 29 -25 51 -62
23 -37 47 -76 54 -86 7 -11 16 -25 20 -30 38 -49 159 -225 166 -242 16 -37 72
-85 95 -82 21 3 21 7 26 308 3 168 1 311 -4 318 -8 12 -31 15 -52 6z"/>
<path d="M3653 2899 c-18 -18 -19 -599 -1 -617 14 -14 191 -17 234 -3 16 5 45
12 65 15 51 9 122 74 153 141 23 47 26 67 26 159 0 118 -15 167 -70 230 -58
66 -96 78 -255 83 -106 4 -143 2 -152 -8z m274 -60 c44 -9 59 -18 92 -56 47
-53 56 -87 55 -203 -1 -110 -25 -163 -95 -209 -43 -28 -59 -32 -142 -38 -52
-3 -106 -3 -121 1 l-26 6 0 250 c0 218 2 250 16 258 19 10 146 5 221 -9z"/>
<path d="M4223 2903 c-10 -4 -13 -74 -13 -306 0 -166 4 -308 8 -315 7 -9 56
-12 213 -10 l204 3 3 28 c4 32 21 30 -198 31 l-175 1 0 120 0 120 173 -4 173
-3 -3 33 -3 34 -172 -4 -173 -3 0 111 c0 81 3 111 13 112 6 1 82 1 168 -1 86
-1 166 1 178 5 25 7 28 40 5 49 -19 7 -383 7 -401 -1z"/>
<path d="M5485 2901 c-52 -9 -91 -35 -126 -85 -23 -31 -29 -50 -29 -93 0 -50
3 -56 44 -98 25 -24 57 -47 73 -51 15 -3 45 -12 66 -20 20 -8 50 -14 65 -15
37 -1 103 -39 113 -65 9 -27 -9 -65 -41 -82 -39 -21 -146 -10 -175 18 -13 12
-25 32 -27 43 -4 28 -42 47 -95 47 -36 0 -43 -4 -48 -22 -6 -22 12 -64 49
-120 10 -15 43 -40 74 -54 121 -57 268 -37 345 47 36 40 37 44 37 117 0 74 0
75 -39 112 -28 26 -60 44 -109 59 -39 11 -76 21 -83 21 -7 0 -34 8 -59 17 -75
29 -88 62 -42 106 23 22 38 27 76 27 55 0 106 -29 106 -61 0 -22 6 -25 70 -34
30 -4 51 -1 63 7 17 13 17 15 -2 58 -20 46 -45 73 -92 103 -31 18 -154 29
-214 18z"/>
<path d="M622 2593 l3 -308 135 -5 c255 -9 344 39 344 187 0 56 -4 66 -29 93
-16 16 -37 32 -47 36 -26 8 -22 26 11 49 57 38 64 153 12 203 -49 48 -71 52
-255 52 l-176 0 2 -307z m362 218 c21 -20 26 -34 26 -72 0 -86 -53 -112 -215
-107 l-100 3 -3 89 c-2 49 0 96 3 104 4 11 30 13 134 10 121 -3 131 -5 155
-27z m-122 -241 l110 0 34 -34 c27 -27 34 -42 34 -74 0 -52 -36 -97 -84 -106
-66 -13 -240 -15 -253 -4 -9 7 -13 41 -13 113 0 90 2 104 18 108 9 3 23 3 30
1 8 -2 63 -4 124 -4z"/>
<path d="M1354 2863 c-9 -21 -23 -54 -31 -73 -8 -19 -21 -48 -29 -63 -8 -16
-14 -33 -14 -39 0 -5 -6 -24 -14 -41 -7 -18 -20 -50 -29 -72 -37 -98 -80 -202
-93 -227 -8 -14 -14 -38 -14 -52 0 -21 5 -26 23 -26 35 0 53 26 82 118 15 45
30 82 34 83 44 7 264 3 269 -5 10 -15 33 -77 39 -106 12 -48 44 -90 69 -90 20
0 24 5 24 30 0 16 -7 46 -16 67 -9 21 -24 54 -32 73 -8 19 -21 48 -28 63 -8
16 -14 36 -14 46 0 9 -7 26 -15 37 -8 10 -15 26 -15 35 0 9 -7 30 -15 45 -8
16 -15 36 -15 45 0 8 -4 19 -9 25 -10 9 -33 69 -52 132 -9 29 -14 32 -50 32
-36 0 -41 -3 -55 -37z m70 -75 c15 -59 44 -142 64 -186 14 -29 22 -55 19 -58
-9 -9 -198 -7 -207 3 -5 4 2 31 14 58 43 93 56 126 56 141 0 40 45 75 54 42z"/>
<path d="M4792 2598 l3 -303 226 -3 c173 -2 229 1 237 10 6 8 7 30 3 53 l-6
40 -160 0 -160 0 -3 68 c-2 38 1 74 7 81 7 8 45 9 142 4 86 -5 137 -4 143 2
11 11 11 84 0 101 -5 8 -51 10 -148 8 l-141 -4 0 65 0 65 152 -4 153 -3 10 28
c6 15 10 42 8 58 l-3 31 -233 3 -232 2 2 -302z"/>
<path d="M5902 2593 l3 -308 59 2 c35 1 62 6 66 14 5 7 5 37 2 68 -4 31 -7 74
-7 96 l0 40 121 5 c113 5 123 7 157 33 97 74 105 236 16 306 -61 47 -80 51
-254 51 l-165 0 2 -307z m286 192 c65 -8 92 -79 52 -135 -23 -33 -98 -53 -172
-48 l-43 3 -3 85 c-4 115 -2 116 166 95z"/>
<path d="M6557 2878 c-7 -33 -28 -89 -43 -120 -8 -14 -14 -33 -14 -41 0 -8 -7
-28 -15 -43 -8 -16 -15 -37 -15 -46 0 -9 -4 -19 -9 -22 -5 -3 -12 -18 -15 -33
-4 -16 -14 -44 -23 -63 -8 -19 -21 -48 -28 -65 -7 -16 -22 -51 -34 -78 -33
-70 -27 -82 39 -82 67 0 87 16 99 78 5 26 12 51 15 55 4 3 56 7 117 8 101 1
111 0 124 -19 8 -12 15 -36 15 -54 0 -43 23 -63 76 -64 24 -1 50 -2 57 -3 18
-2 21 42 3 69 -9 13 -16 33 -16 43 0 10 -7 27 -15 38 -8 10 -15 28 -15 39 0
11 -6 29 -14 40 -7 11 -16 31 -19 45 -3 14 -12 43 -21 65 -8 22 -25 65 -36 95
-12 30 -31 83 -43 118 l-21 62 -72 0 c-66 0 -72 -2 -77 -22z m99 -165 c12 -54
37 -128 45 -137 5 -6 9 -23 9 -38 l0 -28 -75 0 -75 0 0 33 c0 18 4 37 9 43 5
5 16 36 26 69 27 89 49 110 61 58z"/>
<path d="M6982 2598 l3 -303 50 -6 c78 -10 78 -11 67 196 -6 99 -8 185 -5 192
10 27 30 11 61 -49 18 -35 57 -101 87 -148 30 -47 64 -105 77 -130 13 -25 27
-48 33 -52 5 -4 38 -8 73 -8 l62 0 2 270 c1 149 2 285 2 303 l1 32 -64 3 -64
3 4 -198 c4 -172 2 -198 -11 -201 -10 -2 -23 13 -35 40 -17 39 -93 170 -137
237 -10 14 -23 35 -28 46 -43 81 -35 75 -111 75 l-69 0 2 -302z"/>
<path d="M7772 2888 c-7 -7 -12 -20 -12 -30 0 -9 -6 -32 -14 -50 -8 -18 -21
-51 -29 -73 -33 -88 -49 -131 -62 -160 -7 -16 -15 -39 -18 -50 -3 -11 -15 -45
-27 -75 -12 -30 -24 -64 -27 -75 -3 -11 -12 -28 -20 -37 -8 -9 -13 -25 -11
-35 3 -15 12 -18 58 -15 78 5 90 10 90 37 0 14 7 42 15 63 l16 39 112 -2 c137
-3 127 -1 127 -27 0 -12 7 -42 16 -65 15 -38 20 -43 49 -43 18 0 46 -3 64 -6
38 -8 50 14 31 54 -7 15 -19 43 -28 62 -8 19 -21 48 -28 63 -8 16 -14 36 -14
46 0 9 -7 26 -15 37 -8 10 -15 27 -15 36 0 17 -19 67 -46 121 -8 16 -14 36
-14 46 0 9 -7 26 -15 37 -8 10 -15 30 -15 44 0 14 -7 36 -16 48 -13 19 -24 22
-78 22 -35 0 -67 -5 -74 -12z m92 -180 c9 -12 16 -31 16 -41 0 -10 9 -38 21
-63 11 -25 19 -55 17 -67 -3 -20 -10 -22 -76 -25 -82 -3 -97 9 -70 57 14 26
31 79 43 134 7 33 28 35 49 5z"/>
<path d="M4945 1873 c-174 -5 -155 23 -155 -227 0 -186 2 -215 16 -220 9 -3
76 -6 150 -6 113 0 136 3 141 16 11 30 -15 38 -129 38 l-113 1 -3 78 -3 77
116 0 c97 0 117 3 122 16 10 28 -19 35 -127 32 l-105 -3 0 70 0 70 120 0 c107
0 120 2 123 18 4 21 -15 48 -32 45 -6 -1 -60 -4 -121 -5z"/>
<path d="M6382 1868 c-18 -18 -15 -68 4 -75 40 -15 68 35 38 68 -20 22 -26 23
-42 7z"/>
<path d="M6852 1838 c-7 -7 -12 -26 -12 -44 0 -23 -7 -36 -25 -48 -32 -21 -32
-35 3 -47 l27 -9 -3 -108 c-3 -137 5 -157 68 -157 38 0 45 3 45 20 0 14 -8 21
-27 23 -34 4 -40 32 -36 147 3 79 3 80 31 83 23 3 28 8 25 25 -2 14 -11 23
-25 25 -13 2 -24 9 -24 15 -1 7 -3 21 -4 32 -1 11 -2 28 -3 38 -2 20 -23 22
-40 5z"/>
<path d="M5830 1763 c-36 -11 -77 -33 -92 -50 -51 -58 -62 -146 -28 -212 32
-63 62 -81 138 -81 63 0 66 1 102 40 79 86 56 240 -43 284 -46 20 -60 24 -77
19z m53 -67 c25 -10 38 -25 51 -61 16 -42 17 -52 5 -88 -21 -64 -49 -83 -114
-78 -11 1 -32 15 -47 32 -51 54 -31 175 32 198 34 13 36 13 73 -3z"/>
<path d="M7985 1763 c-78 -15 -149 -101 -99 -120 12 -4 26 5 45 28 23 28 34
34 67 34 44 0 72 -18 72 -46 0 -32 -28 -49 -82 -49 -60 0 -110 -27 -128 -69
-10 -24 -8 -35 9 -69 24 -47 35 -52 106 -52 43 0 59 5 75 22 l20 22 20 -22
c12 -12 30 -22 41 -22 29 0 35 28 10 51 -19 18 -21 30 -20 125 1 114 -3 125
-55 148 -44 20 -58 23 -81 19z m82 -194 c13 -13 1 -53 -24 -81 -40 -45 -133
-26 -133 27 0 44 125 86 157 54z"/>
<path d="M5175 1746 c-16 -12 -18 -26 -16 -120 3 -122 11 -160 42 -187 28 -24
114 -26 147 -3 21 15 25 15 41 0 30 -28 38 -1 40 149 1 105 -2 145 -12 159
-13 17 -14 17 -31 1 -14 -15 -16 -28 -10 -86 12 -124 -31 -208 -100 -195 -53
11 -56 18 -56 151 0 133 -9 158 -45 131z"/>
<path d="M5596 1737 c-36 -19 -40 -19 -51 -4 -27 37 -33 16 -37 -135 -2 -84
-2 -159 0 -165 2 -7 12 -13 22 -13 29 0 35 19 32 105 -4 112 4 134 61 163 48
23 52 28 41 56 -8 20 -19 19 -68 -7z"/>
<path d="M6108 1742 c-15 -9 -35 -31 -44 -47 -15 -29 -15 -34 -1 -62 15 -29
69 -63 100 -63 21 0 84 -28 92 -40 12 -19 -5 -48 -35 -60 -40 -16 -87 -4 -108
28 -9 15 -21 30 -27 34 -43 32 -48 -33 -6 -80 28 -30 34 -32 99 -32 80 0 116
20 127 71 14 62 -30 108 -114 123 -75 13 -109 66 -55 86 44 17 65 11 101 -26
20 -22 39 -34 48 -30 26 10 16 47 -21 82 -30 29 -42 34 -82 33 -26 0 -59 -8
-74 -17z"/>
<path d="M6565 1748 c-37 -20 -65 -57 -65 -86 0 -36 43 -78 90 -86 19 -4 52
-14 73 -23 32 -14 37 -21 35 -42 -4 -33 -48 -55 -91 -47 -22 4 -39 17 -55 41
-23 37 -46 45 -56 20 -8 -23 9 -60 40 -84 21 -16 41 -21 89 -21 48 0 68 5 89
21 39 31 49 63 32 104 -16 37 -50 58 -110 69 -52 10 -76 26 -76 54 0 15 9 26
27 33 38 14 77 3 102 -31 28 -38 51 -39 51 -2 -1 68 -108 117 -175 80z"/>
<path d="M7094 1746 c-64 -35 -84 -76 -84 -172 0 -71 1 -74 38 -114 38 -39 41
-40 106 -40 60 0 70 3 92 28 37 39 43 54 32 82 l-9 25 -39 -45 c-33 -39 -43
-45 -77 -45 -47 0 -80 27 -89 73 l-6 32 105 0 c119 0 134 8 123 63 -9 49 -35
91 -68 110 -34 19 -93 21 -124 3z m124 -74 c38 -46 27 -57 -62 -60 -44 -2 -83
1 -88 6 -14 14 9 60 39 76 38 21 83 12 111 -22z"/>
<path d="M7442 1743 c-20 -14 -27 -15 -44 -4 -13 8 -24 9 -30 3 -6 -6 -11 -78
-13 -161 -3 -140 -2 -151 16 -156 35 -11 40 3 37 113 -3 90 0 111 15 134 24
35 70 45 104 23 l26 -17 -7 -124 c-6 -111 -5 -125 10 -131 9 -3 24 -2 33 4 13
8 16 30 16 126 0 132 9 151 70 151 55 0 60 -11 60 -142 0 -124 5 -142 35 -142
25 0 27 9 22 153 -4 126 -4 128 -34 157 -39 40 -103 42 -137 6 l-23 -25 -39
25 c-44 28 -84 30 -117 7z"/>
<path d="M6378 1738 c-6 -19 -2 -308 5 -314 3 -3 15 -3 26 1 20 6 21 13 21
154 0 146 -5 171 -36 171 -6 0 -14 -6 -16 -12z"/>
</g>
</svg>
