<?xml version="1.0" encoding="UTF-8" standalone="no"?>
<svg width="290px" height="65px" viewBox="0 0 290 65" version="1.1" xmlns="http://www.w3.org/2000/svg" xmlns:xlink="http://www.w3.org/1999/xlink" xmlns:sketch="http://www.bohemiancoding.com/sketch/ns">
    <!-- Generator: Sketch 3.5.1 (25234) - http://www.bohemiancoding.com/sketch -->
    <title>BlackDuckLogo</title>
    <desc>Created with Sketch.</desc>
    <defs>
        <path id="path-1" d="M0.06,0.615 L289.753,0.615 L289.753,64.94 L0.06,64.94"></path>
    </defs>
    <g id="Page-1" stroke="none" stroke-width="1" fill="none" fill-rule="evenodd" sketch:type="MSPage">
        <g id="BlackDuckLogo" sketch:type="MSLayerGroup">
            <path d="M205.524,45.395 C212.035,45.395 216.41,41.58 216.41,34.545 C216.41,27.544 212.035,23.693 205.524,23.693 L199.573,23.693 L199.573,45.395 L205.524,45.395 L205.524,45.395 Z M198.068,22.293 L205.769,22.293 C213.049,22.293 217.985,26.773 217.985,34.545 C217.985,42.351 213.049,46.796 205.769,46.796 L198.068,46.796 L198.068,22.293 L198.068,22.293 Z" id="Fill-1" fill="#414140" sketch:type="MSShapeGroup"></path>
            <path d="M223.654,22.293 L225.159,22.293 L225.159,38.325 C225.159,42.945 228.169,45.781 232.79,45.781 C237.41,45.781 240.456,42.945 240.456,38.255 L240.456,22.293 L241.96,22.293 L241.96,38.394 C241.96,43.785 238.215,47.216 232.825,47.216 C227.434,47.216 223.654,43.785 223.654,38.394 L223.654,22.293" id="Fill-2" fill="#414140" sketch:type="MSShapeGroup"></path>
            <path d="M258.536,21.873 C264.346,21.873 267.287,24.953 267.287,24.953 L266.376,26.074 C266.376,26.074 263.471,23.309 258.571,23.309 C252.55,23.309 247.964,28.034 247.964,34.369 C247.964,40.74 252.515,45.781 258.676,45.781 C263.926,45.781 266.972,42.455 266.972,42.455 L267.917,43.506 C267.917,43.506 264.626,47.216 258.676,47.216 C251.536,47.216 246.389,41.476 246.389,34.369 C246.389,27.264 251.64,21.873 258.536,21.873" id="Fill-3" fill="#414140" sketch:type="MSShapeGroup"></path>
            <path d="M273.385,22.293 L274.89,22.293 L274.89,33.215 L276.133,33.215 L287.443,22.293 L289.263,22.293 L277.428,33.845 L277.428,33.914 L289.753,46.796 L287.933,46.796 L276.133,34.615 L274.89,34.615 L274.89,46.796 L273.385,46.796 L273.385,22.293" id="Fill-4" fill="#414140" sketch:type="MSShapeGroup"></path>
            <path d="M91.21,41.545 C92.996,41.545 93.871,40.32 93.871,38.92 C93.871,37.519 93.031,36.365 91.246,36.365 L86.641,36.365 L86.641,41.545 L91.21,41.545 L91.21,41.545 Z M90.685,31.465 C92.226,31.465 92.891,30.344 92.891,29.154 C92.891,27.999 92.226,27.019 90.581,27.019 L86.641,27.019 L86.641,31.465 L90.685,31.465 L90.685,31.465 Z M80.515,21.767 L90.616,21.767 C95.621,21.767 99.122,24.008 99.122,28.314 C99.122,30.414 98.106,32.549 96.216,33.635 L96.216,33.705 C99.086,34.58 100.136,37.135 100.136,39.34 C100.136,44.801 95.586,46.796 90.616,46.796 L80.515,46.796 L80.515,21.767 L80.515,21.767 Z" id="Fill-5" fill="#1A1918" sketch:type="MSShapeGroup"></path>
            <path d="M103.251,21.767 L109.377,21.767 L109.377,41.545 L119.598,41.545 L119.598,46.796 L103.251,46.796 L103.251,21.767" id="Fill-6" fill="#1A1918" sketch:type="MSShapeGroup"></path>
            <path d="M133.583,27.474 C133.583,27.474 133.023,30.204 132.568,31.779 L131.132,36.644 L136.068,36.644 L134.668,31.779 C134.213,30.204 133.653,27.474 133.653,27.474 L133.583,27.474 L133.583,27.474 Z M137.503,41.545 L129.698,41.545 L128.192,46.796 L121.892,46.796 L130.398,21.767 L136.838,21.767 L145.344,46.796 L139.043,46.796 L137.503,41.545 L137.503,41.545 Z" id="Fill-7" fill="#1A1918" sketch:type="MSShapeGroup"></path>
            <path d="M159.22,21.348 C165.416,21.348 168.601,24.884 168.601,24.884 L165.766,29.504 C165.766,29.504 162.965,26.949 159.5,26.949 C154.705,26.949 152.429,30.484 152.429,34.09 C152.429,37.8 154.879,41.615 159.5,41.615 C163.281,41.615 166.151,38.535 166.151,38.535 L169.301,43.016 C169.301,43.016 165.766,47.216 159.22,47.216 C151.379,47.216 146.094,41.65 146.094,34.229 C146.094,26.949 151.695,21.348 159.22,21.348" id="Fill-8" fill="#1A1918" sketch:type="MSShapeGroup"></path>
            <g id="Group-14">
                <mask id="mask-2" sketch:name="Clip 10" fill="white">
                    <use xlink:href="#path-1"></use>
                </mask>
                <g id="Clip-10"></g>
                <path d="M173.009,21.767 L179.135,21.767 L179.135,31.43 L179.982,31.43 L186.417,21.767 L192.999,21.767 L184.988,33.74 L184.988,33.809 L193.383,46.796 L186.522,46.796 L179.982,36.644 L179.135,36.644 L179.135,46.796 L173.009,46.796 L173.009,21.767" id="Fill-9" fill="#1A1918" sketch:type="MSShapeGroup" mask="url(#mask-2)"></path>
                <path d="M10.581,57.435 C6.729,54.673 3.744,50.566 2.011,45.974 C0.227,41.379 -0.337,36.297 0.188,31.316 C1.2,21.418 6.771,11.607 15.712,6.107 C20.137,3.345 25.428,1.719 30.828,1.812 C33.537,1.865 36.179,2.325 38.807,3.223 C41.276,4.096 43.742,5.421 45.824,7.095 C50.046,10.444 52.958,15.139 54.315,20.058 C55.675,24.987 55.579,30.172 54.023,34.761 C54.014,34.787 53.985,34.803 53.957,34.793 C53.939,34.787 53.925,34.769 53.923,34.751 C53.248,29.984 51.983,25.588 49.96,21.734 C47.962,17.883 45.215,14.614 41.902,12.307 C40.227,11.152 38.495,10.24 36.521,9.57 C34.706,8.936 32.667,8.541 30.675,8.494 C26.653,8.361 22.57,9.484 18.929,11.529 C15.288,13.584 12.093,16.546 9.622,20.069 C8.379,21.82 7.325,23.754 6.458,25.717 C5.57,27.751 4.915,29.826 4.43,31.981 C3.493,36.284 3.47,40.829 4.432,45.235 C5.423,49.629 7.43,53.894 10.581,57.435" id="Fill-11" fill="#1A1918" sketch:type="MSShapeGroup" mask="url(#mask-2)"></path>
                <path d="M49.96,21.734 C47.962,17.883 45.215,14.614 41.902,12.307 C40.227,11.152 38.495,10.24 36.521,9.57 C34.706,8.936 32.667,8.541 30.675,8.494 C26.653,8.361 22.57,9.484 18.929,11.529 C15.288,13.584 12.093,16.546 9.622,20.069 C8.379,21.82 7.325,23.754 6.458,25.717 C5.827,27.162 5.319,28.629 4.9,30.129 C4.266,35.59 4.88,41.098 6.759,46.185 C8.63,51.292 11.866,55.856 16.001,59.18 C20.095,62.54 25.148,64.619 30.199,65 C30.221,65.002 30.243,64.988 30.251,64.966 C30.259,64.939 30.245,64.911 30.218,64.902 C27.827,64.101 25.598,62.987 23.561,61.652 C21.533,60.301 19.716,58.695 18.121,56.935 C14.953,53.379 12.792,49.107 11.687,44.642 C9.51,35.701 11.343,25.855 16.85,19.076 C18.224,17.396 19.778,15.892 21.515,14.689 C23.251,13.488 25.14,12.568 27.109,11.982 C28.095,11.695 29.101,11.492 30.119,11.381 C30.639,11.324 31.127,11.298 31.609,11.284 L32.406,11.279 C32.653,11.283 32.9,11.289 33.147,11.307 C35.117,11.441 37.078,11.926 38.926,12.781 C42.657,14.449 45.934,17.502 48.435,21.33 C50.971,25.164 52.648,29.752 53.922,34.744 C53.247,29.98 51.982,25.586 49.96,21.734" id="Fill-12" fill="#414140" sketch:type="MSShapeGroup" mask="url(#mask-2)"></path>
                <path d="M20.22,43.818 C22.279,47.639 25.076,50.864 28.424,53.12 C30.117,54.248 31.863,55.133 33.846,55.771 C35.673,56.379 37.716,56.741 39.709,56.758 C43.733,56.828 47.797,55.642 51.406,53.541 C55.015,51.43 58.164,48.42 60.581,44.857 C61.795,43.088 62.82,41.139 63.656,39.162 C64.248,37.744 64.723,36.307 65.113,34.84 C65.628,29.592 65.002,24.317 63.197,19.43 C61.326,14.323 58.09,9.759 53.955,6.436 C49.861,3.074 44.808,0.996 39.757,0.615 C39.735,0.613 39.713,0.627 39.706,0.649 C39.697,0.676 39.711,0.704 39.738,0.713 C42.129,1.515 44.358,2.628 46.395,3.963 C48.424,5.314 50.24,6.92 51.835,8.68 C55.003,12.236 57.165,16.508 58.269,20.973 C60.446,29.913 58.612,39.76 53.105,46.539 C51.731,48.219 50.177,49.724 48.44,50.927 C46.704,52.127 44.815,53.047 42.846,53.633 C41.86,53.92 40.854,54.123 39.837,54.234 C39.316,54.291 38.828,54.317 38.346,54.331 L37.549,54.336 C37.302,54.332 37.055,54.326 36.808,54.309 C34.838,54.174 32.878,53.688 31.029,52.833 C27.299,51.164 24.022,48.111 21.521,44.284 C19.026,40.51 17.364,36.005 16.097,31.104 C16.854,35.767 18.173,40.062 20.22,43.818" id="Fill-13" fill="#00A3DB" sketch:type="MSShapeGroup" mask="url(#mask-2)"></path>
            </g>
            <path d="M59.04,7.512 C62.936,10.214 65.984,14.273 67.788,18.839 C69.643,23.405 70.286,28.477 69.838,33.466 C68.98,43.38 63.562,53.273 54.706,58.912 C50.325,61.744 45.06,63.451 39.66,63.441 C36.951,63.43 34.301,63.011 31.66,62.154 C29.178,61.32 26.692,60.033 24.585,58.392 C20.31,55.109 17.325,50.46 15.892,45.562 C14.456,40.655 14.472,35.471 15.956,30.857 C15.964,30.83 15.993,30.815 16.02,30.824 C16.04,30.83 16.052,30.847 16.055,30.865 C16.805,35.621 18.138,39.997 20.22,43.818 C22.279,47.639 25.076,50.864 28.424,53.12 C30.117,54.248 31.863,55.133 33.846,55.771 C35.673,56.379 37.716,56.741 39.709,56.758 C43.733,56.828 47.797,55.642 51.406,53.541 C55.015,51.43 58.164,48.42 60.581,44.857 C61.795,43.088 62.82,41.139 63.656,39.162 C64.512,37.115 65.135,35.029 65.586,32.867 C66.456,28.551 66.409,24.006 65.378,19.614 C64.32,15.236 62.247,11.003 59.04,7.512" id="Fill-15" fill="#0079B3" sketch:type="MSShapeGroup"></path>
        </g>
    </g>
</svg>