<?xml version="1.0" encoding="UTF-8" ?>
<!DOCTYPE svg PUBLIC "-//W3C//DTD SVG 1.1//EN" "http://www.w3.org/Graphics/SVG/1.1/DTD/svg11.dtd">
<svg width="1107pt" height="414pt" viewBox="0 0 1107 414" version="1.1" xmlns="http://www.w3.org/2000/svg">
<path fill="#ffffff" d=" M 0.00 0.00 L 1107.00 0.00 L 1107.00 414.00 L 0.00 414.00 L 0.00 0.00 Z" />
<path fill="#7e1518" d=" M 803.49 23.76 C 822.74 21.58 843.26 23.72 860.14 33.82 C 876.13 43.25 887.62 59.22 893.14 76.79 C 898.98 95.51 899.64 115.60 896.96 134.93 C 894.21 154.40 885.67 173.55 870.73 186.69 C 859.02 197.22 843.70 203.12 828.13 204.65 C 810.19 206.48 791.30 204.46 775.26 195.74 C 760.60 187.80 749.25 174.40 742.81 159.11 C 737.79 147.38 735.52 134.63 734.86 121.93 C 734.07 102.99 735.93 83.39 744.19 66.09 C 751.29 50.89 763.48 37.90 778.74 30.75 C 786.52 27.06 794.95 24.80 803.49 23.76 Z" />
<path fill="#7e1518" d=" M 343.99 27.25 C 363.00 27.24 382.02 27.29 401.04 27.23 C 422.89 26.56 445.68 25.10 466.39 33.51 C 482.91 39.87 496.67 53.02 503.51 69.38 C 511.46 88.13 512.25 109.17 509.75 129.15 C 507.12 149.77 497.77 170.05 481.49 183.39 C 467.26 195.46 448.38 200.68 429.98 200.99 C 401.32 201.02 372.66 200.99 344.00 201.00 C 344.00 198.52 344.00 196.04 344.00 193.56 C 349.85 192.96 355.99 192.99 361.45 190.53 C 363.60 189.61 364.30 187.20 364.71 185.12 C 365.61 180.15 365.74 175.08 365.76 170.05 C 365.70 131.04 365.83 92.03 365.69 53.02 C 365.16 48.14 365.85 42.38 362.55 38.39 C 356.98 35.23 350.26 35.45 344.06 34.79 C 344.01 32.28 343.99 29.76 343.99 27.25 Z" />
<path fill="#7e1518" d=" M 30.42 28.53 C 31.84 27.86 33.46 27.82 35.00 27.75 C 129.99 27.76 224.99 27.72 319.98 27.77 C 323.49 27.38 327.30 30.17 326.99 33.90 C 327.02 103.93 326.99 173.95 327.00 243.97 C 326.52 263.09 318.41 281.18 307.69 296.70 C 292.44 318.45 272.27 336.23 250.92 351.81 C 229.39 367.41 206.35 380.90 182.43 392.48 C 179.21 394.28 175.10 394.29 171.89 392.48 C 150.27 382.06 129.42 369.99 109.71 356.30 C 92.60 344.39 76.36 331.12 62.12 315.85 C 43.88 296.14 28.26 271.62 27.27 244.02 C 27.22 174.34 27.28 104.65 27.24 34.96 C 27.02 32.44 28.04 29.69 30.42 28.53 Z" />
<path fill="#ffffff" d=" M 807.58 31.73 C 821.40 29.39 836.58 32.40 847.29 41.80 C 859.61 52.44 866.11 68.21 869.21 83.86 C 872.65 102.06 872.79 120.85 870.15 139.17 C 867.51 156.16 861.40 173.58 848.41 185.45 C 836.74 196.49 819.15 199.50 803.86 195.74 C 791.50 192.85 781.16 184.08 774.72 173.34 C 764.77 157.14 761.76 137.75 761.25 119.04 C 760.87 96.87 763.15 73.39 775.22 54.19 C 782.24 42.63 794.04 33.75 807.58 31.73 Z" />
<path fill="#ffffff" d=" M 390.75 35.25 C 411.92 35.18 434.37 34.09 453.74 44.12 C 466.44 50.38 475.34 62.56 479.42 75.91 C 484.36 91.71 485.11 108.53 484.09 124.95 C 482.93 141.67 479.12 159.09 468.42 172.45 C 460.09 183.10 447.28 189.49 434.12 191.68 C 424.37 193.33 414.37 193.42 404.58 192.13 C 400.75 191.46 396.69 190.74 393.51 188.36 C 390.86 184.50 391.14 179.48 390.77 175.00 C 390.72 128.42 390.76 81.83 390.75 35.25 Z" />
<path fill="#ffffff" d=" M 40.96 36.78 C 65.95 36.58 90.96 37.04 115.95 36.49 C 181.00 36.51 246.04 36.48 311.08 36.51 C 314.71 36.13 318.13 39.31 317.51 43.05 C 317.26 73.47 317.91 103.88 317.69 134.30 C 310.27 138.30 302.94 142.46 295.58 146.55 C 294.16 147.31 292.67 148.15 291.00 148.00 C 281.99 148.02 272.99 147.98 263.99 148.00 C 264.00 146.16 264.01 144.32 264.03 142.48 C 267.78 142.50 271.52 142.50 275.26 142.50 C 277.56 136.47 279.72 130.39 281.98 124.35 C 248.12 110.80 214.26 97.26 180.41 83.71 C 179.02 82.92 177.53 83.55 176.18 84.06 C 142.07 97.52 107.93 110.90 73.82 124.36 C 75.96 130.42 78.28 136.40 80.41 142.46 C 84.19 142.51 87.97 142.50 91.74 142.49 C 91.75 144.33 91.75 146.16 91.76 147.99 C 82.81 147.98 73.86 148.05 64.92 147.98 C 63.27 148.05 61.82 147.14 60.38 146.48 C 52.28 142.35 44.12 138.33 36.00 134.25 C 36.00 103.80 36.01 73.36 35.99 42.92 C 35.57 39.96 37.83 36.73 40.96 36.78 Z" />
<path fill="#7e1518" d=" M 1010.11 99.07 C 1015.30 89.29 1025.95 83.12 1036.88 82.40 C 1048.21 81.65 1059.51 84.11 1070.27 87.52 C 1070.23 94.43 1070.26 101.34 1070.25 108.25 C 1067.26 108.25 1064.27 108.25 1061.29 108.25 C 1060.83 103.04 1062.16 96.91 1058.41 92.63 C 1054.21 88.29 1047.69 87.91 1042.02 87.72 C 1035.94 87.51 1029.76 90.29 1026.34 95.39 C 1022.32 101.31 1021.90 109.18 1024.18 115.84 C 1026.43 122.10 1032.20 126.04 1037.63 129.36 C 1047.83 135.33 1058.56 140.67 1067.43 148.60 C 1079.59 159.02 1079.36 179.45 1068.99 191.04 C 1062.30 198.78 1052.24 203.21 1042.09 203.66 C 1029.92 204.17 1017.62 202.59 1006.09 198.61 C 1005.89 191.07 1006.04 183.53 1006.00 175.99 C 1008.88 175.99 1011.77 175.99 1014.67 176.12 C 1014.92 181.33 1013.75 187.83 1018.41 191.52 C 1026.30 197.34 1037.06 199.33 1046.47 196.49 C 1053.40 194.40 1058.38 187.94 1059.42 180.87 C 1060.40 173.63 1059.79 165.15 1054.21 159.78 C 1047.64 153.26 1039.00 149.55 1031.21 144.78 C 1022.87 139.81 1014.71 133.66 1009.88 125.04 C 1005.49 117.09 1006.02 107.03 1010.11 99.07 Z" />
<path fill="#7e1518" d=" M 522.51 85.00 C 549.09 85.00 575.67 85.00 602.25 85.00 C 602.25 91.83 602.25 98.67 602.25 105.50 C 599.27 105.50 596.29 105.50 593.31 105.51 C 592.86 101.12 593.06 96.58 591.66 92.34 C 588.22 91.39 584.60 91.54 581.07 91.49 C 571.96 91.52 562.85 91.49 553.75 91.50 C 553.75 106.83 553.75 122.17 553.75 137.50 C 563.86 137.20 574.06 138.21 584.12 136.79 C 585.07 133.95 585.48 130.98 585.63 127.99 C 587.74 128.00 589.87 128.00 592.00 128.00 C 591.96 136.52 592.07 145.03 591.94 153.54 C 589.83 153.51 587.73 153.50 585.63 153.50 C 585.13 150.62 585.82 146.76 583.11 144.85 C 580.84 144.06 578.38 144.07 576.02 143.99 C 568.59 144.00 561.17 144.00 553.75 144.00 C 553.79 156.66 553.67 169.32 553.80 181.98 C 554.15 185.29 553.83 189.17 556.10 191.88 C 559.21 194.11 563.31 193.81 566.96 194.01 C 575.35 193.87 583.78 194.39 592.14 193.43 C 593.43 193.20 595.09 193.08 595.74 191.73 C 597.34 187.87 597.28 183.59 597.59 179.49 C 600.56 179.50 603.53 179.50 606.50 179.50 C 606.50 186.67 606.50 193.83 606.50 201.00 C 578.50 201.00 550.50 201.00 522.51 201.00 C 522.49 199.36 522.48 197.72 522.48 196.09 C 526.72 195.42 531.61 195.94 535.24 193.27 C 536.99 190.55 536.79 187.07 537.00 183.95 C 537.00 156.63 537.00 129.31 537.00 101.98 C 536.81 98.88 536.97 95.47 535.27 92.73 C 531.56 90.17 526.75 90.60 522.48 89.94 C 522.48 88.29 522.49 86.65 522.51 85.00 Z" />
<path fill="#7e1518" d=" M 610.50 85.00 C 624.59 85.00 638.67 84.99 652.75 85.01 C 652.74 86.66 652.75 88.31 652.76 89.97 C 648.19 90.18 643.08 89.49 639.07 92.11 C 639.02 95.59 640.96 98.77 642.05 102.02 C 652.52 127.44 663.15 152.78 673.66 178.18 C 684.08 151.62 694.34 124.99 704.67 98.39 C 705.16 96.18 707.40 92.71 704.47 91.41 C 700.81 89.77 696.65 90.09 692.75 89.95 C 692.74 88.30 692.74 86.65 692.75 85.00 C 702.83 85.00 712.92 85.00 723.00 85.00 C 722.99 86.64 722.99 88.29 723.00 89.94 C 720.29 90.42 717.07 89.93 714.83 91.78 C 712.45 95.08 711.34 99.09 709.68 102.76 C 696.70 135.97 683.92 169.25 671.01 202.48 C 669.19 202.50 667.38 202.51 665.58 202.54 C 652.60 171.34 639.77 140.09 626.86 108.86 C 624.61 103.61 622.48 98.28 619.65 93.32 C 617.87 90.04 613.62 90.45 610.49 89.92 C 610.49 88.28 610.49 86.64 610.50 85.00 Z" />
<path fill="#7e1518" d=" M 908.00 85.00 C 923.64 84.98 939.28 85.03 954.91 84.98 C 964.05 84.53 973.84 85.16 981.78 90.17 C 988.55 94.33 992.18 102.19 992.92 109.90 C 994.00 119.66 992.52 130.32 986.27 138.22 C 980.44 145.68 971.17 149.44 962.12 151.21 C 954.59 152.67 946.89 152.87 939.25 152.75 C 939.28 163.49 939.18 174.23 939.29 184.97 C 939.59 187.88 939.39 191.28 941.43 193.61 C 945.64 196.11 950.80 195.73 955.52 196.08 C 955.50 197.72 955.49 199.36 955.50 201.00 C 939.66 201.00 923.83 201.00 908.00 201.00 C 907.99 199.36 907.99 197.72 908.00 196.08 C 912.17 195.52 916.79 195.80 920.48 193.44 C 922.56 190.46 922.10 186.49 922.46 183.03 C 922.53 156.35 922.51 129.66 922.47 102.98 C 922.11 99.50 922.56 95.52 920.46 92.54 C 916.73 90.28 912.16 90.56 908.00 89.98 C 907.99 88.32 907.99 86.66 908.00 85.00 Z" />
<path fill="#ffffff" d=" M 939.24 147.24 C 939.28 128.32 939.20 109.40 939.28 90.48 C 948.49 90.77 958.54 89.26 966.87 94.14 C 973.36 97.97 975.04 106.10 975.43 113.05 C 975.80 122.73 974.14 133.66 966.57 140.48 C 959.16 147.06 948.64 147.56 939.24 147.24 Z" />
<path fill="#ffffff" d=" M 88.20 133.78 C 118.49 122.16 148.56 109.98 178.78 98.19 C 207.74 110.11 236.74 121.93 265.68 133.92 C 209.45 134.12 153.23 133.93 97.01 134.01 C 94.07 134.02 91.13 133.99 88.20 133.78 Z" />
<path fill="#f3da7e" d=" M 138.05 117.63 C 139.78 120.43 142.12 122.63 145.68 122.39 C 144.58 123.58 143.48 124.78 142.39 125.98 C 142.64 127.49 142.89 129.01 143.15 130.53 C 141.28 129.79 139.42 129.07 137.55 128.37 C 137.56 126.03 137.36 123.69 137.38 121.36 C 137.53 120.10 137.75 118.86 138.05 117.63 Z" />
<path fill="#f4df82" d=" M 156.46 121.65 C 156.52 120.10 157.65 118.88 158.34 117.56 C 159.04 118.90 159.74 120.24 160.43 121.59 C 162.07 121.80 163.70 122.01 165.35 122.23 C 164.24 123.52 163.12 124.80 162.00 126.09 C 162.31 127.58 162.61 129.08 162.93 130.57 C 160.89 129.70 158.76 129.01 156.61 128.47 C 156.52 126.20 156.42 123.93 156.46 121.65 Z" />
<path fill="#f5e183" d=" M 177.19 117.49 C 178.06 118.83 178.93 120.18 179.78 121.53 C 181.37 121.74 182.96 121.95 184.56 122.16 C 183.44 123.44 182.32 124.71 181.20 125.98 C 181.52 127.46 181.84 128.94 182.16 130.41 C 180.02 129.63 177.83 129.00 175.61 128.54 C 175.54 126.24 175.46 123.93 175.57 121.64 C 175.89 120.18 176.63 118.86 177.19 117.49 Z" />
<path fill="#f2df82" d=" M 194.67 121.67 C 195.20 120.20 195.97 118.85 196.73 117.50 C 197.58 118.86 198.42 120.23 199.26 121.60 C 200.83 121.78 202.41 121.96 203.99 122.14 C 202.84 123.39 201.70 124.63 200.56 125.88 C 200.82 127.34 201.08 128.81 201.36 130.27 C 199.15 129.34 196.83 128.73 194.43 128.75 C 194.54 126.39 194.49 124.02 194.67 121.67 Z" />
<path fill="#f5e082" d=" M 214.61 121.45 C 214.53 119.90 215.73 118.80 216.40 117.53 C 217.14 118.86 217.88 120.19 218.62 121.52 C 220.22 121.73 221.83 121.94 223.44 122.16 C 222.35 123.29 221.26 124.41 220.17 125.53 C 220.41 127.11 220.67 128.69 220.95 130.27 C 218.89 129.48 216.77 128.89 214.60 128.54 C 214.55 126.17 214.49 123.81 214.61 121.45 Z" />
<path fill="#ceb061" d=" M 137.38 121.36 C 137.36 123.69 137.56 126.03 137.55 128.37 C 137.54 129.88 135.54 130.11 134.60 130.97 C 134.75 129.31 134.93 127.66 135.09 126.00 C 133.93 124.83 132.77 123.65 131.63 122.46 C 133.55 122.10 135.47 121.74 137.38 121.36 Z" />
<path fill="#a57b3b" d=" M 189.78 122.39 C 191.41 122.16 193.04 121.91 194.67 121.67 C 194.49 124.02 194.54 126.39 194.43 128.75 C 194.01 129.29 193.17 130.37 192.75 130.91 C 192.94 129.27 193.16 127.62 193.39 125.98 C 192.19 124.78 190.99 123.58 189.78 122.39 Z" />
<path fill="#bf9d53" d=" M 209.09 122.34 C 210.93 122.05 212.77 121.76 214.61 121.45 C 214.49 123.81 214.55 126.17 214.60 128.54 L 214.62 129.54 C 213.95 129.80 212.61 130.30 211.94 130.56 C 212.22 129.04 212.50 127.53 212.78 126.01 C 211.55 124.78 210.32 123.56 209.09 122.34 Z" />
<path fill="#c09e54" d=" M 151.08 122.51 C 152.87 122.22 154.67 121.94 156.46 121.65 C 156.42 123.93 156.52 126.20 156.61 128.47 L 156.65 129.52 C 155.97 129.81 154.60 130.39 153.91 130.68 C 154.21 129.17 154.51 127.67 154.81 126.17 C 153.57 124.95 152.33 123.73 151.08 122.51 Z" />
<path fill="#b8944d" d=" M 170.62 122.38 C 172.27 122.13 173.92 121.88 175.57 121.64 C 175.46 123.93 175.54 126.24 175.61 128.54 L 175.64 129.53 C 175.07 129.82 173.93 130.41 173.36 130.70 C 173.58 129.15 173.80 127.60 174.03 126.05 C 172.89 124.83 171.75 123.60 170.62 122.38 Z" />
<path fill="#ffffff" d=" M 101.75 157.00 C 106.58 157.00 111.42 157.00 116.25 157.00 C 116.25 184.25 116.26 211.50 116.25 238.75 C 111.42 238.75 106.58 238.75 101.75 238.75 C 101.74 211.50 101.75 184.25 101.75 157.00 Z" />
<path fill="#ffffff" d=" M 136.24 157.01 C 141.08 157.00 145.92 157.00 150.76 157.01 C 150.74 184.25 150.75 211.50 150.75 238.75 C 145.92 238.75 141.08 238.75 136.25 238.75 C 136.25 211.50 136.25 184.25 136.24 157.01 Z" />
<path fill="#ffffff" d=" M 170.75 157.00 C 175.59 157.00 180.44 157.00 185.28 157.00 C 185.14 159.34 184.99 161.69 184.99 164.03 C 185.00 188.94 185.01 213.85 184.99 238.76 C 180.24 238.74 175.50 238.75 170.75 238.75 C 170.74 211.50 170.75 184.25 170.75 157.00 Z" />
<path fill="#ffffff" d=" M 205.00 157.00 C 209.83 157.00 214.67 157.00 219.50 157.00 C 219.52 184.24 219.47 211.47 219.53 238.71 C 214.69 238.78 209.85 238.74 205.01 238.76 C 204.99 211.50 205.00 184.25 205.00 157.00 Z" />
<path fill="#ffffff" d=" M 239.50 157.00 C 244.33 157.00 249.17 157.00 254.00 157.00 C 254.00 184.25 254.00 211.50 254.00 238.75 C 249.15 238.74 244.31 238.79 239.47 238.69 C 239.54 211.46 239.47 184.23 239.50 157.00 Z" />
<path fill="#7e1518" d=" M 515.17 219.16 C 519.62 214.70 525.90 212.44 532.13 212.30 C 539.93 212.21 547.58 214.11 554.94 216.52 C 555.05 222.02 554.98 227.52 555.00 233.03 C 552.69 233.00 550.39 232.97 548.10 232.89 C 547.91 228.14 548.81 221.88 544.00 219.02 C 537.97 216.08 529.64 215.47 524.38 220.29 C 519.51 224.92 518.77 232.43 520.55 238.61 C 521.93 243.34 525.97 246.57 529.91 249.20 C 537.94 254.35 546.62 258.78 553.40 265.64 C 559.16 271.44 560.49 280.37 558.78 288.11 C 557.18 296.09 551.21 302.79 543.90 306.14 C 537.73 308.97 530.76 308.76 524.14 308.27 C 518.36 307.83 512.71 306.45 507.28 304.46 C 507.22 298.47 507.26 292.48 507.25 286.50 C 509.31 286.49 511.38 286.50 513.45 286.49 C 513.87 290.79 512.74 296.26 516.71 299.23 C 523.10 303.97 532.43 305.55 539.59 301.63 C 546.85 297.29 548.10 287.46 546.13 279.91 C 544.44 273.29 538.16 269.59 532.78 266.20 C 524.48 261.23 515.66 255.98 510.72 247.33 C 505.65 238.41 507.62 226.10 515.17 219.16 Z" />
<path fill="#7e1518" d=" M 730.02 214.48 C 754.66 214.50 779.31 214.53 803.95 214.47 C 804.03 220.15 804.01 225.85 803.97 231.54 C 801.82 231.51 799.68 231.49 797.55 231.45 C 797.44 228.31 797.78 225.11 796.98 222.04 C 796.68 220.76 795.23 220.41 794.13 220.29 C 787.20 219.45 780.20 219.82 773.25 219.76 C 773.25 242.83 773.26 265.91 773.24 288.98 C 773.27 292.58 772.97 296.32 774.22 299.77 C 777.00 302.69 781.59 301.98 785.27 302.34 C 785.24 303.64 785.24 304.94 785.24 306.25 C 773.08 306.25 760.92 306.25 748.75 306.25 C 748.74 304.94 748.73 303.63 748.74 302.33 C 752.20 302.04 756.31 302.54 759.17 300.23 C 760.94 297.17 760.41 293.37 760.72 289.95 C 760.79 266.55 760.72 243.16 760.75 219.76 C 754.13 219.81 747.50 219.51 740.90 220.11 C 739.45 220.33 737.46 220.17 736.85 221.85 C 735.82 224.94 736.37 228.29 736.24 231.50 C 734.15 231.50 732.07 231.50 730.00 231.50 C 730.00 225.83 729.98 220.15 730.02 214.48 Z" />
<path fill="#7e1518" d=" M 344.23 214.51 C 355.57 214.49 366.92 214.50 378.26 214.50 C 378.25 215.51 378.23 217.54 378.23 218.56 C 375.06 219.01 371.41 218.76 368.79 220.83 C 367.48 222.94 367.69 225.63 367.50 228.03 C 367.52 250.02 367.45 272.01 367.54 294.00 C 367.85 296.20 367.44 299.03 369.29 300.64 C 372.03 302.09 375.25 302.03 378.26 302.39 C 378.26 303.35 378.25 305.29 378.24 306.25 C 366.91 306.25 355.59 306.26 344.26 306.24 C 344.24 304.96 344.23 303.68 344.22 302.40 C 347.32 302.00 350.67 302.06 353.45 300.43 C 355.77 295.70 354.74 290.10 355.00 284.99 C 354.99 266.32 355.02 247.64 354.99 228.97 C 354.79 226.14 355.00 223.05 353.49 220.52 C 350.72 218.88 347.37 218.99 344.28 218.55 C 344.26 217.20 344.24 215.85 344.23 214.51 Z" />
<path fill="#7e1518" d=" M 397.97 214.50 C 404.54 214.54 411.12 214.39 417.70 214.60 C 433.42 238.19 449.40 261.60 465.26 285.10 C 465.23 265.74 465.27 246.38 465.25 227.02 C 465.02 224.83 465.30 222.18 463.63 220.49 C 460.89 218.84 457.54 219.01 454.49 218.52 C 454.49 217.51 454.50 215.50 454.51 214.50 C 463.50 214.50 472.49 214.50 481.48 214.50 C 481.49 215.51 481.52 217.53 481.53 218.55 C 478.44 218.99 475.10 218.87 472.33 220.49 C 471.36 221.73 471.28 223.37 471.09 224.87 C 470.54 230.56 470.80 236.29 470.75 242.00 C 470.71 263.85 470.82 285.70 470.69 307.55 C 469.18 307.52 467.67 307.50 466.17 307.49 C 448.84 282.06 431.59 256.58 414.24 231.16 C 414.27 248.44 414.24 265.71 414.25 282.98 C 414.27 288.83 413.96 294.77 415.47 300.48 C 418.51 301.67 421.75 302.12 425.00 302.38 C 424.99 303.67 424.99 304.96 425.00 306.25 C 416.00 306.25 407.00 306.25 398.00 306.25 C 398.00 304.95 397.99 303.66 398.00 302.37 C 402.07 301.96 409.02 302.22 408.58 296.31 C 408.97 276.20 408.64 256.07 408.75 235.95 C 408.63 231.67 409.08 227.34 408.38 223.10 C 407.89 218.17 401.57 219.33 398.06 218.58 C 398.02 217.21 397.99 215.86 397.97 214.50 Z" />
<path fill="#7e1518" d=" M 582.23 214.53 C 606.90 214.46 631.58 214.51 656.25 214.50 C 656.25 220.16 656.25 225.83 656.25 231.49 C 654.15 231.50 652.05 231.50 649.96 231.51 C 649.25 228.05 650.88 223.51 648.28 220.77 C 640.85 219.05 633.08 220.00 625.50 219.75 C 625.49 243.85 625.52 267.94 625.49 292.04 C 625.43 294.99 625.94 297.92 626.86 300.72 C 630.28 301.94 633.91 302.34 637.53 302.34 C 637.50 303.64 637.48 304.95 637.47 306.26 C 625.31 306.24 613.16 306.26 601.00 306.25 C 600.99 304.94 600.99 303.63 601.00 302.33 C 604.45 302.07 608.38 302.47 611.35 300.40 C 613.09 298.01 612.68 294.80 612.98 292.02 C 613.03 267.93 612.98 243.84 613.00 219.75 C 605.96 219.84 598.89 219.44 591.88 220.25 C 590.34 220.21 588.87 221.44 588.89 223.03 C 588.57 225.84 588.53 228.67 588.45 231.50 C 586.38 231.50 584.31 231.50 582.25 231.51 C 582.24 225.85 582.27 220.19 582.23 214.53 Z" />
<path fill="#7e1518" d=" M 675.73 214.50 C 687.08 214.51 698.43 214.46 709.78 214.53 C 709.76 215.88 709.74 217.23 709.73 218.58 C 706.64 218.99 703.27 218.86 700.53 220.53 C 698.94 223.00 699.24 226.16 699.01 228.98 C 698.98 248.32 699.02 267.66 698.99 287.00 C 699.20 291.48 698.39 296.39 700.54 300.51 C 703.33 302.10 706.67 301.99 709.78 302.39 C 709.75 303.67 709.74 304.96 709.74 306.24 C 698.41 306.26 687.08 306.25 675.75 306.25 C 675.75 305.28 675.74 303.35 675.74 302.38 C 678.90 301.91 682.64 302.29 685.22 300.13 C 686.94 296.35 686.38 292.00 686.51 287.96 C 686.48 267.97 686.52 247.98 686.49 227.99 C 686.27 225.60 686.51 222.92 685.21 220.82 C 682.59 218.75 678.94 219.03 675.79 218.61 C 675.77 217.58 675.75 215.53 675.73 214.50 Z" />
<path fill="#7e1518" d=" M 822.23 214.52 C 833.57 214.47 844.92 214.51 856.27 214.50 C 856.26 215.53 856.23 217.58 856.21 218.61 C 852.41 219.11 845.74 218.52 845.80 224.00 C 845.10 241.30 845.71 258.66 845.49 275.99 C 845.74 282.64 845.12 289.99 849.19 295.71 C 855.21 305.06 868.88 306.19 878.07 301.21 C 883.29 298.35 887.25 293.04 887.98 287.07 C 888.93 279.76 888.73 272.37 888.75 265.02 C 888.73 252.98 888.78 240.94 888.73 228.89 C 888.56 226.14 888.65 223.20 887.37 220.69 C 884.68 218.77 881.13 219.08 878.01 218.60 C 877.99 217.23 877.99 215.86 877.99 214.50 C 887.23 214.48 896.46 214.52 905.70 214.48 C 905.71 215.84 905.74 217.20 905.78 218.57 C 902.66 218.98 899.30 218.89 896.50 220.47 C 894.70 223.27 895.15 226.84 894.98 230.01 C 895.01 243.99 895.00 257.97 894.99 271.95 C 894.74 280.87 894.66 290.62 888.96 298.04 C 883.66 305.71 873.99 308.88 865.00 308.54 C 855.92 308.83 846.03 306.08 840.24 298.65 C 833.91 290.62 832.83 279.89 832.99 270.01 C 833.00 256.34 833.02 242.66 832.98 228.99 C 832.76 226.15 833.00 223.06 831.50 220.53 C 828.72 218.89 825.35 219.00 822.26 218.58 C 822.24 217.22 822.23 215.87 822.23 214.52 Z" />
<path fill="#7e1518" d=" M 924.25 231.51 C 924.26 225.83 924.21 220.15 924.29 214.47 C 948.95 214.54 973.60 214.48 998.25 214.50 C 998.25 220.17 998.25 225.83 998.25 231.50 C 996.12 231.50 994.00 231.50 991.89 231.50 C 991.62 228.31 992.13 224.99 991.17 221.89 C 990.71 220.55 989.26 220.39 988.08 220.24 C 981.25 219.46 974.36 219.82 967.50 219.75 C 967.49 244.17 967.51 268.60 967.49 293.02 C 967.62 295.44 967.57 298.09 968.85 300.24 C 971.87 302.50 975.95 302.08 979.53 302.34 C 979.49 303.64 979.48 304.95 979.46 306.26 C 967.31 306.24 955.15 306.26 943.00 306.25 C 942.99 304.94 942.99 303.63 943.00 302.33 C 946.65 301.85 952.09 302.97 954.08 299.05 C 955.55 292.81 954.82 286.31 955.00 279.95 C 955.00 259.88 955.00 239.82 955.00 219.75 C 947.69 219.86 940.33 219.36 933.07 220.42 C 931.79 220.56 930.78 221.70 930.80 222.99 C 930.33 225.80 930.51 228.66 930.49 231.50 C 928.40 231.50 926.32 231.50 924.25 231.51 Z" />
<path fill="#7e1518" d=" M 1017.73 214.50 C 1037.32 214.50 1056.91 214.50 1076.50 214.50 C 1076.49 219.93 1076.53 225.36 1076.47 230.78 C 1074.21 230.75 1071.96 230.74 1069.73 230.72 C 1069.51 227.25 1069.23 223.77 1068.66 220.34 C 1059.47 219.32 1050.22 219.89 1041.00 219.75 C 1041.00 231.83 1041.00 243.92 1041.00 256.00 C 1048.30 255.85 1055.63 256.36 1062.91 255.65 C 1063.54 253.29 1063.88 250.88 1064.19 248.46 C 1065.78 248.48 1067.38 248.50 1069.00 248.51 C 1069.00 255.25 1069.00 261.99 1069.00 268.74 C 1067.38 268.75 1065.78 268.77 1064.19 268.80 C 1063.78 266.61 1063.82 264.27 1062.74 262.27 C 1055.71 260.26 1048.22 261.68 1041.01 261.24 C 1040.98 271.17 1041.01 281.09 1040.99 291.02 C 1041.05 293.82 1041.09 296.84 1042.64 299.30 C 1046.03 301.37 1050.20 300.60 1053.98 300.76 C 1059.62 300.50 1065.41 301.40 1070.94 299.93 C 1073.16 296.90 1072.50 292.76 1073.10 289.22 C 1075.31 289.24 1077.52 289.25 1079.75 289.26 C 1079.74 294.92 1079.74 300.58 1079.76 306.24 C 1059.09 306.26 1038.42 306.24 1017.75 306.25 C 1017.75 305.29 1017.74 303.36 1017.74 302.39 C 1021.59 301.89 1028.21 302.47 1028.14 296.94 C 1028.94 285.31 1028.28 273.62 1028.50 261.96 C 1028.44 250.34 1028.60 238.71 1028.43 227.09 C 1028.11 224.86 1028.45 222.10 1026.75 220.38 C 1024.00 218.92 1020.79 218.94 1017.79 218.61 C 1017.77 217.58 1017.74 215.53 1017.73 214.50 Z" />
<path fill="#ffffff" d=" M 81.81 263.32 C 85.86 262.81 89.94 263.03 94.01 263.00 C 151.34 263.00 208.68 263.00 266.01 263.00 C 269.72 263.02 273.46 262.80 277.14 263.36 C 288.44 265.04 299.75 266.64 311.05 268.30 C 304.65 283.37 294.77 296.69 283.58 308.53 C 261.10 332.13 233.93 350.73 205.67 366.72 C 197.71 371.12 189.69 375.46 181.44 379.30 C 178.22 380.93 174.23 380.59 171.13 378.82 C 139.30 363.23 108.80 344.39 82.36 320.66 C 66.18 305.82 51.23 288.81 42.58 268.39 C 55.66 266.73 68.73 265.01 81.81 263.32 Z" />
<path fill="#3f2714" d=" M 339.00 321.99 C 341.26 321.99 343.53 322.01 345.79 322.01 C 345.78 323.75 345.78 325.50 345.78 327.24 C 343.52 327.24 341.26 327.25 339.00 327.26 C 339.00 325.50 339.00 323.75 339.00 321.99 Z" />
<path fill="#673e1d" d=" M 345.79 322.01 C 347.63 322.00 349.47 322.00 351.31 322.00 C 351.28 323.75 351.25 325.50 351.22 327.25 C 349.40 327.25 347.59 327.25 345.78 327.24 C 345.78 325.50 345.78 323.75 345.79 322.01 Z" />
<path fill="#8e5a2a" d=" M 351.31 322.00 C 355.29 321.98 359.27 322.03 363.25 322.01 C 363.21 323.75 363.18 325.50 363.15 327.25 C 359.17 327.24 355.20 327.26 351.22 327.25 C 351.25 325.50 351.28 323.75 351.31 322.00 Z" />
<path fill="#a9763c" d=" M 363.25 322.01 C 367.57 321.97 371.88 322.05 376.20 322.01 C 376.19 323.76 376.18 325.50 376.18 327.25 C 371.84 327.23 367.49 327.27 363.15 327.25 C 363.18 325.50 363.21 323.75 363.25 322.01 Z" />
<path fill="#c6954e" d=" M 376.20 322.01 C 380.40 321.97 384.61 322.05 388.81 322.02 C 388.79 323.76 388.76 325.50 388.75 327.24 C 384.56 327.24 380.37 327.27 376.18 327.25 C 376.18 325.50 376.19 323.76 376.20 322.01 Z" />
<path fill="#deaf5e" d=" M 388.81 322.02 C 395.20 322.02 401.58 322.00 407.97 322.02 C 408.05 323.76 408.14 325.50 408.23 327.24 C 401.73 327.25 395.24 327.25 388.75 327.24 C 388.76 325.50 388.79 323.76 388.81 322.02 Z" />
<path fill="#c9994f" d=" M 407.97 322.02 C 413.28 322.05 418.58 321.96 423.88 322.01 C 423.85 323.76 423.81 325.50 423.78 327.25 C 418.60 327.28 413.41 327.23 408.23 327.24 C 408.14 325.50 408.05 323.76 407.97 322.02 Z" />
<path fill="#af7f3d" d=" M 423.88 322.01 C 429.32 322.06 434.76 321.95 440.20 322.02 C 440.20 323.76 440.20 325.50 440.20 327.25 C 434.73 327.28 429.25 327.23 423.78 327.25 C 423.81 325.50 423.85 323.76 423.88 322.01 Z" />
<path fill="#93632a" d=" M 440.20 322.02 C 451.79 322.04 463.37 321.97 474.95 322.00 C 474.96 323.75 474.96 325.50 474.98 327.25 C 463.39 327.27 451.79 327.24 440.20 327.25 C 440.20 325.50 440.20 323.76 440.20 322.02 Z" />
<path fill="#9b6e32" d=" M 474.95 322.00 C 479.98 321.98 485.01 322.03 490.05 322.01 C 490.04 323.75 490.04 325.50 490.04 327.25 C 485.02 327.24 480.00 327.26 474.98 327.25 C 474.96 325.50 474.96 323.75 474.95 322.00 Z" />
<path fill="#a57b3b" d=" M 490.05 322.01 C 495.70 321.98 501.36 322.03 507.02 322.01 C 506.99 323.75 506.96 325.50 506.94 327.25 C 501.31 327.24 495.67 327.26 490.04 327.25 C 490.04 325.50 490.04 323.75 490.05 322.01 Z" />
<path fill="#af8844" d=" M 507.02 322.01 C 513.04 321.98 519.05 322.03 525.07 322.01 C 525.06 323.75 525.05 325.50 525.04 327.25 C 519.01 327.24 512.97 327.27 506.94 327.25 C 506.96 325.50 506.99 323.75 507.02 322.01 Z" />
<path fill="#b8944d" d=" M 525.07 322.01 C 530.38 321.98 535.68 322.02 541.00 322.01 C 541.02 323.75 541.05 325.50 541.09 327.25 C 535.74 327.24 530.39 327.26 525.04 327.25 C 525.05 325.50 525.06 323.75 525.07 322.01 Z" />
<path fill="#c09f55" d=" M 541.00 322.01 C 546.67 321.98 552.35 322.03 558.03 322.01 C 558.03 323.75 558.03 325.50 558.04 327.25 C 552.39 327.24 546.74 327.26 541.09 327.25 C 541.05 325.50 541.02 323.75 541.00 322.01 Z" />
<path fill="#c9aa5d" d=" M 558.03 322.01 C 564.01 321.97 569.98 322.03 575.96 322.01 C 575.99 323.75 576.02 325.50 576.05 327.25 C 570.05 327.24 564.05 327.27 558.04 327.25 C 558.03 325.50 558.03 323.75 558.03 322.01 Z" />
<path fill="#d1b564" d=" M 575.96 322.01 C 582.33 321.97 588.70 322.04 595.07 322.01 C 595.01 323.75 594.94 325.50 594.89 327.25 C 588.61 327.24 582.33 327.27 576.05 327.25 C 576.02 325.50 575.99 323.75 575.96 322.01 Z" />
<path fill="#dac06c" d=" M 595.07 322.01 C 601.71 321.97 608.34 322.03 614.98 322.01 C 614.96 323.75 614.94 325.50 614.93 327.25 C 608.25 327.24 601.57 327.27 594.89 327.25 C 594.94 325.50 595.01 323.75 595.07 322.01 Z" />
<path fill="#e1ca73" d=" M 614.98 322.01 C 621.96 321.98 628.94 322.02 635.92 322.01 C 635.94 323.75 635.98 325.49 636.02 327.24 C 628.99 327.24 621.96 327.27 614.93 327.25 C 614.94 325.50 614.96 323.75 614.98 322.01 Z" />
<path fill="#e9d37a" d=" M 635.92 322.01 C 643.30 321.98 650.67 322.02 658.06 322.01 C 658.04 323.75 658.02 325.50 658.02 327.25 C 650.68 327.24 643.35 327.28 636.02 327.24 C 635.98 325.49 635.94 323.75 635.92 322.01 Z" />
<path fill="#efdc80" d=" M 658.06 322.01 C 666.35 321.99 674.65 322.00 682.95 322.01 C 682.96 323.75 682.98 325.49 683.02 327.24 C 674.68 327.25 666.35 327.26 658.02 327.25 C 658.02 325.50 658.04 323.75 658.06 322.01 Z" />
<path fill="#f5e385" d=" M 682.95 322.01 C 714.28 322.01 745.62 321.99 776.95 322.01 C 776.95 323.75 776.95 325.50 776.97 327.24 C 745.65 327.27 714.33 327.24 683.02 327.24 C 682.98 325.49 682.96 323.75 682.95 322.01 Z" />
<path fill="#f2d87c" d=" M 776.95 322.01 C 799.29 322.05 821.62 321.96 843.96 322.01 C 843.95 323.75 843.95 325.50 843.97 327.25 C 821.63 327.28 799.30 327.23 776.97 327.24 C 776.95 325.50 776.95 323.75 776.95 322.01 Z" />
<path fill="#eecf75" d=" M 843.96 322.01 C 864.31 322.03 884.66 321.98 905.02 322.00 C 905.02 323.75 905.02 325.49 905.05 327.25 C 884.69 327.28 864.33 327.23 843.97 327.25 C 843.95 325.50 843.95 323.75 843.96 322.01 Z" />
<path fill="#ebc76f" d=" M 905.02 322.00 C 921.33 322.02 937.64 321.98 953.95 322.01 C 953.98 323.75 954.01 325.50 954.06 327.25 C 937.72 327.27 921.39 327.24 905.05 327.25 C 905.02 325.49 905.02 323.75 905.02 322.00 Z" />
<path fill="#e8c069" d=" M 953.95 322.01 C 970.64 322.03 987.34 321.97 1004.03 322.01 C 1004.02 323.75 1004.02 325.49 1004.04 327.24 C 987.38 327.27 970.72 327.24 954.06 327.25 C 954.01 325.50 953.98 323.75 953.95 322.01 Z" />
<path fill="#e5b863" d=" M 1004.03 322.01 C 1029.27 322.04 1054.52 321.95 1079.77 322.02 C 1079.75 323.75 1079.74 325.49 1079.75 327.23 C 1054.51 327.29 1029.27 327.24 1004.04 327.24 C 1004.02 325.49 1004.02 323.75 1004.03 322.01 Z" />
<path fill="#3e2714" d=" M 339.00 330.48 C 341.02 330.48 343.05 330.50 345.08 330.50 C 345.19 331.94 345.30 333.38 345.41 334.82 C 346.66 335.07 347.90 335.32 349.16 335.57 C 345.77 335.77 342.38 335.74 339.00 335.79 C 339.00 334.02 338.99 332.24 339.00 330.48 Z" />
<path fill="#673e1d" d=" M 345.08 330.50 C 347.02 330.49 348.97 330.49 350.92 330.49 C 350.99 332.29 351.07 334.08 351.14 335.89 C 350.64 335.81 349.65 335.65 349.16 335.57 C 347.90 335.32 346.66 335.07 345.41 334.82 C 345.30 333.38 345.19 331.94 345.08 330.50 Z" />
<path fill="#895527" d=" M 350.92 330.49 C 353.65 330.49 356.37 330.50 359.10 330.50 C 359.12 332.24 359.15 333.99 359.18 335.74 C 356.49 335.72 353.81 335.75 351.14 335.89 C 351.07 334.08 350.99 332.29 350.92 330.49 Z" />
<path fill="#9b6833" d=" M 359.10 330.50 C 362.09 330.49 365.09 330.50 368.10 330.50 C 368.05 332.25 368.00 333.99 367.96 335.74 C 365.03 335.74 362.10 335.76 359.18 335.74 C 359.15 333.99 359.12 332.24 359.10 330.50 Z" />
<path fill="#ad7b3e" d=" M 368.10 330.50 C 370.43 330.50 372.76 330.50 375.10 330.50 C 375.09 332.24 375.08 333.99 375.08 335.75 C 372.70 335.74 370.33 335.75 367.96 335.74 C 368.00 333.99 368.05 332.25 368.10 330.50 Z" />
<path fill="#bd8b49" d=" M 375.10 330.50 C 377.46 330.49 379.81 330.50 382.17 330.50 C 382.12 332.25 382.08 334.01 382.04 335.77 C 379.71 335.75 377.39 335.75 375.08 335.75 C 375.08 333.99 375.09 332.24 375.10 330.50 Z" />
<path fill="#cf9e54" d=" M 382.17 330.50 C 384.90 330.49 387.63 330.50 390.37 330.50 C 390.16 331.92 389.97 333.34 389.77 334.76 C 387.19 335.10 384.61 335.43 382.04 335.77 C 382.08 334.01 382.12 332.25 382.17 330.50 Z" />
<path fill="#e0b160" d=" M 390.37 330.50 C 395.53 330.50 400.70 330.50 405.87 330.51 C 406.00 331.94 406.15 333.38 406.29 334.83 C 409.68 335.04 413.06 335.28 416.44 335.55 L 417.37 335.61 C 405.60 336.01 393.81 335.65 382.04 335.77 C 384.61 335.43 387.19 335.10 389.77 334.76 C 389.97 333.34 390.16 331.92 390.37 330.50 Z" />
<path fill="#cfa053" d=" M 405.87 330.51 C 409.61 330.51 413.36 330.48 417.11 330.50 C 416.88 332.18 416.66 333.86 416.44 335.55 C 413.06 335.28 409.68 335.04 406.29 334.83 C 406.15 333.38 406.00 331.94 405.87 330.51 Z" />
<path fill="#bd8d47" d=" M 417.11 330.50 C 420.64 330.51 424.17 330.48 427.70 330.50 C 427.89 331.93 428.08 333.37 428.28 334.81 C 431.25 335.01 434.22 335.20 437.19 335.34 L 436.60 335.63 C 430.21 336.06 423.77 335.74 417.37 335.61 L 416.44 335.55 C 416.66 333.86 416.88 332.18 417.11 330.50 Z" />
<path fill="#ad7c3b" d=" M 427.70 330.50 C 431.56 330.51 435.42 330.48 439.27 330.51 C 439.29 331.42 439.33 333.25 439.35 334.17 C 438.81 334.46 437.73 335.05 437.19 335.34 C 434.22 335.20 431.25 335.01 428.28 334.81 C 428.08 333.37 427.89 331.93 427.70 330.50 Z" />
<path fill="#94642b" d=" M 439.27 330.51 C 451.80 330.51 464.32 330.47 476.84 330.50 C 477.01 331.91 477.18 333.33 477.36 334.75 C 483.55 335.07 489.76 334.75 495.94 335.35 C 496.55 335.41 497.76 335.53 498.36 335.59 C 477.78 335.79 457.18 335.85 436.60 335.63 L 437.19 335.34 C 437.73 335.05 438.81 334.46 439.35 334.17 C 439.33 333.25 439.29 331.42 439.27 330.51 Z" />
<path fill="#9d7134" d=" M 476.84 330.50 C 483.26 330.47 489.68 330.53 496.10 330.50 C 496.04 332.11 495.99 333.73 495.94 335.35 C 489.76 334.75 483.55 335.07 477.36 334.75 C 477.18 333.33 477.01 331.91 476.84 330.50 Z" />
<path fill="#a9803e" d=" M 496.10 330.50 C 502.09 330.46 508.08 330.53 514.07 330.50 C 514.02 332.24 513.97 333.99 513.93 335.75 C 508.74 335.63 503.54 335.99 498.36 335.59 C 497.76 335.53 496.55 335.41 495.94 335.35 C 495.99 333.73 496.04 332.11 496.10 330.50 Z" />
<path fill="#b38d48" d=" M 514.07 330.50 C 520.39 330.46 526.71 330.53 533.04 330.50 C 533.02 332.24 533.00 333.99 532.99 335.74 C 526.64 335.70 520.28 335.80 513.93 335.75 C 513.97 333.99 514.02 332.24 514.07 330.50 Z" />
<path fill="#bc9a51" d=" M 533.04 330.50 C 538.68 330.47 544.32 330.52 549.96 330.50 C 550.00 332.24 550.05 333.99 550.10 335.75 C 544.39 335.71 538.69 335.79 532.99 335.74 C 533.00 333.99 533.02 332.24 533.04 330.50 Z" />
<path fill="#c5a559" d=" M 549.96 330.50 C 555.98 330.47 561.99 330.52 568.01 330.50 C 567.98 332.25 567.96 333.99 567.94 335.74 C 561.99 335.71 556.04 335.79 550.10 335.75 C 550.05 333.99 550.00 332.24 549.96 330.50 Z" />
<path fill="#ceb061" d=" M 568.01 330.50 C 574.02 330.46 580.02 330.52 586.03 330.50 C 586.05 332.24 586.08 333.99 586.12 335.74 C 580.06 335.71 574.00 335.79 567.94 335.74 C 567.96 333.99 567.98 332.25 568.01 330.50 Z" />
<path fill="#d6bb69" d=" M 586.03 330.50 C 593.04 330.46 600.04 330.53 607.05 330.50 C 607.05 332.24 607.06 333.99 607.07 335.74 C 600.08 335.70 593.10 335.80 586.12 335.74 C 586.08 333.99 586.05 332.24 586.03 330.50 Z" />
<path fill="#dfc771" d=" M 607.05 330.50 C 614.36 330.46 621.66 330.53 628.97 330.50 C 628.99 332.24 629.02 333.99 629.05 335.74 C 621.72 335.71 614.39 335.81 607.07 335.74 C 607.06 333.99 607.05 332.24 607.05 330.50 Z" />
<path fill="#e7d178" d=" M 628.97 330.50 C 637.12 330.45 645.27 330.54 653.42 330.50 C 653.23 331.91 653.05 333.32 652.88 334.75 C 649.83 335.06 646.78 335.40 643.73 335.64 C 638.84 335.92 633.94 335.73 629.05 335.74 C 629.02 333.99 628.99 332.24 628.97 330.50 Z" />
<path fill="#f5e183" d=" M 653.42 330.50 C 696.55 330.50 739.68 330.50 782.81 330.51 C 782.98 331.92 783.17 333.34 783.36 334.76 C 801.45 335.04 819.55 334.78 837.64 335.16 L 836.33 335.40 C 832.60 336.15 828.78 335.78 825.01 335.81 C 770.99 335.78 716.98 335.65 662.97 335.79 C 656.55 335.76 650.14 335.96 643.73 335.64 C 646.78 335.40 649.83 335.06 652.88 334.75 C 653.05 333.32 653.23 331.91 653.42 330.50 Z" />
<path fill="#f1d87c" d=" M 782.81 330.51 C 805.28 330.53 827.74 330.45 850.21 330.51 C 850.03 331.92 849.86 333.34 849.70 334.76 C 845.67 334.77 841.65 334.83 837.64 335.16 C 819.55 334.78 801.45 335.04 783.36 334.76 C 783.17 333.34 782.98 331.92 782.81 330.51 Z" />
<path fill="#edcd74" d=" M 850.21 330.51 C 873.06 330.54 895.90 330.45 918.75 330.51 C 918.94 331.91 919.14 333.32 919.35 334.73 C 931.13 335.12 942.92 334.61 954.70 335.13 L 953.32 335.39 C 949.93 336.08 946.46 335.79 943.05 335.80 C 918.02 335.78 893.00 335.75 867.97 335.74 C 857.43 335.55 846.86 336.09 836.33 335.40 L 837.64 335.16 C 841.65 334.83 845.67 334.77 849.70 334.76 C 849.86 333.34 850.03 331.92 850.21 330.51 Z" />
<path fill="#e9c36c" d=" M 918.75 330.51 C 942.59 330.54 966.43 330.45 990.28 330.51 C 990.08 331.91 989.89 333.33 989.71 334.74 C 978.04 335.09 966.35 334.56 954.70 335.13 C 942.92 334.61 931.13 335.12 919.35 334.73 C 919.14 333.32 918.94 331.91 918.75 330.51 Z" />
<path fill="#e5b963" d=" M 990.28 330.51 C 1020.05 330.47 1049.82 330.59 1079.59 330.42 C 1079.66 332.19 1079.72 333.97 1079.81 335.75 C 1044.54 335.76 1009.28 335.73 974.02 335.71 C 967.12 335.57 960.20 336.02 953.32 335.39 L 954.70 335.13 C 966.35 334.56 978.04 335.09 989.71 334.74 C 989.89 333.33 990.08 331.91 990.28 330.51 Z" />
<path fill="#80181b" d=" M 600.26 344.02 C 603.47 343.80 606.69 343.84 609.91 343.83 C 608.05 356.21 605.13 368.41 603.46 380.81 C 605.02 381.13 606.59 381.48 608.16 381.87 C 605.12 383.78 601.35 382.79 597.97 383.00 C 598.63 379.61 599.24 376.22 599.87 372.83 C 597.33 376.85 594.44 381.09 589.93 383.07 C 587.11 384.34 582.99 383.30 582.49 379.87 C 581.21 371.55 585.56 363.09 591.99 357.96 C 595.07 355.40 599.23 355.19 603.03 355.82 C 603.68 352.61 604.21 349.38 604.50 346.13 C 602.91 345.76 601.20 345.53 600.26 344.02 Z" />
<path fill="#80181b" d=" M 674.13 343.89 C 677.21 343.84 680.29 343.85 683.38 343.84 C 680.88 356.01 678.82 368.27 676.53 380.49 C 678.13 380.98 679.73 381.47 681.33 382.03 C 678.20 383.67 674.58 382.83 671.22 382.98 C 671.89 379.63 672.52 376.27 672.93 372.88 C 670.23 377.48 666.64 382.74 660.94 383.53 C 658.11 384.05 655.65 381.67 655.56 378.91 C 654.90 370.73 659.14 362.55 665.63 357.68 C 668.65 355.31 672.64 355.27 676.27 355.81 C 676.92 352.55 677.50 349.29 677.79 345.98 C 676.56 345.80 675.34 345.62 674.13 345.46 C 674.13 345.07 674.13 344.29 674.13 343.89 Z" />
<path fill="#80181b" d=" M 349.54 347.54 C 351.53 345.62 354.50 346.57 356.97 346.35 C 361.55 346.64 366.43 345.36 370.79 347.21 C 374.15 348.58 374.90 352.86 374.03 356.03 C 373.00 360.58 369.00 363.62 365.03 365.59 C 367.13 369.97 368.98 374.49 371.25 378.79 C 371.99 380.82 374.31 381.19 375.99 382.13 C 373.31 383.58 370.19 382.86 367.30 382.98 C 364.93 377.34 362.37 371.79 359.94 366.18 C 358.59 366.25 357.25 366.33 355.91 366.43 C 355.29 371.21 354.19 375.92 353.56 380.70 C 354.97 381.00 356.38 381.30 357.80 381.60 C 357.62 381.94 357.26 382.64 357.08 382.98 C 352.42 382.95 347.75 383.17 343.10 382.79 C 344.41 381.24 346.65 381.30 348.14 380.11 C 349.39 377.18 349.58 373.93 350.25 370.84 C 351.50 363.41 353.28 356.06 354.07 348.55 C 352.55 348.24 351.04 347.90 349.54 347.54 Z" />
<path fill="#821c1f" d=" M 449.21 346.35 C 450.75 346.34 452.30 346.33 453.86 346.32 C 453.54 348.04 453.23 349.76 452.90 351.48 C 451.35 351.49 449.81 351.51 448.27 351.52 C 448.57 349.80 448.88 348.07 449.21 346.35 Z" />
<path fill="#80181b" d=" M 629.54 347.78 C 628.58 345.78 631.98 346.64 633.00 346.34 C 639.80 346.36 646.61 346.37 653.42 346.36 C 652.47 348.87 653.49 353.70 649.48 353.28 C 649.66 351.80 649.85 350.33 650.05 348.85 C 646.25 348.36 642.41 348.48 638.59 348.49 C 637.70 353.26 636.74 358.02 636.03 362.83 C 638.67 362.83 641.32 362.99 643.96 362.73 C 645.48 361.96 646.07 360.00 647.66 359.23 C 646.83 362.20 648.23 367.28 644.53 368.45 C 644.53 367.65 644.52 366.04 644.51 365.24 C 641.51 364.97 638.51 364.96 635.51 365.03 C 634.73 370.21 633.10 375.30 633.23 380.58 C 637.04 380.81 640.91 381.08 644.70 380.44 C 645.90 379.45 645.88 377.56 646.53 376.20 C 647.19 376.19 648.50 376.17 649.15 376.16 C 648.73 378.43 648.30 380.71 647.88 382.98 C 639.39 382.92 630.89 383.18 622.40 382.85 C 623.57 381.18 625.68 381.02 627.45 380.41 C 629.82 369.89 631.85 359.25 633.31 348.56 C 632.37 348.36 630.48 347.98 629.54 347.78 Z" />
<path fill="#821c1f" d=" M 806.24 346.23 C 808.02 346.25 809.81 346.23 811.61 346.44 C 810.72 347.89 810.40 349.58 809.96 351.20 C 808.41 351.23 806.87 351.26 805.34 351.29 C 805.62 349.60 805.92 347.91 806.24 346.23 Z" />
<path fill="#811a1d" d=" M 892.46 347.65 C 893.35 345.84 895.40 346.31 897.06 346.24 C 901.43 346.36 905.80 345.94 910.17 346.17 C 912.78 346.32 915.67 347.67 916.48 350.36 C 917.94 355.50 915.87 361.36 911.55 364.49 C 907.87 367.42 902.99 367.84 898.47 367.69 C 897.63 372.01 896.61 376.32 896.32 380.72 C 898.00 381.01 899.68 381.34 901.37 381.70 C 900.46 382.54 899.33 383.06 898.07 382.91 C 893.95 382.93 889.81 383.08 885.72 382.57 C 887.18 381.19 889.43 381.18 890.90 379.90 C 892.16 376.74 892.35 373.28 893.08 369.99 C 894.29 362.77 896.11 355.64 896.75 348.33 C 895.68 348.16 893.53 347.82 892.46 347.65 Z" />
<path fill="#ffffff" d=" M 901.91 348.29 C 905.28 348.10 910.17 347.96 911.34 352.02 C 912.15 356.60 910.15 361.79 905.99 364.10 C 903.89 365.38 901.36 365.40 899.01 365.68 C 899.61 359.83 901.11 354.12 901.91 348.29 Z" />
<path fill="#ffffff" d=" M 356.44 364.28 C 357.49 358.98 358.30 353.63 359.50 348.36 C 362.55 348.62 366.75 348.08 368.44 351.31 C 370.06 355.34 368.10 360.29 364.44 362.49 C 362.08 364.05 359.13 363.95 356.44 364.28 Z" />
<path fill="#80181b" d=" M 488.45 351.17 C 489.97 350.74 491.48 350.31 493.00 349.88 C 492.76 351.95 492.50 354.03 492.23 356.11 C 494.43 356.10 496.64 356.12 498.84 356.15 C 498.69 356.68 498.39 357.73 498.24 358.26 C 496.05 358.25 493.88 358.25 491.70 358.24 C 490.70 364.21 489.43 370.14 488.43 376.11 C 488.35 377.84 487.64 380.41 489.90 381.03 C 490.97 380.97 493.12 380.86 494.20 380.80 C 492.42 386.05 483.11 383.49 483.73 378.02 C 484.19 371.35 486.04 364.86 487.05 358.26 C 486.05 358.23 484.05 358.17 483.05 358.15 C 483.55 355.97 485.77 356.19 487.46 355.65 C 487.89 354.18 488.14 352.66 488.45 351.17 Z" />
<path fill="#80181b" d=" M 785.03 351.09 C 786.65 350.62 788.26 350.15 789.89 349.69 C 789.50 351.79 789.12 353.89 788.73 356.00 C 791.05 356.00 793.37 356.01 795.70 356.10 C 794.83 359.48 790.86 357.77 788.35 358.15 C 787.33 363.72 786.24 369.29 785.24 374.87 C 784.99 376.87 784.22 379.41 786.11 380.89 C 787.66 380.91 789.22 380.86 790.79 380.75 C 790.06 383.81 786.47 383.74 784.03 383.15 C 780.94 382.33 779.79 378.74 780.44 375.89 C 781.36 369.96 782.65 364.09 783.69 358.18 C 782.32 358.15 780.96 358.12 779.61 358.08 C 779.97 355.71 782.30 356.04 784.11 355.81 C 784.40 354.23 784.72 352.66 785.03 351.09 Z" />
<path fill="#80181b" d=" M 983.30 351.03 C 984.92 350.62 986.54 350.22 988.19 349.83 C 987.78 351.85 987.40 353.89 987.03 355.92 C 989.45 355.98 991.89 356.05 994.31 356.34 C 992.65 359.07 989.19 357.94 986.56 358.20 C 985.62 363.77 984.54 369.30 983.50 374.85 C 983.30 376.76 982.47 379.22 984.14 380.73 C 985.77 380.96 987.42 380.96 989.09 380.75 C 987.22 385.83 978.18 383.42 978.58 378.02 C 979.13 371.33 980.89 364.80 981.96 358.18 C 980.96 358.16 978.95 358.10 977.95 358.08 C 978.35 355.72 980.62 356.01 982.45 355.78 C 982.71 354.19 982.99 352.61 983.30 351.03 Z" />
<path fill="#7f171a" d=" M 828.46 355.60 C 832.16 354.71 837.01 355.81 838.39 359.79 C 841.08 368.17 836.84 378.15 829.08 382.25 C 825.94 383.70 821.91 384.06 818.84 382.29 C 815.29 379.84 815.18 374.96 815.69 371.10 C 816.72 364.25 821.45 357.30 828.46 355.60 Z" />
<path fill="#80181b" d=" M 960.33 366.19 C 963.57 361.24 967.51 355.37 974.08 355.10 C 973.61 357.06 973.02 359.00 972.39 360.92 C 966.43 359.92 962.70 365.63 959.95 369.96 C 958.47 374.05 958.40 378.50 957.26 382.68 C 955.66 382.94 954.04 382.92 952.45 383.03 C 953.85 374.78 955.71 366.61 956.80 358.32 C 955.24 357.80 953.26 357.87 952.44 356.19 C 955.71 355.94 959.00 356.00 962.28 356.03 C 961.62 359.41 961.03 362.81 960.33 366.19 Z" />
<path fill="#80181b" d=" M 383.28 368.06 C 385.23 362.29 389.74 356.69 396.02 355.59 C 398.50 355.02 401.64 355.92 402.66 358.46 C 403.92 362.27 402.09 366.59 398.88 368.84 C 395.46 371.46 391.08 372.08 386.94 372.70 C 387.35 375.30 387.31 378.80 390.13 380.11 C 394.83 381.90 399.38 378.69 403.21 376.29 C 402.48 380.06 398.47 381.24 395.41 382.58 C 392.20 383.72 388.11 384.37 385.32 381.91 C 381.54 378.43 381.93 372.57 383.28 368.06 Z" />
<path fill="#80181b" d=" M 412.49 366.53 C 414.84 361.75 418.61 357.07 424.01 355.73 C 427.68 355.17 431.36 356.16 435.04 356.24 C 433.68 364.33 432.24 372.41 430.47 380.43 C 429.50 384.52 427.95 389.06 424.06 391.27 C 419.64 394.02 414.05 393.60 409.31 391.93 C 408.83 389.53 408.37 387.12 407.89 384.73 C 411.54 387.86 415.82 391.42 420.98 390.80 C 423.04 390.51 423.95 388.36 424.52 386.61 C 426.02 381.50 426.66 376.19 427.72 370.99 C 425.02 375.31 421.84 379.94 416.86 381.78 C 414.21 382.82 411.00 381.37 410.30 378.56 C 409.32 374.47 410.75 370.22 412.49 366.53 Z" />
<path fill="#80181b" d=" M 442.65 356.14 C 445.82 356.07 449.00 356.10 452.18 356.16 C 450.46 364.29 448.86 372.45 447.72 380.69 C 449.26 381.05 450.79 381.46 452.32 381.90 C 449.41 383.90 445.69 382.70 442.42 382.99 C 443.75 374.73 445.81 366.59 446.67 358.26 C 445.18 357.80 442.65 358.37 442.65 356.14 Z" />
<path fill="#80181b" d=" M 466.15 356.12 C 469.74 354.67 473.57 355.86 477.05 357.02 C 476.22 359.42 477.16 363.72 473.63 363.87 C 473.29 361.97 474.62 359.39 472.89 357.95 C 470.58 356.54 466.77 357.05 466.01 360.00 C 464.81 363.56 468.37 366.13 470.41 368.50 C 473.46 371.37 475.86 376.27 473.17 380.17 C 469.31 385.01 462.00 383.99 456.98 381.69 C 456.62 379.62 457.52 377.45 457.77 375.37 C 458.53 375.36 459.29 375.36 460.07 375.36 C 459.93 377.68 459.64 380.63 462.48 381.35 C 465.96 383.41 470.98 380.13 469.59 376.06 C 467.73 371.72 463.08 369.17 461.55 364.61 C 460.31 361.12 462.73 357.18 466.15 356.12 Z" />
<path fill="#80181b" d=" M 510.64 357.68 C 513.47 355.80 517.44 354.49 520.61 356.30 C 524.12 358.63 523.15 363.80 520.88 366.67 C 517.59 370.91 512.00 371.99 506.99 372.66 C 507.17 375.30 507.04 378.81 509.91 380.11 C 514.63 381.93 519.18 378.58 523.10 376.34 C 522.08 379.89 518.46 381.21 515.39 382.50 C 512.32 383.60 508.58 384.29 505.69 382.39 C 503.04 380.50 502.06 377.07 502.16 373.96 C 502.11 367.57 505.49 361.38 510.64 357.68 Z" />
<path fill="#80181b" d=" M 531.08 356.13 C 534.17 356.10 537.27 356.10 540.36 356.15 C 539.64 359.51 539.02 362.88 538.35 366.25 C 541.69 361.34 545.58 355.29 552.28 355.26 C 551.65 357.25 550.97 359.22 550.29 361.19 C 545.78 359.99 542.47 363.78 540.04 366.97 C 536.15 371.38 536.75 377.66 535.26 383.02 C 533.66 383.00 532.06 382.99 530.47 382.99 C 531.87 374.71 533.94 366.51 534.70 358.14 C 533.78 358.03 531.94 357.82 531.02 357.71 C 531.04 357.32 531.07 356.53 531.08 356.13 Z" />
<path fill="#80181b" d=" M 565.53 356.58 C 568.67 354.99 573.65 354.65 575.40 358.39 C 576.83 362.41 574.64 366.98 571.15 369.17 C 567.86 371.51 563.78 372.10 559.88 372.62 C 560.08 375.32 560.04 379.00 563.08 380.18 C 567.76 381.84 572.16 378.53 576.07 376.38 C 574.43 380.92 569.16 382.37 564.94 383.41 C 560.93 384.40 556.53 382.05 555.61 377.93 C 553.57 369.71 558.05 360.42 565.53 356.58 Z" />
<path fill="#80181b" d=" M 688.31 356.19 C 691.52 355.95 694.73 356.00 697.95 356.02 C 696.78 363.73 694.55 371.33 694.15 379.13 C 696.40 380.04 698.10 377.95 699.50 376.50 C 701.70 373.90 703.81 371.16 705.38 368.13 C 706.62 364.19 706.98 360.04 707.85 356.01 C 709.39 356.01 710.94 356.01 712.49 356.02 C 711.17 364.30 708.97 372.45 708.34 380.83 C 709.77 380.97 711.22 381.13 712.68 381.30 C 712.33 381.85 711.98 382.40 711.63 382.94 C 708.68 382.89 705.74 382.89 702.80 382.90 C 703.49 379.51 704.09 376.11 704.75 372.72 C 702.07 376.94 699.37 382.30 694.04 383.41 C 691.27 384.18 688.89 381.73 689.33 379.02 C 689.78 372.02 692.08 365.28 692.56 358.27 C 691.01 357.82 689.17 357.79 688.31 356.19 Z" />
<path fill="#80181b" d=" M 721.57 368.08 C 723.45 362.33 727.88 356.80 734.07 355.57 C 736.73 354.92 739.40 355.84 741.99 356.46 C 741.67 358.87 741.27 361.27 740.68 363.62 C 740.07 363.71 738.85 363.88 738.23 363.96 C 738.21 362.30 738.27 360.65 738.09 359.01 C 736.16 356.82 732.26 357.23 730.32 359.24 C 727.03 362.60 725.97 367.49 725.75 372.04 C 725.68 374.72 725.88 378.01 728.33 379.69 C 731.78 381.88 735.55 379.03 738.89 378.04 C 738.84 381.07 735.78 381.92 733.50 382.69 C 730.01 383.66 725.42 384.24 722.82 381.12 C 719.94 377.46 720.45 372.30 721.57 368.08 Z" />
<path fill="#80181b" d=" M 758.40 356.49 C 762.64 354.30 767.40 356.23 771.89 356.15 C 770.52 364.33 768.76 372.44 767.59 380.65 C 769.12 380.97 770.65 381.32 772.17 381.71 C 769.39 383.94 765.48 382.53 762.22 382.90 C 762.88 379.51 763.50 376.11 763.90 372.68 C 761.88 376.45 759.15 379.93 755.53 382.28 C 753.26 383.70 749.76 384.15 747.80 382.02 C 745.58 378.53 746.53 374.11 747.49 370.36 C 749.41 364.74 752.98 359.26 758.40 356.49 Z" />
<path fill="#80181b" d=" M 800.00 356.05 C 802.99 356.00 805.99 356.00 808.99 356.05 C 807.98 364.32 805.56 372.38 805.01 380.72 C 806.44 381.00 807.87 381.29 809.30 381.62 C 806.75 384.15 802.64 382.41 799.44 382.90 C 800.88 374.60 802.86 366.38 803.73 358.00 C 802.79 357.89 800.93 357.68 800.00 357.57 C 800.00 357.19 800.00 356.43 800.00 356.05 Z" />
<path fill="#80181b" d=" M 845.63 357.09 C 848.59 355.12 852.33 356.29 855.66 356.00 C 855.00 359.28 854.40 362.57 854.04 365.90 C 856.71 361.62 859.99 356.99 865.08 355.52 C 867.46 354.70 870.76 356.18 870.52 359.04 C 870.34 366.33 867.76 373.34 867.29 380.62 C 868.82 381.00 870.75 381.03 871.52 382.73 C 868.31 382.95 865.11 382.90 861.92 382.91 C 863.11 375.55 864.88 368.28 865.82 360.88 C 866.17 359.08 863.74 358.79 862.71 359.72 C 858.66 362.24 855.86 366.36 853.33 370.32 C 851.87 374.36 851.60 378.72 850.67 382.90 C 849.08 382.90 847.49 382.90 845.92 382.91 C 847.26 374.66 849.32 366.52 850.19 358.20 C 848.65 357.86 847.13 357.49 845.63 357.09 Z" />
<path fill="#80181b" d=" M 930.15 357.15 C 934.57 354.08 939.99 356.14 944.89 356.15 C 943.46 364.32 941.72 372.44 940.60 380.66 C 942.12 380.97 943.64 381.31 945.16 381.69 C 942.36 383.92 938.48 382.55 935.20 382.92 C 935.88 379.48 936.49 376.03 937.01 372.57 C 934.69 376.58 931.81 380.54 927.63 382.75 C 924.87 384.21 920.41 383.55 919.83 379.98 C 918.30 371.28 922.98 362.05 930.15 357.15 Z" />
<path fill="#80181b" d=" M 997.58 357.26 C 1000.20 354.81 1004.27 356.46 1007.52 356.01 C 1006.92 359.23 1006.32 362.44 1005.71 365.66 C 1008.88 361.40 1012.28 356.17 1017.97 355.36 C 1020.68 354.79 1022.83 357.45 1022.45 360.01 C 1021.86 366.94 1019.60 373.64 1019.20 380.60 C 1020.70 381.03 1022.71 380.97 1023.40 382.73 C 1020.16 382.95 1016.92 382.90 1013.69 382.91 C 1014.99 375.62 1016.59 368.37 1017.65 361.04 C 1018.18 358.80 1015.19 358.97 1014.06 359.96 C 1010.30 362.83 1007.27 366.67 1004.96 370.78 C 1003.77 374.72 1003.39 378.87 1002.54 382.89 C 1000.91 382.89 999.29 382.90 997.70 382.91 C 999.12 374.64 1001.06 366.46 1002.01 358.12 C 1000.52 357.84 999.04 357.56 997.58 357.26 Z" />
<path fill="#80181b" d=" M 1039.91 356.66 C 1042.73 355.28 1046.63 354.46 1049.19 356.81 C 1052.01 359.96 1050.47 365.00 1047.68 367.65 C 1044.23 371.08 1039.22 371.93 1034.60 372.50 C 1034.92 375.25 1034.93 379.11 1038.14 380.15 C 1042.73 381.55 1046.94 378.42 1050.77 376.32 C 1049.82 379.85 1046.11 381.11 1043.11 382.41 C 1040.08 383.51 1036.40 384.11 1033.51 382.33 C 1030.86 380.50 1029.88 377.07 1029.96 374.00 C 1029.79 366.98 1033.86 360.13 1039.91 356.66 Z" />
<path fill="#80181b" d=" M 1058.47 356.14 C 1061.70 355.95 1064.94 356.01 1068.18 356.03 C 1067.49 359.37 1066.91 362.73 1066.30 366.09 C 1069.57 361.15 1073.45 355.29 1080.07 355.08 C 1079.50 357.03 1078.91 358.98 1078.27 360.91 C 1073.71 359.98 1070.35 363.59 1067.89 366.86 C 1064.01 371.26 1064.61 377.54 1063.17 382.90 C 1061.57 382.89 1059.99 382.89 1058.42 382.90 C 1059.77 374.68 1061.76 366.55 1062.67 358.27 C 1061.15 357.74 1059.15 357.91 1058.47 356.14 Z" />
<path fill="#ffffff" d=" M 391.66 359.67 C 393.06 358.09 395.66 357.31 397.50 358.59 C 399.53 361.49 398.22 365.62 395.68 367.77 C 393.37 369.87 390.18 370.47 387.19 370.94 C 387.91 366.96 388.71 362.66 391.66 359.67 Z" />
<path fill="#ffffff" d=" M 421.05 359.09 C 423.67 357.13 427.02 358.27 429.83 359.10 C 429.70 366.10 425.57 372.08 420.57 376.65 C 419.24 377.62 416.89 379.35 415.64 377.41 C 414.51 375.14 415.21 372.47 415.47 370.07 C 416.32 366.06 417.71 361.71 421.05 359.09 Z" />
<path fill="#ffffff" d=" M 512.24 358.95 C 514.21 357.22 518.20 357.72 518.21 360.87 C 519.03 367.19 512.33 370.58 506.98 370.98 C 507.75 366.68 508.62 361.84 512.24 358.95 Z" />
<path fill="#ffffff" d=" M 564.59 359.51 C 566.04 357.97 568.53 357.43 570.37 358.63 C 572.26 361.77 570.86 365.99 568.05 368.10 C 565.76 369.96 562.76 370.46 559.94 370.96 C 560.68 366.91 561.47 362.47 564.59 359.51 Z" />
<path fill="#ffffff" d=" M 592.74 359.77 C 595.24 356.89 599.35 358.11 602.40 359.32 C 601.48 363.25 601.53 367.65 598.96 370.99 C 596.53 374.41 594.04 378.42 589.85 379.78 C 587.37 379.94 587.21 376.82 587.42 375.04 C 588.05 369.70 589.21 364.00 592.74 359.77 Z" />
<path fill="#ffffff" d=" M 665.90 359.84 C 668.38 356.92 672.38 358.22 675.53 359.02 C 674.88 363.13 674.75 367.62 672.15 371.09 C 669.82 374.33 667.48 378.12 663.59 379.61 C 661.45 380.53 660.33 377.75 660.63 376.05 C 661.02 370.39 662.34 364.39 665.90 359.84 Z" />
<path fill="#ffffff" d=" M 756.82 359.82 C 759.30 356.87 763.41 358.00 766.59 358.93 C 765.82 363.04 765.72 367.56 763.03 371.00 C 760.57 374.31 758.13 378.36 753.91 379.56 C 751.02 379.57 751.65 376.01 751.71 374.10 C 752.42 369.12 753.47 363.76 756.82 359.82 Z" />
<path fill="#ffffff" d=" M 827.29 358.18 C 829.42 356.58 832.91 357.66 833.45 360.38 C 834.73 365.36 833.72 370.78 831.58 375.39 C 830.14 378.28 827.66 381.66 824.01 381.23 C 821.06 380.30 820.57 376.67 820.65 374.03 C 820.99 368.31 822.45 361.81 827.29 358.18 Z" />
<path fill="#ffffff" d=" M 932.07 358.22 C 934.41 357.40 936.99 358.06 939.22 358.98 C 939.44 363.82 937.99 368.98 934.79 372.77 C 932.48 375.53 930.09 379.46 926.09 379.48 C 923.64 378.02 924.83 374.40 924.96 372.04 C 926.06 367.06 927.15 360.85 932.07 358.22 Z" />
<path fill="#ffffff" d=" M 1034.90 370.86 C 1035.51 365.76 1037.07 358.72 1043.01 357.63 C 1046.40 357.84 1046.52 362.21 1045.47 364.60 C 1043.76 368.81 1039.00 370.23 1034.90 370.86 Z" />
</svg>
