<?xml version="1.0" encoding="UTF-8" ?>
<!DOCTYPE svg PUBLIC "-//W3C//DTD SVG 1.1//EN" "http://www.w3.org/Graphics/SVG/1.1/DTD/svg11.dtd">
<svg width="900pt" height="900pt" viewBox="0 0 900 900" version="1.1" xmlns="http://www.w3.org/2000/svg">
<path fill="#ffffff" d=" M 0.00 0.00 L 900.00 0.00 L 900.00 900.00 L 0.00 900.00 L 0.00 0.00 Z" />
<path fill="#f6e385" d=" M 424.42 35.93 C 457.64 33.88 491.13 35.71 523.90 41.60 C 517.74 42.66 514.23 48.40 510.47 52.80 C 482.21 48.58 453.51 47.23 424.99 49.12 C 425.01 44.72 424.84 40.31 424.42 35.93 Z" />
<path fill="#efdb7f" d=" M 382.15 40.65 C 396.16 38.47 410.26 36.78 424.42 35.93 C 424.84 40.31 425.01 44.72 424.99 49.12 C 412.77 49.84 400.61 51.28 388.52 53.11 C 386.97 48.74 385.58 43.97 382.15 40.65 Z" />
<path fill="#e8d279" d=" M 362.01 44.66 C 368.67 43.06 375.44 41.98 382.15 40.65 C 385.58 43.97 386.97 48.74 388.52 53.11 C 382.11 54.10 375.74 55.31 369.38 56.59 C 369.09 52.74 368.50 48.85 366.55 45.45 C 365.03 45.18 363.52 44.89 362.01 44.66 Z" />
<path fill="#f3dd80" d=" M 510.47 52.80 C 514.23 48.40 517.74 42.66 523.90 41.60 C 534.30 43.46 544.62 45.75 554.85 48.39 C 552.73 50.07 550.34 51.57 548.83 53.88 C 547.94 55.86 547.97 58.11 547.64 60.23 C 535.37 57.20 522.97 54.67 510.47 52.80 Z" />
<path fill="#e2ca73" d=" M 344.69 48.78 C 350.44 47.31 356.18 45.78 362.01 44.66 C 363.52 44.89 365.03 45.18 366.55 45.45 C 368.50 48.85 369.09 52.74 369.38 56.59 C 362.63 57.95 355.95 59.58 349.28 61.30 C 349.24 57.72 349.03 54.14 348.62 50.59 C 347.31 49.99 346.00 49.39 344.69 48.78 Z" />
<path fill="#ffffff" d=" M 424.99 49.12 C 453.51 47.23 482.21 48.58 510.47 52.80 C 522.97 54.67 535.37 57.20 547.64 60.23 C 564.87 64.53 581.79 70.03 598.29 76.60 C 611.34 81.80 624.10 87.71 636.52 94.27 C 663.51 108.47 688.78 125.89 711.82 145.85 C 727.56 159.43 742.14 174.32 755.56 190.19 C 768.53 205.54 780.33 221.88 790.83 239.02 C 831.61 305.13 852.10 383.46 849.25 461.07 C 847.19 525.19 829.22 588.70 797.43 644.41 C 781.02 673.20 761.06 699.98 738.05 723.83 C 710.59 752.21 679.10 776.75 644.56 795.92 C 629.21 804.46 613.31 812.03 596.98 818.48 C 571.25 828.57 544.51 836.14 517.24 840.69 C 488.43 845.49 459.10 847.29 429.93 845.74 C 417.24 845.12 404.59 843.78 392.01 841.97 C 384.34 840.86 376.71 839.47 369.11 837.93 C 361.38 836.34 353.71 834.46 346.09 832.43 C 337.64 830.19 329.33 827.50 321.04 824.73 C 310.56 821.26 300.35 817.04 290.19 812.71 C 277.25 807.08 264.70 800.58 252.42 793.64 C 238.15 785.54 224.53 776.36 211.35 766.60 C 190.71 751.17 171.68 733.60 154.34 714.54 C 151.63 711.47 148.88 708.43 146.25 705.29 C 142.99 701.36 139.68 697.46 136.55 693.43 C 134.42 690.64 132.26 687.87 130.17 685.06 C 127.58 681.52 125.02 677.98 122.52 674.39 C 117.79 667.48 113.14 660.52 108.85 653.34 C 105.94 648.45 103.09 643.54 100.32 638.57 C 96.38 631.44 92.79 624.12 89.25 616.78 C 86.93 611.75 84.70 606.68 82.49 601.61 C 79.72 594.97 77.21 588.23 74.66 581.51 C 71.78 573.27 69.17 564.94 66.68 556.58 C 64.08 547.27 61.84 537.87 59.77 528.44 C 57.15 515.51 55.21 502.46 53.66 489.36 C 50.78 461.22 50.82 432.80 53.72 404.66 C 55.06 393.55 56.64 382.48 58.70 371.49 C 60.20 364.11 61.84 356.75 63.60 349.43 C 65.21 343.43 66.85 337.44 68.59 331.49 C 70.19 326.43 71.79 321.38 73.52 316.37 C 76.65 307.66 79.89 299.00 83.54 290.50 C 85.46 286.11 87.44 281.74 89.43 277.38 C 91.41 273.38 93.26 269.31 95.35 265.37 C 96.97 262.31 98.62 259.27 100.21 256.20 C 102.95 251.25 105.79 246.36 108.68 241.50 C 110.91 237.77 113.26 234.10 115.61 230.44 C 118.59 225.81 121.74 221.29 124.88 216.76 C 128.70 211.31 132.80 206.07 136.84 200.78 C 141.88 194.25 147.32 188.04 152.73 181.81 C 167.66 165.09 184.00 149.62 201.49 135.60 C 209.59 129.25 217.77 122.99 226.33 117.27 C 233.15 112.72 239.99 108.21 247.07 104.08 C 252.95 100.59 258.89 97.19 264.97 94.05 C 270.82 90.94 276.77 88.00 282.78 85.22 C 288.77 82.45 294.81 79.81 300.92 77.32 C 306.23 75.23 311.55 73.14 316.93 71.25 C 321.93 69.48 326.95 67.78 332.03 66.24 C 337.75 64.49 343.49 62.79 349.28 61.30 C 355.95 59.58 362.63 57.95 369.38 56.59 C 375.74 55.31 382.11 54.10 388.52 53.11 C 400.61 51.28 412.77 49.84 424.99 49.12 Z" />
<path fill="#dcc36e" d=" M 328.00 53.65 C 333.49 51.79 339.11 50.33 344.69 48.78 C 346.00 49.39 347.31 49.99 348.62 50.59 C 349.03 54.14 349.24 57.72 349.28 61.30 C 343.49 62.79 337.75 64.49 332.03 66.24 C 332.19 62.26 332.11 58.27 331.76 54.30 C 330.50 54.06 329.25 53.85 328.00 53.65 Z" />
<path fill="#f1d77b" d=" M 548.83 53.88 C 550.34 51.57 552.73 50.07 554.85 48.39 C 573.20 53.17 591.17 59.29 608.72 66.44 L 608.58 66.56 C 604.73 69.46 601.39 72.93 598.29 76.60 C 581.79 70.03 564.87 64.53 547.64 60.23 C 547.97 58.11 547.94 55.86 548.83 53.88 Z" />
<path fill="#d6ba68" d=" M 313.34 58.43 C 318.23 56.84 323.05 55.03 328.00 53.65 C 329.25 53.85 330.50 54.06 331.76 54.30 C 332.11 58.27 332.19 62.26 332.03 66.24 C 326.95 67.78 321.93 69.48 316.93 71.25 C 316.06 66.89 315.11 62.53 313.34 58.43 Z" />
<path fill="#f6e485" d=" M 430.05 55.26 C 455.40 53.97 480.87 55.01 506.00 58.50 C 502.92 61.82 501.49 66.12 501.46 70.62 C 476.74 67.40 451.72 66.43 426.84 68.09 C 426.55 63.56 427.08 58.90 430.05 55.26 Z" />
<path fill="#f0dd81" d=" M 393.47 59.06 C 405.55 56.90 417.83 56.10 430.05 55.26 C 427.08 58.90 426.55 63.56 426.84 68.09 C 418.90 68.56 410.98 69.39 403.08 70.33 C 403.11 67.05 403.02 63.76 402.79 60.49 C 399.68 60.03 396.59 59.46 393.47 59.06 Z" />
<path fill="#cfb262" d=" M 291.24 67.07 C 298.43 63.76 305.92 61.18 313.34 58.43 C 315.11 62.53 316.06 66.89 316.93 71.25 C 311.55 73.14 306.23 75.23 300.92 77.32 C 300.42 74.38 299.94 71.43 299.48 68.49 C 296.74 67.94 294.01 67.37 291.24 67.07 Z" />
<path fill="#ead67b" d=" M 373.81 62.36 C 380.33 61.08 386.86 59.70 393.47 59.06 C 396.59 59.46 399.68 60.03 402.79 60.49 C 403.02 63.76 403.11 67.05 403.08 70.33 C 395.47 71.28 387.89 72.52 380.35 73.93 C 381.05 70.44 381.29 66.88 380.85 63.34 C 378.51 62.96 376.17 62.57 373.81 62.36 Z" />
<path fill="#f4dd80" d=" M 506.00 58.50 C 521.61 60.73 537.11 63.77 552.34 67.87 C 549.05 71.36 545.75 74.82 542.56 78.38 C 529.00 75.10 515.29 72.43 501.46 70.62 C 501.49 66.12 502.92 61.82 506.00 58.50 Z" />
<path fill="#e4cd76" d=" M 354.62 66.68 C 360.97 65.03 367.37 63.56 373.81 62.36 C 376.17 62.57 378.51 62.96 380.85 63.34 C 381.29 66.88 381.05 70.44 380.35 73.93 C 373.92 75.12 367.52 76.52 361.17 78.08 C 361.11 75.11 360.98 72.14 360.80 69.17 C 358.77 68.27 356.73 67.38 354.62 66.68 Z" />
<path fill="#c8a95b" d=" M 271.90 75.72 C 278.23 72.60 284.65 69.61 291.24 67.07 C 294.01 67.37 296.74 67.94 299.48 68.49 C 299.94 71.43 300.42 74.38 300.92 77.32 C 294.81 79.81 288.77 82.45 282.78 85.22 C 282.37 82.20 281.93 79.19 281.48 76.19 C 278.29 75.85 275.10 75.55 271.90 75.72 Z" />
<path fill="#dec570" d=" M 337.42 71.43 C 343.11 69.72 348.83 68.06 354.62 66.68 C 356.73 67.38 358.77 68.27 360.80 69.17 C 360.98 72.14 361.11 75.11 361.17 78.08 C 355.14 79.54 349.14 81.15 343.18 82.91 C 342.86 79.77 342.35 76.65 341.60 73.57 C 340.20 72.86 338.81 72.15 337.42 71.43 Z" />
<path fill="#ffffff" d=" M 426.84 68.09 C 451.72 66.43 476.74 67.40 501.46 70.62 C 515.29 72.43 529.00 75.10 542.56 78.38 C 558.79 82.41 574.75 87.52 590.32 93.63 C 602.36 98.35 614.11 103.76 625.61 109.67 C 645.27 119.82 663.98 131.77 681.59 145.18 C 706.13 163.89 728.32 185.66 747.67 209.71 C 792.49 265.34 821.04 333.90 828.79 404.93 C 836.25 471.31 825.97 539.65 798.84 600.73 C 780.86 641.36 755.74 678.84 724.86 710.80 C 696.95 739.63 664.65 764.27 629.15 783.03 C 614.56 790.80 599.44 797.56 583.98 803.39 C 568.06 809.24 551.79 814.19 535.24 817.90 C 521.95 820.88 508.51 823.19 494.98 824.74 C 473.77 827.15 452.37 827.90 431.06 826.73 C 423.67 826.35 416.30 825.71 408.95 824.93 C 401.94 824.17 394.97 823.15 388.02 822.01 C 381.04 820.88 374.12 819.42 367.22 817.93 C 359.40 816.18 351.67 814.10 343.98 811.89 C 335.82 809.54 327.79 806.76 319.81 803.90 C 309.97 800.29 300.33 796.20 290.82 791.82 C 279.70 786.66 268.89 780.85 258.29 774.68 C 245.89 767.44 234.03 759.30 222.52 750.73 C 203.04 736.08 185.06 719.45 168.72 701.38 C 165.41 697.62 162.07 693.90 158.90 690.04 C 156.55 687.17 154.22 684.30 151.94 681.38 C 148.52 676.97 145.13 672.53 141.88 667.99 C 139.43 664.45 136.93 660.93 134.54 657.35 C 133.25 655.37 131.98 653.38 130.71 651.40 C 124.05 641.15 118.10 630.46 112.44 619.63 C 110.27 615.37 108.25 611.04 106.20 606.73 C 104.23 602.39 102.29 598.03 100.41 593.65 C 98.39 588.66 96.42 583.66 94.51 578.63 C 92.49 572.97 90.53 567.29 88.66 561.58 C 86.47 554.33 84.41 547.04 82.51 539.71 C 80.69 532.36 79.15 524.95 77.64 517.54 C 74.72 501.64 72.87 485.58 71.76 469.47 C 70.62 447.17 71.22 424.79 73.72 402.60 C 75.33 390.52 77.20 378.47 79.75 366.55 C 81.55 358.80 83.42 351.06 85.56 343.39 C 87.42 337.02 89.43 330.69 91.51 324.39 C 93.74 318.04 96.10 311.73 98.54 305.45 C 100.80 300.10 103.05 294.75 105.42 289.45 C 107.31 285.39 109.32 281.39 111.27 277.37 C 113.15 273.62 115.10 269.92 117.05 266.21 C 119.79 261.24 122.60 256.31 125.53 251.45 C 127.89 247.49 130.40 243.63 132.89 239.75 C 135.74 235.32 138.80 231.03 141.80 226.69 C 145.19 221.86 148.82 217.20 152.43 212.53 C 157.21 206.33 162.36 200.45 167.50 194.57 C 181.79 178.47 197.53 163.67 214.30 150.20 C 221.81 144.34 229.39 138.55 237.29 133.24 C 244.10 128.66 250.97 124.16 258.07 120.03 C 264.01 116.54 270.02 113.15 276.15 109.99 C 281.50 107.18 286.93 104.52 292.43 102.02 C 298.32 99.33 304.24 96.70 310.26 94.33 C 315.51 92.28 320.77 90.24 326.10 88.42 C 331.75 86.44 337.44 84.60 343.18 82.91 C 349.14 81.15 355.14 79.54 361.17 78.08 C 367.52 76.52 373.92 75.12 380.35 73.93 C 387.89 72.52 395.47 71.28 403.08 70.33 C 410.98 69.39 418.90 68.56 426.84 68.09 Z" />
<path fill="#efd076" d=" M 598.29 76.60 C 601.39 72.93 604.73 69.46 608.58 66.56 C 621.62 71.76 634.24 78.00 646.63 84.60 C 642.87 87.39 639.59 90.75 636.52 94.27 C 624.10 87.71 611.34 81.80 598.29 76.60 Z" />
<path fill="#f1d77b" d=" M 552.34 67.87 C 568.37 72.15 584.16 77.37 599.50 83.70 C 596.40 86.97 593.31 90.26 590.32 93.63 C 574.75 87.52 558.79 82.41 542.56 78.38 C 545.75 74.82 549.05 71.36 552.34 67.87 Z" />
<path fill="#d7bc69" d=" M 319.87 77.17 C 325.67 75.11 331.53 73.23 337.42 71.43 C 338.81 72.15 340.20 72.86 341.60 73.57 C 342.35 76.65 342.86 79.77 343.18 82.91 C 337.44 84.60 331.75 86.44 326.10 88.42 C 326.11 85.41 325.98 82.41 325.71 79.42 C 323.76 78.67 321.81 77.91 319.87 77.17 Z" />
<path fill="#c09f54" d=" M 258.97 82.13 C 263.29 80.02 267.54 77.75 271.90 75.72 C 275.10 75.55 278.29 75.85 281.48 76.19 C 281.93 79.19 282.37 82.20 282.78 85.22 C 276.77 88.00 270.82 90.94 264.97 94.05 C 264.97 90.69 264.89 87.34 264.78 83.99 C 262.86 83.33 260.92 82.72 258.97 82.13 Z" />
<path fill="#d0b363" d=" M 300.10 84.90 C 306.53 81.93 313.25 79.65 319.87 77.17 C 321.81 77.91 323.76 78.67 325.71 79.42 C 325.98 82.41 326.11 85.41 326.10 88.42 C 320.77 90.24 315.51 92.28 310.26 94.33 C 310.09 91.72 309.89 89.11 309.65 86.51 C 306.46 85.99 303.30 85.36 300.10 84.90 Z" />
<path fill="#b8944d" d=" M 240.88 92.27 C 246.81 88.71 252.90 85.43 258.97 82.13 C 260.92 82.72 262.86 83.33 264.78 83.99 C 264.89 87.34 264.97 90.69 264.97 94.05 C 258.89 97.19 252.95 100.59 247.07 104.08 C 246.99 100.51 246.84 96.95 246.65 93.39 C 244.72 93.02 242.80 92.64 240.88 92.27 Z" />
<path fill="#efd176" d=" M 599.50 83.70 C 611.55 88.62 623.38 94.11 634.88 100.23 C 631.31 102.88 628.17 106.04 625.61 109.67 C 614.11 103.76 602.36 98.35 590.32 93.63 C 593.31 90.26 596.40 86.97 599.50 83.70 Z" />
<path fill="#c9aa5c" d=" M 285.00 91.52 C 289.95 89.15 294.95 86.81 300.10 84.90 C 303.30 85.36 306.46 85.99 309.65 86.51 C 309.89 89.11 310.09 91.72 310.26 94.33 C 304.24 96.70 298.32 99.33 292.43 102.02 C 292.86 99.07 292.97 96.10 292.88 93.13 C 290.30 92.36 287.68 91.70 285.00 91.52 Z" />
<path fill="#ecc970" d=" M 636.52 94.27 C 639.59 90.75 642.87 87.39 646.63 84.60 C 673.26 99.13 698.42 116.42 721.24 136.43 C 717.98 139.45 714.83 142.59 711.82 145.85 C 688.78 125.89 663.51 108.47 636.52 94.27 Z" />
<path fill="#c1a055" d=" M 268.92 99.42 C 274.26 96.75 279.54 93.94 285.00 91.52 C 287.68 91.70 290.30 92.36 292.88 93.13 C 292.97 96.10 292.86 99.07 292.43 102.02 C 286.93 104.52 281.50 107.18 276.15 109.99 C 276.05 107.15 275.88 104.32 275.66 101.50 C 273.42 100.78 271.17 100.08 268.92 99.42 Z" />
<path fill="#af8845" d=" M 224.96 102.21 C 230.15 98.71 235.52 95.50 240.88 92.27 C 242.80 92.64 244.72 93.02 246.65 93.39 C 246.84 96.95 246.99 100.51 247.07 104.08 C 239.99 108.21 233.15 112.72 226.33 117.27 C 226.17 112.23 225.93 107.17 224.96 102.21 Z" />
<path fill="#b9954e" d=" M 255.06 107.11 C 259.61 104.41 264.29 101.95 268.92 99.42 C 271.17 100.08 273.42 100.78 275.66 101.50 C 275.88 104.32 276.05 107.15 276.15 109.99 C 270.02 113.15 264.01 116.54 258.07 120.03 C 258.02 115.58 259.24 110.14 255.06 107.11 Z" />
<path fill="#ecca71" d=" M 625.61 109.67 C 628.17 106.04 631.31 102.88 634.88 100.23 C 654.49 110.69 673.31 122.69 690.87 136.34 C 687.50 138.98 684.43 141.97 681.59 145.18 C 663.98 131.77 645.27 119.82 625.61 109.67 Z" />
<path fill="#a3793a" d=" M 200.51 119.50 C 208.42 113.41 216.62 107.70 224.96 102.21 C 225.93 107.17 226.17 112.23 226.33 117.27 C 217.77 122.99 209.59 129.25 201.49 135.60 C 200.84 130.25 200.56 124.88 200.51 119.50 Z" />
<path fill="#af8945" d=" M 236.44 118.45 C 242.62 114.62 248.74 110.71 255.06 107.11 C 259.24 110.14 258.02 115.58 258.07 120.03 C 250.97 124.16 244.10 128.66 237.29 133.24 C 237.08 128.37 236.74 123.51 236.45 118.65 L 236.44 118.45 Z" />
<path fill="#a3793a" d=" M 213.59 134.69 C 221.02 129.08 228.57 123.61 236.45 118.65 C 236.74 123.51 237.08 128.37 237.29 133.24 C 229.39 138.55 221.81 144.34 214.30 150.20 C 213.83 145.04 213.63 139.87 213.59 134.69 Z" />
<path fill="#95652b" d=" M 151.61 163.50 C 166.62 147.48 183.10 132.86 200.51 119.50 C 200.56 124.88 200.84 130.25 201.49 135.60 C 184.00 149.62 167.66 165.09 152.73 181.81 C 152.21 175.72 152.58 169.56 151.61 163.50 Z" />
<path fill="#95662c" d=" M 166.66 176.73 C 181.15 161.49 196.87 147.45 213.59 134.69 C 213.63 139.87 213.83 145.04 214.30 150.20 C 197.53 163.67 181.79 178.47 167.50 194.57 C 167.43 188.61 167.43 182.65 166.66 176.73 Z" />
<path fill="#e9c26b" d=" M 681.59 145.18 C 684.43 141.97 687.50 138.98 690.87 136.34 C 715.16 155.11 737.32 176.66 756.58 200.58 C 753.12 203.10 750.03 206.12 747.67 209.71 C 728.32 185.66 706.13 163.89 681.59 145.18 Z" />
<path fill="#e9c16a" d=" M 711.82 145.85 C 714.83 142.59 717.98 139.45 721.24 136.43 C 736.88 150.06 751.50 164.87 764.95 180.68 C 761.67 183.70 758.54 186.87 755.56 190.19 C 742.14 174.32 727.56 159.43 711.82 145.85 Z" />
<path fill="#ad7c3b" d=" M 136.09 180.72 C 141.15 174.89 146.14 168.97 151.61 163.50 C 152.58 169.56 152.21 175.72 152.73 181.81 C 147.32 188.04 141.88 194.25 136.84 200.78 C 135.81 194.13 136.50 187.40 136.09 180.72 Z" />
<path fill="#ac7b3b" d=" M 151.58 193.58 C 156.47 187.85 161.42 182.16 166.66 176.73 C 167.43 182.65 167.43 188.61 167.50 194.57 C 162.36 200.45 157.21 206.33 152.43 212.53 C 152.29 206.21 152.43 199.86 151.58 193.58 Z" />
<path fill="#7e1518" d=" M 194.30 179.48 C 195.48 179.16 196.69 179.00 197.92 179.00 C 365.61 178.99 533.30 179.01 700.99 178.99 C 704.94 178.71 708.94 180.56 711.06 183.95 C 713.23 187.20 712.69 191.26 712.76 194.96 C 712.74 307.64 712.75 420.32 712.75 533.00 C 712.65 547.31 713.39 561.72 710.86 575.88 C 705.38 608.95 688.52 638.98 667.92 664.97 C 644.43 694.40 616.04 719.56 586.01 742.12 C 556.52 764.07 525.28 783.62 492.97 801.13 C 480.32 807.90 467.61 814.58 454.52 820.45 C 450.59 820.88 446.17 821.45 442.55 819.44 C 409.39 803.66 377.37 785.50 346.67 765.35 C 313.42 743.36 281.63 718.84 253.81 690.20 C 230.61 666.14 209.94 638.88 197.54 607.61 C 191.85 593.06 188.06 577.71 187.09 562.10 C 186.59 555.07 186.78 548.03 186.75 540.99 C 186.75 426.00 186.75 311.00 186.75 196.01 C 186.83 192.49 186.32 188.80 187.66 185.44 C 188.95 182.68 191.33 180.34 194.30 179.48 Z" />
<path fill="#c09049" d=" M 123.84 195.84 C 127.83 190.73 131.84 185.63 136.09 180.72 C 136.50 187.40 135.81 194.13 136.84 200.78 C 132.80 206.07 128.70 211.31 124.88 216.76 C 123.40 209.88 124.42 202.81 123.84 195.84 Z" />
<path fill="#e7bd67" d=" M 755.56 190.19 C 758.54 186.87 761.67 183.70 764.95 180.68 C 777.96 196.08 789.95 212.36 800.56 229.50 C 796.97 232.30 793.74 235.53 790.83 239.02 C 780.33 221.88 768.53 205.54 755.56 190.19 Z" />
<path fill="#be8e47" d=" M 140.95 206.70 C 144.36 202.22 147.88 197.82 151.58 193.58 C 152.43 199.86 152.29 206.21 152.43 212.53 C 148.82 217.20 145.19 221.86 141.80 226.69 C 140.82 220.07 141.46 213.36 140.95 206.70 Z" />
<path fill="#ffffff" d=" M 203.99 204.98 C 203.57 199.84 207.71 194.60 213.00 194.52 C 371.34 194.47 529.68 194.53 688.02 194.49 C 691.82 194.22 695.54 196.61 697.06 200.07 C 698.48 202.82 697.89 206.01 698.01 208.98 C 697.99 316.65 698.01 424.32 698.00 532.00 C 658.08 532.00 618.16 532.01 578.25 531.99 C 578.25 526.41 578.24 520.83 578.25 515.25 C 583.92 515.25 589.59 515.25 595.27 515.25 C 598.67 506.20 601.95 497.09 605.31 488.02 C 554.57 467.70 503.79 447.49 453.10 427.07 C 451.37 426.28 449.34 425.82 447.55 426.68 C 395.59 447.16 343.61 467.57 291.65 488.03 C 294.97 497.11 298.34 506.18 301.65 515.26 C 307.27 515.24 312.89 515.24 318.50 515.26 C 318.50 520.83 318.50 526.41 318.51 531.99 C 280.34 532.01 242.17 531.99 204.00 532.00 C 203.99 422.99 204.01 313.99 203.99 204.98 Z" />
<path fill="#cf9f53" d=" M 114.48 208.55 C 117.48 204.23 120.62 200.00 123.84 195.84 C 124.42 202.81 123.40 209.88 124.88 216.76 C 121.74 221.29 118.59 225.81 115.61 230.44 C 114.78 223.16 115.56 215.81 114.48 208.55 Z" />
<path fill="#e5b863" d=" M 747.67 209.71 C 750.03 206.12 753.12 203.10 756.58 200.58 C 802.13 256.76 831.71 325.75 840.61 397.55 C 850.02 471.42 838.17 547.97 806.12 615.24 C 786.24 657.09 759.00 695.53 725.69 727.76 C 725.15 722.11 725.17 716.44 724.86 710.80 C 755.74 678.84 780.86 641.36 798.84 600.73 C 825.97 539.65 836.25 471.31 828.79 404.93 C 821.04 333.90 792.49 265.34 747.67 209.71 Z" />
<path fill="#ce9e52" d=" M 131.90 218.81 C 134.85 214.72 137.78 210.61 140.95 206.70 C 141.46 213.36 140.82 220.07 141.80 226.69 C 138.80 231.03 135.74 235.32 132.89 239.75 C 131.66 232.82 132.44 225.78 131.90 218.81 Z" />
<path fill="#dbab5b" d=" M 107.49 218.66 C 109.75 215.24 112.04 211.84 114.48 208.55 C 115.56 215.81 114.78 223.16 115.61 230.44 C 113.26 234.10 110.91 237.77 108.68 241.50 C 107.33 233.94 108.70 226.24 107.49 218.66 Z" />
<path fill="#e5b663" d=" M 99.31 231.42 C 101.91 227.09 104.63 222.82 107.49 218.66 C 108.70 226.24 107.33 233.94 108.68 241.50 C 105.79 246.36 102.95 251.25 100.21 256.20 C 99.55 247.94 100.79 239.61 99.31 231.42 Z" />
<path fill="#daab5b" d=" M 124.55 229.49 C 126.89 225.85 129.32 222.28 131.90 218.81 C 132.44 225.78 131.66 232.82 132.89 239.75 C 130.40 243.63 127.89 247.49 125.53 251.45 C 124.82 244.15 125.50 236.78 124.55 229.49 Z" />
<path fill="#e4b562" d=" M 114.31 245.49 C 117.58 240.07 120.94 234.70 124.55 229.49 C 125.50 236.78 124.82 244.15 125.53 251.45 C 122.60 256.31 119.79 261.24 117.05 266.21 C 116.72 259.70 117.00 253.17 116.64 246.66 C 116.06 246.37 114.89 245.78 114.31 245.49 Z" />
<path fill="#e5b863" d=" M 790.83 239.02 C 793.74 235.53 796.97 232.30 800.56 229.50 C 820.41 261.27 835.84 295.80 846.31 331.76 C 867.73 405.25 868.17 484.72 847.55 558.44 C 830.95 618.18 800.44 673.95 759.31 720.33 C 752.65 727.65 746.06 735.11 738.72 741.76 C 738.05 735.80 738.22 729.80 738.05 723.83 C 761.06 699.98 781.02 673.20 797.43 644.41 C 829.22 588.70 847.19 525.19 849.25 461.07 C 852.10 383.46 831.61 305.13 790.83 239.02 Z" />
<path fill="#dbab5c" d=" M 99.31 231.42 C 100.79 239.61 99.55 247.94 100.21 256.20 C 98.62 259.27 96.97 262.31 95.35 265.37 C 93.89 257.42 96.40 249.02 93.64 241.33 L 93.48 240.92 C 95.48 237.79 97.32 234.56 99.31 231.42 Z" />
<path fill="#7e1518" d=" M 499.41 236.65 C 512.37 234.44 526.80 236.23 537.30 244.67 C 547.07 252.47 552.20 264.75 553.40 276.97 C 554.68 291.20 553.33 306.67 544.71 318.59 C 538.65 327.40 528.71 333.16 518.19 334.67 C 506.48 336.30 493.71 335.10 483.75 328.24 C 473.95 321.62 467.90 310.52 465.97 299.01 C 463.79 285.95 464.38 272.02 469.77 259.77 C 475.08 247.80 486.39 238.66 499.41 236.65 Z" />
<path fill="#7e1518" d=" M 252.51 238.00 C 267.69 238.01 282.88 237.97 298.06 238.02 C 309.73 238.19 322.22 240.80 330.86 249.20 C 338.33 256.04 342.01 266.08 342.97 275.99 C 344.24 290.25 342.43 305.77 333.29 317.34 C 325.78 327.33 313.32 332.74 300.98 332.98 C 284.82 333.02 268.66 332.99 252.50 333.00 C 252.50 331.61 252.50 330.22 252.50 328.84 C 255.95 328.52 259.67 328.62 262.76 326.81 C 264.09 324.84 264.13 322.35 264.25 320.06 C 264.25 297.03 264.25 274.00 264.25 250.97 C 264.27 248.62 263.78 246.30 262.81 244.16 C 259.52 242.87 255.98 242.59 252.49 242.29 C 252.49 240.86 252.50 239.43 252.51 238.00 Z" />
<path fill="#ffffff" d=" M 504.55 240.73 C 513.62 239.01 523.63 242.27 529.34 249.66 C 537.64 260.09 539.47 274.03 539.27 286.97 C 539.21 299.61 536.83 313.28 528.06 322.97 C 518.33 333.80 499.06 333.39 489.83 322.11 C 481.60 312.44 479.60 299.27 479.29 286.98 C 479.31 275.56 480.57 263.59 486.56 253.60 C 490.39 247.06 496.89 241.78 504.55 240.73 Z" />
<path fill="#cf9f54" d=" M 93.64 241.33 C 96.40 249.02 93.89 257.42 95.35 265.37 C 93.26 269.31 91.41 273.38 89.43 277.38 C 89.13 273.25 88.63 269.12 88.84 264.97 C 88.89 260.65 89.96 255.93 87.41 252.08 C 89.35 248.42 91.19 244.68 93.64 241.33 Z" />
<path fill="#ffffff" d=" M 278.00 242.50 C 290.49 242.45 304.10 241.95 314.99 249.11 C 324.50 255.34 327.74 267.26 328.57 277.98 C 329.24 290.74 328.78 304.61 321.45 315.61 C 315.68 324.27 305.13 328.46 294.99 328.51 C 289.92 328.44 284.31 328.91 279.82 326.17 C 277.83 323.70 278.40 320.12 278.05 317.13 C 277.93 292.26 278.04 267.38 278.00 242.50 Z" />
<path fill="#d8a85a" d=" M 114.31 245.49 C 114.89 245.78 116.06 246.37 116.64 246.66 C 117.00 253.17 116.72 259.70 117.05 266.21 C 115.10 269.92 113.15 273.62 111.27 277.37 C 110.03 269.75 112.46 261.58 109.17 254.38 C 110.80 251.37 112.60 248.45 114.31 245.49 Z" />
<path fill="#c3924d" d=" M 87.41 252.08 C 89.96 255.93 88.89 260.65 88.84 264.97 C 88.63 269.12 89.13 273.25 89.43 277.38 C 87.44 281.74 85.46 286.11 83.54 290.50 C 81.65 281.18 83.38 271.65 82.24 262.26 C 83.61 258.71 85.62 255.43 87.41 252.08 Z" />
<path fill="#cb9b52" d=" M 102.19 267.27 C 104.40 262.91 106.75 258.63 109.17 254.38 C 112.46 261.58 110.03 269.75 111.27 277.37 C 109.32 281.39 107.31 285.39 105.42 289.45 C 104.54 282.53 105.10 275.55 104.60 268.61 C 104.00 268.28 102.79 267.61 102.19 267.27 Z" />
<path fill="#b38142" d=" M 72.24 283.24 C 75.31 276.12 78.55 269.07 82.24 262.26 C 83.38 271.65 81.65 281.18 83.54 290.50 C 79.89 299.00 76.65 307.66 73.52 316.37 C 72.50 305.34 74.46 294.14 72.24 283.24 Z" />
<path fill="#bf8d4a" d=" M 96.39 279.03 C 98.19 275.05 100.11 271.12 102.19 267.27 C 102.79 267.61 104.00 268.28 104.60 268.61 C 105.10 275.55 104.54 282.53 105.42 289.45 C 103.05 294.75 100.80 300.10 98.54 305.45 C 98.04 298.96 98.14 292.46 98.24 285.96 C 98.39 283.49 97.67 281.12 96.39 279.03 Z" />
<path fill="#7e1518" d=" M 614.77 276.83 C 617.79 271.88 623.41 268.87 629.14 268.55 C 635.19 268.22 641.20 269.54 646.97 271.22 C 647.01 274.99 647.03 278.76 646.94 282.53 C 645.39 282.52 643.85 282.51 642.32 282.52 C 641.84 279.20 642.71 274.68 639.15 272.80 C 634.46 270.62 628.04 270.24 624.05 274.04 C 620.14 278.12 619.91 285.21 623.32 289.67 C 630.37 296.94 641.33 299.25 647.68 307.40 C 651.71 313.33 650.95 321.90 646.38 327.33 C 642.86 331.65 637.39 334.11 631.88 334.44 C 625.25 334.79 618.57 333.85 612.25 331.83 C 612.25 327.73 612.25 323.62 612.25 319.51 C 613.80 319.49 615.36 319.48 616.93 319.46 C 617.39 322.53 616.61 326.49 619.54 328.56 C 624.21 331.91 630.94 333.02 636.11 330.15 C 643.20 325.59 643.08 313.40 636.13 308.73 C 629.28 303.64 620.53 300.80 615.40 293.61 C 611.69 288.85 611.56 281.87 614.77 276.83 Z" />
<path fill="#7e1518" d=" M 349.51 270.01 C 364.18 270.00 378.84 269.99 393.50 270.01 C 393.49 273.92 393.49 277.83 393.50 281.74 C 391.93 281.74 390.35 281.74 388.79 281.75 C 388.57 279.20 388.32 276.65 387.98 274.12 C 380.85 273.36 373.66 273.91 366.51 273.75 C 366.49 281.92 366.49 290.08 366.51 298.25 C 372.30 298.03 378.15 298.76 383.89 297.76 C 384.14 296.17 384.39 294.59 384.63 293.00 C 385.74 293.00 386.87 293.00 388.00 293.00 C 388.00 297.75 388.00 302.50 388.00 307.25 C 387.16 307.25 385.50 307.25 384.67 307.25 C 384.10 305.61 384.71 302.31 382.24 302.20 C 377.01 301.74 371.74 302.12 366.50 302.00 C 366.54 309.34 366.40 316.69 366.55 324.03 C 366.54 326.17 367.34 328.92 369.94 328.95 C 375.26 329.53 380.64 329.23 385.98 329.15 C 387.49 328.85 389.96 329.33 390.27 327.26 C 390.80 325.29 390.86 323.22 391.12 321.21 C 392.65 321.23 394.20 321.25 395.75 321.26 C 395.75 325.17 395.75 329.08 395.75 332.99 C 380.34 333.01 364.94 332.99 349.53 333.00 C 349.50 332.13 349.47 331.26 349.45 330.39 C 351.94 330.12 354.45 329.80 356.81 328.91 C 357.80 324.68 357.47 320.34 357.50 316.05 C 357.51 304.36 357.48 292.67 357.52 280.98 C 357.50 278.72 357.51 276.37 356.63 274.25 C 354.52 272.88 351.83 273.10 349.45 272.62 C 349.47 271.97 349.50 270.66 349.51 270.01 Z" />
<path fill="#7e1518" d=" M 397.52 270.01 C 405.09 269.99 412.67 270.00 420.24 270.00 C 420.24 270.90 420.25 271.79 420.26 272.69 C 417.68 272.70 415.06 272.82 412.64 273.78 C 418.41 289.71 425.57 305.12 431.86 320.85 C 436.53 308.87 441.16 296.87 445.79 284.88 C 447.17 281.23 448.84 277.67 449.60 273.82 C 447.25 272.96 444.75 272.64 442.26 272.70 C 442.25 272.03 442.24 270.69 442.23 270.02 C 447.65 269.99 453.07 270.00 458.49 270.01 C 458.50 270.65 458.53 271.94 458.55 272.59 C 456.24 272.80 453.39 273.02 452.86 275.80 C 445.13 295.01 437.85 314.40 430.41 333.71 C 429.42 333.72 428.43 333.72 427.45 333.73 C 419.48 314.62 411.84 295.36 403.57 276.37 C 402.77 273.58 400.08 272.65 397.45 272.56 C 397.47 271.92 397.50 270.64 397.52 270.01 Z" />
<path fill="#7e1518" d=" M 558.68 270.01 C 568.44 269.99 578.21 270.00 587.98 270.00 C 592.73 270.01 597.82 271.26 601.21 274.80 C 604.75 278.61 605.37 284.20 604.87 289.16 C 604.42 294.10 602.09 299.03 597.87 301.83 C 591.43 306.19 583.29 306.60 575.75 306.51 C 575.93 313.33 575.35 320.19 576.07 326.98 C 576.71 330.80 581.67 329.85 584.50 330.34 C 584.51 331.00 584.53 332.30 584.53 332.96 C 575.94 333.05 567.35 332.98 558.76 333.00 C 558.75 332.34 558.74 331.03 558.73 330.37 C 561.22 330.14 563.71 329.77 566.07 328.90 C 566.42 326.97 566.76 325.02 566.76 323.05 C 566.75 308.67 566.75 294.30 566.76 279.92 C 566.68 277.99 566.71 275.95 565.80 274.20 C 563.71 272.89 561.11 273.19 558.81 272.57 C 558.78 271.93 558.71 270.65 558.68 270.01 Z" />
<path fill="#ffffff" d=" M 575.75 272.76 C 580.88 272.87 586.55 272.02 591.12 274.88 C 594.70 277.33 595.44 282.01 595.53 286.03 C 595.59 291.16 594.49 296.91 590.35 300.34 C 586.32 303.74 580.75 303.86 575.76 303.77 C 575.74 293.43 575.75 283.09 575.75 272.76 Z" />
<path fill="#b07e40" d=" M 96.39 279.03 C 97.67 281.12 98.39 283.49 98.24 285.96 C 98.14 292.46 98.04 298.96 98.54 305.45 C 96.10 311.73 93.74 318.04 91.51 324.39 C 90.05 314.09 92.42 303.58 90.01 293.39 C 91.75 288.46 94.22 283.79 96.39 279.03 Z" />
<path fill="#a57239" d=" M 72.24 283.24 C 74.46 294.14 72.50 305.34 73.52 316.37 C 71.79 321.38 70.19 326.43 68.59 331.49 C 66.81 319.49 69.27 307.33 67.29 295.35 C 68.65 291.21 70.59 287.27 72.24 283.24 Z" />
<path fill="#a16e37" d=" M 84.07 308.15 C 85.69 303.12 87.83 298.22 90.01 293.39 C 92.42 303.58 90.05 314.09 91.51 324.39 C 89.43 330.69 87.42 337.02 85.56 343.39 C 83.67 331.71 86.09 319.80 84.07 308.15 Z" />
<path fill="#9b6733" d=" M 62.47 309.17 C 63.16 304.36 65.64 299.92 67.29 295.35 C 69.27 307.33 66.81 319.49 68.59 331.49 C 66.85 337.44 65.21 343.43 63.60 349.43 C 61.95 336.05 64.07 322.54 62.47 309.17 Z" />
<path fill="#915d2c" d=" M 62.38 308.29 L 62.47 309.17 C 64.07 322.54 61.95 336.05 63.60 349.43 C 61.84 356.75 60.20 364.11 58.70 371.49 C 57.35 359.06 58.29 346.53 58.14 334.06 C 58.16 331.32 57.32 328.69 56.56 326.09 C 58.08 320.06 60.35 314.18 62.38 308.29 Z" />
<path fill="#95612f" d=" M 78.32 324.44 C 79.88 318.91 81.91 313.49 84.07 308.15 C 86.09 319.80 83.67 331.71 85.56 343.39 C 83.42 351.06 81.55 358.80 79.75 366.55 C 77.33 352.63 80.12 338.41 78.32 324.44 Z" />
<path fill="#885326" d=" M 78.32 324.44 C 80.12 338.41 77.33 352.63 79.75 366.55 C 77.20 378.47 75.33 390.52 73.72 402.60 C 73.24 400.41 72.60 398.26 72.48 396.03 C 72.31 378.87 72.78 361.70 72.26 344.55 C 73.91 337.75 75.97 331.03 78.32 324.44 Z" />
<path fill="#875226" d=" M 51.68 343.30 C 52.91 337.49 54.64 331.73 56.56 326.09 C 57.32 328.69 58.16 331.32 58.14 334.06 C 58.29 346.53 57.35 359.06 58.70 371.49 C 56.64 382.48 55.06 393.55 53.72 404.66 C 53.01 401.50 52.34 398.30 52.44 395.05 C 52.63 380.37 52.37 365.68 52.58 350.99 C 52.61 348.40 52.12 345.84 51.68 343.30 Z" />
<path fill="#7e1518" d=" M 344.41 344.42 C 350.25 341.63 356.90 343.45 362.77 345.22 C 362.74 348.15 362.74 351.09 362.75 354.02 C 361.57 353.99 360.39 353.95 359.22 353.92 C 358.86 351.35 359.54 347.78 356.76 346.36 C 353.07 344.59 347.78 344.56 345.15 348.15 C 342.28 352.32 343.05 358.74 347.22 361.78 C 353.05 366.45 361.59 368.86 364.57 376.33 C 367.05 383.29 363.20 391.63 356.24 394.17 C 349.99 396.30 343.12 395.09 336.99 393.06 C 337.00 389.87 336.99 386.68 337.01 383.49 C 338.16 383.49 339.32 383.49 340.47 383.50 C 340.84 385.87 340.28 388.94 342.48 390.56 C 346.53 393.66 353.48 394.32 356.75 389.78 C 359.69 385.15 359.19 377.94 354.44 374.66 C 349.11 370.64 342.36 368.03 338.84 362.03 C 335.18 356.00 338.06 347.34 344.41 344.42 Z" />
<path fill="#6a401e" d=" M 51.68 343.30 C 52.12 345.84 52.61 348.40 52.58 350.99 C 52.37 365.68 52.63 380.37 52.44 395.05 C 52.34 398.30 53.01 401.50 53.72 404.66 C 50.82 432.80 50.78 461.22 53.66 489.36 C 53.23 491.57 52.66 493.76 52.52 496.02 C 52.26 515.16 52.92 534.33 52.20 553.46 C 49.51 543.33 46.91 533.12 45.34 522.77 C 45.82 520.54 46.45 518.32 46.51 516.03 C 46.47 470.37 46.42 424.70 46.53 379.03 C 46.51 376.68 45.81 374.43 45.25 372.18 C 46.81 362.47 49.04 352.79 51.68 343.30 Z" />
<path fill="#7e1518" d=" M 248.07 344.29 C 254.33 344.30 260.60 344.07 266.86 344.42 C 266.60 347.21 263.15 346.36 261.26 347.24 C 260.21 354.75 260.98 362.38 260.75 369.94 C 260.86 376.29 260.51 382.65 260.92 388.99 C 260.76 392.11 264.59 391.60 266.59 392.23 C 266.56 392.67 266.50 393.55 266.48 393.99 C 260.44 393.92 254.40 394.17 248.38 393.89 C 248.28 393.48 248.08 392.67 247.97 392.26 C 249.77 391.73 252.00 391.98 253.45 390.63 C 254.58 385.50 253.75 380.17 254.00 374.96 C 253.77 365.76 254.51 356.51 253.55 347.35 C 251.70 346.33 247.80 347.29 248.07 344.29 Z" />
<path fill="#7e1518" d=" M 277.45 344.28 C 280.84 344.23 284.24 344.22 287.64 344.32 C 296.46 357.19 305.32 370.03 314.26 382.83 C 314.25 372.89 314.23 362.95 314.27 353.01 C 314.22 351.11 314.30 349.13 313.55 347.35 C 312.00 346.54 310.21 346.47 308.54 346.13 C 308.52 345.67 308.47 344.74 308.45 344.27 C 313.27 344.24 318.09 344.23 322.90 344.28 C 323.37 347.55 319.14 345.85 317.63 347.50 C 316.68 350.21 317.07 353.16 316.99 355.99 C 316.94 369.00 317.13 382.01 316.89 395.02 C 316.35 394.89 315.28 394.61 314.74 394.47 C 305.10 380.73 295.66 366.83 286.02 353.08 C 285.96 363.70 286.03 374.32 285.98 384.95 C 286.02 386.86 285.94 388.84 286.57 390.68 C 288.06 391.96 290.23 391.76 292.04 392.27 C 291.93 392.68 291.72 393.49 291.61 393.89 C 286.97 394.10 282.32 394.05 277.68 393.92 C 276.08 390.58 282.55 392.82 282.89 389.98 C 283.68 384.04 283.06 378.00 283.25 372.02 C 282.97 363.75 283.87 355.39 282.69 347.17 C 280.98 346.78 279.26 346.44 277.54 346.13 C 277.52 345.67 277.47 344.74 277.45 344.28 Z" />
<path fill="#7e1518" d=" M 378.01 344.25 C 391.42 344.26 404.83 344.25 418.24 344.25 C 418.25 347.33 418.25 350.41 418.25 353.50 C 417.39 353.50 415.68 353.50 414.82 353.50 C 414.42 351.65 415.33 349.02 413.75 347.66 C 409.73 346.86 405.58 347.40 401.51 347.25 C 401.48 360.15 401.51 373.05 401.49 385.95 C 401.55 387.58 401.47 389.32 402.23 390.84 C 403.93 391.95 406.05 391.86 408.00 392.12 C 408.00 392.59 408.00 393.53 408.00 394.00 C 401.47 393.92 394.92 394.16 388.40 393.89 C 388.29 393.49 388.06 392.68 387.94 392.27 C 389.91 391.90 392.02 391.91 393.88 391.08 C 394.74 389.56 394.71 387.76 394.76 386.07 C 394.74 373.13 394.75 360.19 394.75 347.25 C 390.46 347.29 386.13 346.99 381.88 347.70 C 381.58 349.62 381.47 351.55 381.43 353.50 C 380.57 353.50 378.86 353.50 378.00 353.50 C 377.99 350.41 377.99 347.33 378.01 344.25 Z" />
<path fill="#7e1518" d=" M 429.08 344.28 C 435.34 344.30 441.61 344.06 447.87 344.42 C 447.59 347.22 444.14 346.35 442.25 347.24 C 441.29 353.12 441.92 359.09 441.75 365.02 C 441.97 373.34 441.29 381.71 442.11 390.00 C 442.57 392.93 448.71 390.41 447.39 393.94 C 441.39 394.01 435.37 394.12 429.37 393.88 C 429.27 393.48 429.07 392.67 428.97 392.27 C 430.77 391.74 432.98 391.98 434.45 390.64 C 435.58 385.52 434.75 380.18 435.00 374.97 C 434.76 365.77 435.52 356.51 434.54 347.34 C 432.66 346.32 428.83 347.28 429.08 344.28 Z" />
<path fill="#7e1518" d=" M 458.46 344.31 C 471.89 344.17 485.32 344.29 498.75 344.25 C 498.75 347.33 498.75 350.42 498.74 353.50 C 497.59 353.50 496.45 353.50 495.32 353.50 C 495.22 351.59 495.09 349.69 494.93 347.80 C 490.68 346.89 486.31 347.34 482.01 347.25 C 481.99 360.16 482.01 373.06 481.99 385.97 C 482.06 387.51 481.95 389.14 482.60 390.59 C 484.39 392.21 487.18 391.59 489.20 392.85 C 487.98 394.59 485.72 393.82 483.97 394.02 C 478.90 393.98 473.83 394.01 468.75 393.99 C 468.75 393.53 468.74 392.61 468.73 392.15 C 470.99 391.66 475.08 392.39 475.08 388.97 C 475.48 375.08 475.14 361.16 475.24 347.25 C 471.16 347.38 467.01 346.88 462.98 347.64 C 461.37 349.12 462.24 351.58 461.95 353.50 C 461.09 353.50 459.36 353.50 458.50 353.50 C 458.51 350.43 458.51 347.37 458.46 344.31 Z" />
<path fill="#7e1518" d=" M 508.86 344.26 C 514.98 344.23 521.10 344.28 527.22 344.23 C 527.23 344.85 527.24 345.47 527.27 346.10 C 525.51 346.42 523.77 346.78 522.05 347.19 C 520.83 356.07 521.81 365.10 521.49 374.04 C 521.73 379.22 520.61 385.33 524.39 389.54 C 530.24 396.10 543.32 393.09 544.77 384.08 C 545.75 376.09 545.03 368.01 545.25 359.98 C 545.04 355.79 545.83 351.44 544.57 347.38 C 543.03 346.52 541.21 346.48 539.54 346.13 C 539.52 345.67 539.47 344.74 539.44 344.28 C 544.41 344.21 549.37 344.29 554.34 344.22 C 554.67 347.12 550.87 346.39 549.01 347.23 C 547.63 358.75 549.29 370.44 548.10 381.99 C 547.64 387.88 543.28 393.37 537.43 394.67 C 532.58 395.73 527.23 395.50 522.75 393.24 C 517.62 390.45 515.28 384.52 514.91 378.95 C 514.37 368.95 515.18 358.89 514.51 348.90 C 514.59 345.18 508.27 348.05 508.86 344.26 Z" />
<path fill="#7e1518" d=" M 564.76 344.25 C 578.17 344.25 591.58 344.26 604.99 344.25 C 605.00 347.33 605.00 350.42 604.99 353.51 C 603.84 353.50 602.70 353.49 601.57 353.49 C 601.48 351.57 601.33 349.64 601.15 347.73 C 596.89 346.96 592.55 347.31 588.25 347.25 C 588.24 360.19 588.26 373.12 588.24 386.06 C 588.29 387.68 588.21 389.43 589.06 390.89 C 590.85 391.98 593.02 391.88 595.03 392.25 C 594.94 392.65 594.76 393.45 594.67 393.85 C 588.12 394.21 581.55 393.89 575.00 394.00 C 575.00 393.53 575.00 392.59 575.00 392.12 C 576.74 391.88 578.57 391.92 580.23 391.26 C 581.59 390.35 581.29 388.41 581.49 387.00 C 581.53 373.75 581.48 360.51 581.51 347.26 C 577.33 347.23 573.16 347.14 569.00 347.51 C 568.15 349.39 568.21 351.47 568.19 353.50 C 567.33 353.50 565.61 353.50 564.75 353.50 C 564.74 350.41 564.74 347.33 564.76 344.25 Z" />
<path fill="#7e1518" d=" M 615.86 344.26 C 626.74 344.24 637.62 344.26 648.49 344.25 C 648.50 347.32 648.50 350.40 648.50 353.48 C 647.65 353.49 645.94 353.52 645.09 353.53 C 644.86 351.50 644.65 349.49 644.39 347.47 C 639.11 347.03 633.80 347.34 628.51 347.24 C 628.49 353.66 628.50 360.08 628.50 366.50 C 632.68 366.37 636.91 366.85 641.07 366.14 C 641.25 364.91 641.44 363.68 641.64 362.46 C 642.23 362.48 643.41 362.51 644.00 362.52 C 644.00 366.17 644.00 369.83 644.00 373.48 C 643.43 373.49 642.28 373.52 641.70 373.53 C 641.42 372.28 641.15 371.04 640.87 369.80 C 636.76 369.28 632.62 369.54 628.50 369.51 C 628.51 375.00 628.46 380.50 628.50 386.00 C 628.57 387.79 628.53 390.62 630.95 390.74 C 635.90 391.25 640.93 391.11 645.88 390.61 C 646.37 388.69 646.66 386.72 646.89 384.75 C 647.73 384.75 649.41 384.75 650.25 384.75 C 650.25 387.83 650.25 390.91 650.25 394.00 C 638.83 394.00 627.41 394.00 616.00 394.00 C 616.00 393.53 616.00 392.59 616.00 392.13 C 617.66 391.82 619.43 391.76 620.98 390.98 C 622.20 388.17 621.62 384.99 621.76 382.02 C 621.57 370.97 622.09 359.88 621.51 348.86 C 621.53 345.19 615.27 348.04 615.86 344.26 Z" />
<path fill="#6c411e" d=" M 72.26 344.55 C 72.78 361.70 72.31 378.87 72.48 396.03 C 72.60 398.26 73.24 400.41 73.72 402.60 C 71.22 424.79 70.62 447.17 71.76 469.47 C 71.54 472.63 71.23 475.80 71.25 478.99 C 71.37 497.01 71.17 515.03 71.37 533.05 C 71.43 536.28 70.87 539.47 70.40 542.66 C 68.57 536.55 67.41 530.26 66.04 524.03 C 65.79 522.37 65.16 520.67 65.63 519.00 C 67.13 513.45 66.38 507.68 66.49 502.02 C 66.55 462.00 66.42 421.99 66.55 381.98 C 66.54 379.65 65.88 377.40 65.35 375.16 C 66.91 364.84 69.50 354.63 72.26 344.55 Z" />
<path fill="#4c2f17" d=" M 45.25 372.18 C 45.81 374.43 46.51 376.68 46.53 379.03 C 46.42 424.70 46.47 470.37 46.51 516.03 C 46.45 518.32 45.82 520.54 45.34 522.77 C 43.53 513.80 42.05 504.71 41.24 495.60 C 42.61 490.51 42.43 485.23 42.31 480.01 C 42.32 455.35 42.26 430.67 42.36 406.01 C 42.35 403.69 41.92 401.42 41.47 399.17 C 41.70 390.13 43.66 381.10 45.25 372.18 Z" />
<path fill="#4c2f17" d=" M 65.35 375.16 C 65.88 377.40 66.54 379.65 66.55 381.98 C 66.42 421.99 66.55 462.00 66.49 502.02 C 66.38 507.68 67.13 513.45 65.63 519.00 L 65.39 520.10 C 63.77 510.76 61.70 501.34 61.45 491.88 C 61.91 489.61 62.37 487.32 62.38 485.00 C 62.28 459.67 62.32 434.34 62.38 409.01 C 62.31 406.73 61.73 404.53 61.26 402.32 C 62.09 393.22 63.46 384.11 65.35 375.16 Z" />
<path fill="#342112" d=" M 41.27 398.23 L 41.47 399.17 C 41.92 401.42 42.35 403.69 42.36 406.01 C 42.26 430.67 42.32 455.35 42.31 480.01 C 42.43 485.23 42.61 490.51 41.24 495.60 C 37.25 463.31 37.40 430.53 41.27 398.23 Z" />
<path fill="#332011" d=" M 61.26 402.32 C 61.73 404.53 62.31 406.73 62.38 409.01 C 62.32 434.34 62.28 459.67 62.38 485.00 C 62.37 487.32 61.91 489.61 61.45 491.88 L 61.27 492.74 C 57.77 462.75 57.68 432.30 61.26 402.32 Z" />
<path fill="#ffffff" d=" M 312.73 502.55 C 358.43 484.49 404.14 466.43 449.87 448.43 C 493.71 466.50 537.61 484.43 581.45 502.50 C 491.87 502.54 402.30 502.43 312.73 502.55 Z" />
<path fill="#844f24" d=" M 71.25 478.99 C 71.23 475.80 71.54 472.63 71.76 469.47 C 72.87 485.58 74.72 501.64 77.64 517.54 C 75.54 532.80 78.03 548.31 76.21 563.60 C 74.01 556.71 71.84 549.75 70.40 542.66 C 70.87 539.47 71.43 536.28 71.37 533.05 C 71.17 515.03 71.37 497.01 71.25 478.99 Z" />
<path fill="#f5e385" d=" M 386.08 484.19 C 387.22 482.05 388.34 479.91 389.47 477.77 C 390.43 479.82 391.99 481.73 392.29 484.02 C 392.13 487.62 391.84 491.21 391.81 494.82 C 391.32 494.63 390.36 494.24 389.87 494.05 C 388.71 494.55 387.55 495.05 386.39 495.55 C 386.56 491.81 386.45 488.08 386.52 484.34 C 385.68 484.42 383.99 484.57 383.15 484.65 C 384.12 484.48 385.10 484.33 386.08 484.19 Z" />
<path fill="#f3e082" d=" M 415.73 483.88 C 416.75 481.85 417.78 479.81 418.80 477.78 C 419.87 479.83 420.98 481.88 422.14 483.90 C 423.05 484.06 423.97 484.24 424.89 484.43 C 424.27 484.66 423.05 485.10 422.43 485.32 C 422.04 488.57 421.64 491.82 421.26 495.08 C 420.68 494.82 419.54 494.29 418.96 494.03 C 417.79 494.63 416.62 495.23 415.45 495.83 C 415.49 492.03 415.50 488.23 415.49 484.44 C 414.85 484.49 413.58 484.59 412.94 484.65 C 413.64 484.46 415.03 484.07 415.73 483.88 Z" />
<path fill="#f4de81" d=" M 506.50 477.76 C 507.54 479.67 508.53 481.60 509.49 483.56 C 510.11 483.77 510.74 483.98 511.38 484.21 C 509.66 487.66 509.77 491.57 509.60 495.33 C 508.54 494.88 507.50 494.45 506.45 494.03 C 505.43 494.57 504.42 495.13 503.41 495.69 C 503.55 491.88 503.38 488.07 503.32 484.26 C 504.21 482.02 505.46 479.93 506.50 477.76 Z" />
<path fill="#f2e083" d=" M 444.68 483.94 C 445.84 481.92 446.90 479.84 447.94 477.76 C 448.96 479.81 450.32 481.76 450.92 484.01 C 451.04 487.73 450.92 491.45 450.99 495.17 C 450.06 494.77 449.13 494.37 448.21 493.99 C 446.98 494.58 445.75 495.19 444.53 495.81 C 444.49 492.44 444.52 489.07 444.49 485.71 C 443.49 485.61 442.76 485.16 442.31 484.35 C 442.90 484.25 444.09 484.05 444.68 483.94 Z" />
<path fill="#f5e183" d=" M 473.84 484.04 C 474.91 481.94 475.97 479.84 477.04 477.75 C 478.13 479.80 479.35 481.82 480.16 484.02 C 480.26 487.69 479.81 491.34 479.31 494.97 C 478.76 494.74 477.65 494.29 477.10 494.07 C 476.21 494.50 475.33 494.93 474.45 495.37 C 474.41 492.15 474.60 488.92 474.33 485.72 C 473.64 484.52 472.60 484.12 471.20 484.52 C 472.07 484.35 472.95 484.19 473.84 484.04 Z" />
<path fill="#efd278" d=" M 392.29 484.02 C 394.77 484.25 397.24 484.55 399.71 484.94 C 398.19 486.94 396.44 488.75 394.71 490.58 C 395.23 492.78 395.72 495.01 396.15 497.25 C 394.70 496.43 393.25 495.62 391.81 494.82 C 391.84 491.21 392.13 487.62 392.29 484.02 Z" />
<path fill="#a67d3c" d=" M 408.68 485.14 C 410.09 484.95 411.51 484.77 412.94 484.65 C 413.58 484.59 414.85 484.49 415.49 484.44 C 415.50 488.23 415.49 492.03 415.45 495.83 C 414.79 496.18 413.48 496.88 412.82 497.23 C 413.15 494.92 413.68 492.62 413.74 490.28 C 412.19 488.43 410.28 486.93 408.68 485.14 Z" />
<path fill="#a4793a" d=" M 437.72 485.08 C 439.32 485.30 440.80 485.00 442.18 484.15 L 442.31 484.35 C 442.76 485.16 443.49 485.61 444.49 485.71 C 444.52 489.07 444.49 492.44 444.53 495.81 C 443.87 496.16 442.55 496.85 441.89 497.20 C 442.25 494.94 442.64 492.69 443.05 490.45 C 441.27 488.65 439.56 486.80 437.72 485.08 Z" />
<path fill="#eecf76" d=" M 450.92 484.01 C 453.41 484.28 455.91 484.57 458.39 484.97 C 456.89 486.88 455.12 488.56 453.28 490.14 C 453.70 492.46 454.13 494.78 454.57 497.10 C 453.37 496.45 452.18 495.81 450.99 495.17 C 450.92 491.45 451.04 487.73 450.92 484.01 Z" />
<path fill="#efd076" d=" M 480.16 484.02 C 482.60 484.29 485.04 484.60 487.48 484.98 C 485.80 486.69 484.10 488.38 482.38 490.05 C 482.80 492.40 483.23 494.73 483.67 497.09 C 482.20 496.37 480.76 495.67 479.31 494.97 C 479.81 491.34 480.26 487.69 480.16 484.02 Z" />
<path fill="#ac8542" d=" M 496.28 485.15 C 498.62 484.85 500.96 484.54 503.32 484.26 C 503.38 488.07 503.55 491.88 503.41 495.69 C 502.68 496.08 501.22 496.86 500.50 497.25 C 500.87 494.89 501.25 492.54 501.59 490.19 C 499.75 488.58 497.97 486.91 496.28 485.15 Z" />
<path fill="#af8844" d=" M 379.03 485.14 C 380.40 484.95 381.77 484.79 383.15 484.65 C 383.99 484.57 385.68 484.42 386.52 484.34 C 386.45 488.08 386.56 491.81 386.39 495.55 C 385.63 495.98 384.10 496.83 383.34 497.26 C 383.70 495.03 384.09 492.82 384.52 490.61 C 382.84 488.64 381.02 486.79 379.03 485.14 Z" />
<path fill="#eecf75" d=" M 422.43 485.32 C 423.05 485.10 424.27 484.66 424.89 484.43 C 426.34 484.52 427.80 484.69 429.25 484.94 C 427.56 486.66 425.85 488.35 424.14 490.05 C 424.56 492.35 425.01 494.64 425.45 496.95 C 423.99 496.47 422.59 495.82 421.26 495.08 C 421.64 491.82 422.04 488.57 422.43 485.32 Z" />
<path fill="#b7924b" d=" M 466.74 485.18 C 468.22 484.92 469.70 484.70 471.20 484.52 C 472.60 484.12 473.64 484.52 474.33 485.72 C 474.60 488.92 474.41 492.15 474.45 495.37 C 473.27 496.01 472.10 496.64 470.93 497.28 C 471.29 494.93 471.69 492.59 472.07 490.24 C 470.24 488.61 468.46 486.92 466.74 485.18 Z" />
<path fill="#edcd74" d=" M 509.60 495.33 C 509.77 491.57 509.66 487.66 511.38 484.21 C 513.23 484.46 515.08 484.71 516.94 484.96 C 515.27 486.65 513.58 488.33 511.87 489.99 C 512.27 492.37 512.69 494.74 513.12 497.13 C 511.94 496.52 510.77 495.92 509.60 495.33 Z" />
<path fill="#875226" d=" M 53.66 489.36 C 55.21 502.46 57.15 515.51 59.77 528.44 C 57.93 537.56 59.39 546.85 59.00 556.05 C 58.85 561.95 59.44 567.87 58.45 573.73 L 58.36 574.54 C 56.15 567.57 53.87 560.57 52.20 553.46 C 52.92 534.33 52.26 515.16 52.52 496.02 C 52.66 493.76 53.23 491.57 53.66 489.36 Z" />
<path fill="#915c2c" d=" M 77.64 517.54 C 79.15 524.95 80.69 532.36 82.51 539.71 C 81.55 549.46 81.85 559.27 82.11 569.04 C 82.24 572.27 81.66 575.46 81.22 578.64 C 79.32 573.71 77.51 568.71 76.21 563.60 C 78.03 548.31 75.54 532.80 77.64 517.54 Z" />
<path fill="#95612f" d=" M 59.77 528.44 C 61.84 537.87 64.08 547.27 66.68 556.58 C 64.60 568.87 67.53 581.42 65.18 593.68 C 62.71 587.13 59.80 580.56 58.45 573.73 C 59.44 567.87 58.85 561.95 59.00 556.05 C 59.39 546.85 57.93 537.56 59.77 528.44 Z" />
<path fill="#ffffff" d=" M 333.50 537.26 C 340.83 537.24 348.17 537.24 355.50 537.26 C 355.49 578.34 355.51 619.42 355.49 660.50 C 348.16 660.50 340.83 660.50 333.51 660.50 C 333.49 619.42 333.51 578.34 333.50 537.26 Z" />
<path fill="#ffffff" d=" M 385.50 537.26 C 392.83 537.24 400.17 537.24 407.50 537.26 C 407.49 578.34 407.51 619.42 407.49 660.50 C 400.16 660.50 392.83 660.50 385.51 660.50 C 385.49 619.42 385.51 578.34 385.50 537.26 Z" />
<path fill="#ffffff" d=" M 437.50 537.26 C 444.83 537.24 452.17 537.24 459.50 537.26 C 459.50 578.34 459.51 619.42 459.49 660.50 C 452.16 660.50 444.83 660.50 437.51 660.50 C 437.49 619.42 437.51 578.34 437.50 537.26 Z" />
<path fill="#ffffff" d=" M 489.50 537.26 C 496.83 537.24 504.17 537.24 511.50 537.26 C 511.49 578.34 511.51 619.42 511.49 660.50 C 504.16 660.50 496.83 660.50 489.51 660.50 C 489.49 619.42 489.50 578.34 489.50 537.26 Z" />
<path fill="#ffffff" d=" M 541.50 537.26 C 548.83 537.24 556.17 537.24 563.50 537.26 C 563.49 578.34 563.51 619.42 563.49 660.50 C 556.16 660.50 548.83 660.50 541.51 660.50 C 541.49 619.42 541.51 578.34 541.50 537.26 Z" />
<path fill="#9b6733" d=" M 82.51 539.71 C 84.41 547.04 86.47 554.33 88.66 561.58 C 87.41 572.56 88.82 583.68 87.25 594.62 C 85.08 589.36 82.85 584.08 81.22 578.64 C 81.66 575.46 82.24 572.27 82.11 569.04 C 81.85 559.27 81.55 549.46 82.51 539.71 Z" />
<path fill="#a37038" d=" M 66.68 556.58 C 69.17 564.94 71.78 573.27 74.66 581.51 C 72.69 592.11 74.55 602.93 73.33 613.60 C 70.37 607.07 67.50 600.45 65.18 593.68 C 67.53 581.42 64.60 568.87 66.68 556.58 Z" />
<path fill="#aa773c" d=" M 88.66 561.58 C 90.53 567.29 92.49 572.97 94.51 578.63 C 93.14 588.61 94.78 598.71 93.30 608.68 C 91.12 604.07 88.94 599.43 87.25 594.62 C 88.82 583.68 87.41 572.56 88.66 561.58 Z" />
<path fill="#b48243" d=" M 94.51 578.63 C 96.42 583.66 98.39 588.66 100.41 593.65 C 99.17 602.94 101.12 612.31 99.37 621.56 C 97.21 617.34 95.01 613.09 93.30 608.68 C 94.78 598.71 93.14 588.61 94.51 578.63 Z" />
<path fill="#b38142" d=" M 74.66 581.51 C 77.21 588.23 79.72 594.97 82.49 601.61 C 81.10 611.25 82.41 620.99 81.29 630.65 C 78.53 625.02 75.62 619.42 73.33 613.60 C 74.55 602.93 72.69 592.11 74.66 581.51 Z" />
<path fill="#c3924d" d=" M 100.41 593.65 C 102.29 598.03 104.23 602.39 106.20 606.73 C 105.65 615.42 106.96 624.25 105.15 632.83 C 103.20 629.08 100.96 625.47 99.37 621.56 C 101.12 612.31 99.17 602.94 100.41 593.65 Z" />
<path fill="#c3924d" d=" M 82.49 601.61 C 84.70 606.68 86.93 611.75 89.25 616.78 C 89.19 625.99 90.05 635.32 88.45 644.45 C 86.05 639.86 83.36 635.38 81.29 630.65 C 82.41 620.99 81.10 611.25 82.49 601.61 Z" />
<path fill="#ce9d54" d=" M 106.20 606.73 C 108.25 611.04 110.27 615.37 112.44 619.63 C 112.01 627.68 113.38 635.92 111.27 643.81 C 109.16 640.19 107.01 636.58 105.15 632.83 C 106.96 624.25 105.65 615.42 106.20 606.73 Z" />
<path fill="#d5a558" d=" M 89.25 616.78 C 92.79 624.12 96.38 631.44 100.32 638.57 C 99.09 646.81 99.83 655.15 99.55 663.44 C 95.67 657.22 91.85 650.95 88.45 644.45 C 90.05 635.32 89.19 625.99 89.25 616.78 Z" />
<path fill="#e1b260" d=" M 112.44 619.63 C 118.10 630.46 124.05 641.15 130.71 651.40 C 129.61 652.34 128.34 653.17 127.48 654.37 C 126.52 658.97 126.96 663.71 126.71 668.38 C 121.30 660.36 116.01 652.24 111.27 643.81 C 113.38 635.92 112.01 627.68 112.44 619.63 Z" />
<path fill="#e5b663" d=" M 100.32 638.57 C 103.09 643.54 105.94 648.45 108.85 653.34 C 107.61 660.96 108.84 668.70 107.75 676.34 C 104.96 672.08 102.04 667.88 99.55 663.44 C 99.83 655.15 99.09 646.81 100.32 638.57 Z" />
<path fill="#d7a859" d=" M 127.48 654.37 C 128.34 653.17 129.61 652.34 130.71 651.40 C 131.98 653.38 133.25 655.37 134.54 657.35 C 131.72 663.58 133.67 670.59 132.93 677.18 C 130.78 674.30 128.74 671.34 126.71 668.38 C 126.96 663.71 126.52 658.97 127.48 654.37 Z" />
<path fill="#d7a859" d=" M 107.75 676.34 C 108.84 668.70 107.61 660.96 108.85 653.34 C 113.14 660.52 117.79 667.48 122.52 674.39 C 121.55 675.47 119.98 676.34 119.93 677.98 C 119.38 683.04 119.79 688.15 119.67 693.23 C 115.52 687.73 111.62 682.05 107.75 676.34 Z" />
<path fill="#ce9e52" d=" M 132.93 677.18 C 133.67 670.59 131.72 663.58 134.54 657.35 C 136.93 660.93 139.43 664.45 141.88 667.99 C 138.85 673.63 140.63 680.25 139.76 686.35 C 137.40 683.35 135.12 680.30 132.93 677.18 Z" />
<path fill="#c1914a" d=" M 139.76 686.35 C 140.63 680.25 138.85 673.63 141.88 667.99 C 145.13 672.53 148.52 676.97 151.94 681.38 C 150.77 682.66 149.43 683.84 148.57 685.37 C 147.77 688.98 147.96 692.72 147.73 696.39 C 144.99 693.10 142.34 689.75 139.76 686.35 Z" />
<path fill="#c9994f" d=" M 119.93 677.98 C 119.98 676.34 121.55 675.47 122.52 674.39 C 125.02 677.98 127.58 681.52 130.17 685.06 C 125.32 689.49 127.62 696.56 126.68 702.32 C 124.25 699.36 121.98 696.28 119.67 693.23 C 119.79 688.15 119.38 683.04 119.93 677.98 Z" />
<path fill="#b58541" d=" M 148.57 685.37 C 149.43 683.84 150.77 682.66 151.94 681.38 C 154.22 684.30 156.55 687.17 158.90 690.04 C 155.80 695.06 157.23 701.16 156.55 706.72 C 153.48 703.38 150.61 699.88 147.73 696.39 C 147.96 692.72 147.77 688.98 148.57 685.37 Z" />
<path fill="#bd8d47" d=" M 126.68 702.32 C 127.62 696.56 125.32 689.49 130.17 685.06 C 132.26 687.87 134.42 690.64 136.55 693.43 C 133.99 699.38 135.55 706.00 134.74 712.26 C 131.97 709.01 129.32 705.67 126.68 702.32 Z" />
<path fill="#a87738" d=" M 156.55 706.72 C 157.23 701.16 155.80 695.06 158.90 690.04 C 162.07 693.90 165.41 697.62 168.72 701.38 C 168.24 707.12 168.27 712.91 167.54 718.64 C 163.66 714.87 160.13 710.76 156.55 706.72 Z" />
<path fill="#b2823f" d=" M 134.74 712.26 C 135.55 706.00 133.99 699.38 136.55 693.43 C 139.68 697.46 142.99 701.36 146.25 705.29 C 142.84 710.36 144.10 716.69 143.57 722.43 C 140.53 719.12 137.66 715.66 134.74 712.26 Z" />
<path fill="#ffffff" d=" M 290.75 697.29 C 397.61 697.19 504.46 697.29 611.32 697.24 C 580.11 724.63 545.55 748.00 509.65 768.77 C 492.98 778.35 475.98 787.36 458.62 795.61 C 454.65 797.84 449.62 797.80 445.38 796.55 C 415.46 782.47 386.61 766.17 358.82 748.26 C 335.03 732.82 312.07 716.02 290.75 697.29 Z" />
<path fill="#96672c" d=" M 167.54 718.64 C 168.27 712.91 168.24 707.12 168.72 701.38 C 185.06 719.45 203.04 736.08 222.52 750.73 C 221.48 755.60 221.42 760.60 221.41 765.57 C 202.04 751.67 183.89 736.00 167.54 718.64 Z" />
<path fill="#a57536" d=" M 146.25 705.29 C 148.88 708.43 151.63 711.47 154.34 714.54 C 154.27 720.81 154.35 727.10 153.75 733.37 C 150.25 729.82 146.92 726.11 143.57 722.43 C 144.10 716.69 142.84 710.36 146.25 705.29 Z" />
<path fill="#ebc86f" d=" M 629.15 783.03 C 664.65 764.27 696.95 739.63 724.86 710.80 C 725.17 716.44 725.15 722.11 725.69 727.76 L 725.71 728.00 C 697.25 755.75 664.62 779.23 629.19 797.26 C 629.15 792.51 629.15 787.77 629.15 783.03 Z" />
<path fill="#96672d" d=" M 154.34 714.54 C 171.68 733.60 190.71 751.17 211.35 766.60 C 210.51 771.84 210.42 777.15 210.49 782.45 C 190.14 767.84 171.11 751.43 153.75 733.37 C 154.35 727.10 154.27 720.81 154.34 714.54 Z" />
<path fill="#ebc76f" d=" M 644.56 795.92 C 679.10 776.75 710.59 752.21 738.05 723.83 C 738.22 729.80 738.05 735.80 738.72 741.76 L 738.74 741.98 C 710.78 769.44 678.79 792.79 644.21 811.22 C 644.01 806.12 644.05 801.01 644.56 795.92 Z" />
<path fill="#ab8341" d=" M 221.41 765.57 C 221.42 760.60 221.48 755.60 222.52 750.73 C 234.03 759.30 245.89 767.44 258.29 774.68 C 257.85 779.34 257.58 784.02 257.36 788.70 C 244.94 781.76 233.00 773.99 221.41 765.76 L 221.41 765.57 Z" />
<path fill="#ad8542" d=" M 211.35 766.60 C 224.53 776.36 238.15 785.54 252.42 793.64 C 251.83 798.53 251.49 803.45 251.52 808.39 C 237.42 800.43 223.57 792.00 210.49 782.45 C 210.42 777.15 210.51 771.84 211.35 766.60 Z" />
<path fill="#bd9a51" d=" M 258.29 774.68 C 268.89 780.85 279.70 786.66 290.82 791.82 C 290.85 796.37 290.76 800.93 290.45 805.49 C 279.11 800.60 268.17 794.83 257.35 788.88 L 257.36 788.70 C 257.58 784.02 257.85 779.34 258.29 774.68 Z" />
<path fill="#efd277" d=" M 583.98 803.39 C 599.44 797.56 614.56 790.80 629.15 783.03 C 629.15 787.77 629.15 792.51 629.19 797.26 C 609.18 807.47 588.30 816.07 566.76 822.44 C 571.86 815.49 579.29 810.64 583.98 803.39 Z" />
<path fill="#cbad5f" d=" M 290.82 791.82 C 300.33 796.20 309.97 800.29 319.81 803.90 C 319.92 808.43 320.19 812.96 320.44 817.49 C 310.24 814.08 300.32 809.90 290.44 805.66 L 290.45 805.49 C 290.76 800.93 290.85 796.37 290.82 791.82 Z" />
<path fill="#bf9e54" d=" M 252.42 793.64 C 264.70 800.58 277.25 807.08 290.19 812.71 C 289.81 817.33 289.58 821.97 289.44 826.62 C 276.39 821.47 263.82 815.12 251.52 808.39 C 251.49 803.45 251.83 798.53 252.42 793.64 Z" />
<path fill="#efd177" d=" M 596.98 818.48 C 613.31 812.03 629.21 804.46 644.56 795.92 C 644.05 801.01 644.01 806.12 644.21 811.22 C 625.69 821.24 606.27 829.52 586.45 836.59 C 585.19 834.93 584.20 832.64 585.84 830.86 C 589.29 826.50 594.04 823.28 596.98 818.48 Z" />
<path fill="#d6bc69" d=" M 319.81 803.90 C 327.79 806.76 335.82 809.54 343.98 811.89 C 343.85 816.30 344.05 820.75 345.05 825.08 C 336.65 823.35 328.63 820.20 320.45 817.68 L 320.44 817.49 C 320.19 812.96 319.92 808.43 319.81 803.90 Z" />
<path fill="#f2d97d" d=" M 535.24 817.90 C 551.79 814.19 568.06 809.24 583.98 803.39 C 579.29 810.64 571.86 815.49 566.76 822.44 C 553.42 826.79 539.69 830.13 525.87 832.63 C 526.25 830.53 525.82 828.06 527.29 826.33 C 529.78 823.38 532.69 820.80 535.24 817.90 Z" />
<path fill="#dfc771" d=" M 343.98 811.89 C 351.67 814.10 359.40 816.18 367.22 817.93 C 367.89 821.72 368.22 825.59 367.81 829.44 C 367.15 829.69 365.84 830.17 365.18 830.41 C 358.45 828.92 351.79 827.18 345.12 825.47 L 345.05 825.08 C 344.05 820.75 343.85 816.30 343.98 811.89 Z" />
<path fill="#cfb162" d=" M 290.19 812.71 C 300.35 817.04 310.56 821.26 321.04 824.73 C 321.03 829.31 323.03 834.34 320.60 838.60 C 310.07 835.11 299.73 831.09 289.43 826.99 L 289.44 826.62 C 289.58 821.97 289.81 817.33 290.19 812.71 Z" />
<path fill="#e6d078" d=" M 367.22 817.93 C 374.12 819.42 381.04 820.88 388.02 822.01 C 388.17 826.21 388.01 830.43 387.40 834.61 C 379.93 833.53 372.53 832.07 365.18 830.41 C 365.84 830.17 367.15 829.69 367.81 829.44 C 368.22 825.59 367.89 821.72 367.22 817.93 Z" />
<path fill="#f4df82" d=" M 494.98 824.74 C 508.51 823.19 521.95 820.88 535.24 817.90 C 532.69 820.80 529.78 823.38 527.29 826.33 C 525.82 828.06 526.25 830.53 525.87 832.63 L 525.85 832.78 C 515.63 834.73 505.32 836.27 494.98 837.44 C 494.98 833.20 494.99 828.97 494.98 824.74 Z" />
<path fill="#f2da7e" d=" M 517.24 840.69 C 544.51 836.14 571.25 828.57 596.98 818.48 C 594.04 823.28 589.29 826.50 585.84 830.86 C 584.20 832.64 585.19 834.93 586.45 836.59 C 559.32 846.00 531.21 852.61 502.71 856.18 C 507.30 850.77 512.81 846.23 517.24 840.69 Z" />
<path fill="#ecd87d" d=" M 388.02 822.01 C 394.97 823.15 401.94 824.17 408.95 824.93 C 408.93 829.15 408.97 833.38 409.05 837.61 C 401.80 836.85 394.59 835.80 387.38 834.77 L 387.40 834.61 C 388.01 830.43 388.17 826.21 388.02 822.01 Z" />
<path fill="#dac06c" d=" M 321.04 824.73 C 329.33 827.50 337.64 830.19 346.09 832.43 C 345.95 837.09 346.23 841.77 346.99 846.38 C 338.13 844.02 329.29 841.53 320.60 838.60 C 323.03 834.34 321.03 829.31 321.04 824.73 Z" />
<path fill="#f1df82" d=" M 408.95 824.93 C 416.30 825.71 423.67 826.35 431.06 826.73 C 431.03 830.92 431.02 835.12 431.03 839.32 C 423.69 838.96 416.35 838.41 409.05 837.61 C 408.97 833.38 408.93 829.15 408.95 824.93 Z" />
<path fill="#f6e486" d=" M 431.06 826.73 C 452.37 827.90 473.77 827.15 494.98 824.74 C 494.99 828.97 494.98 833.20 494.98 837.44 C 473.76 839.80 452.35 840.33 431.03 839.32 C 431.02 835.12 431.03 830.92 431.06 826.73 Z" />
<path fill="#e2ca73" d=" M 346.09 832.43 C 353.71 834.46 361.38 836.34 369.11 837.93 C 369.95 842.38 370.19 846.95 369.55 851.46 C 361.97 850.05 354.46 848.30 346.99 846.38 C 346.23 841.77 345.95 837.09 346.09 832.43 Z" />
<path fill="#e9d37a" d=" M 369.11 837.93 C 376.71 839.47 384.34 840.86 392.01 841.97 C 392.59 846.47 392.98 850.98 393.20 855.51 C 385.28 854.40 377.40 853.05 369.54 851.60 L 369.55 851.46 C 370.19 846.95 369.95 842.38 369.11 837.93 Z" />
<path fill="#f6e485" d=" M 429.93 845.74 C 459.10 847.29 488.43 845.49 517.24 840.69 C 512.81 846.23 507.30 850.77 502.71 856.18 C 478.61 859.23 454.23 860.20 429.96 858.94 C 429.93 854.53 429.92 850.13 429.93 845.74 Z" />
<path fill="#f0dd81" d=" M 392.01 841.97 C 404.59 843.78 417.24 845.12 429.93 845.74 C 429.92 850.13 429.93 854.53 429.96 858.94 C 417.67 858.33 405.39 857.27 393.20 855.51 C 392.98 850.98 392.59 846.47 392.01 841.97 Z" />
</svg>
