<?xml version="1.0" encoding="UTF-8" ?>
<!DOCTYPE svg PUBLIC "-//W3C//DTD SVG 1.1//EN" "http://www.w3.org/Graphics/SVG/1.1/DTD/svg11.dtd">
<svg width="867pt" height="917pt" viewBox="0 0 867 917" version="1.1" xmlns="http://www.w3.org/2000/svg">
<path fill="#ffffff" d=" M 0.00 0.00 L 867.00 0.00 L 867.00 917.00 L 0.00 917.00 L 0.00 0.00 Z" />
<path fill="#6f6f6f" d=" M 402.49 48.81 C 481.37 44.23 561.42 64.22 629.17 104.84 C 691.51 141.98 743.31 196.50 777.21 260.66 C 817.23 335.73 832.32 423.81 819.31 507.90 C 810.10 569.08 786.39 628.01 750.67 678.53 C 716.96 726.43 672.52 766.68 621.59 795.59 C 558.53 831.55 485.52 849.77 412.97 847.71 C 368.60 846.42 324.44 837.81 282.91 822.10 C 215.97 796.94 156.04 753.41 111.53 697.43 C 62.67 636.42 32.34 560.78 25.73 482.90 C 19.31 412.27 32.51 340.02 63.05 276.04 C 94.04 210.75 143.16 154.23 203.51 114.46 C 262.44 75.45 331.89 52.38 402.49 48.81 Z" />
<path fill="#daa72d" d=" M 630.71 131.58 C 632.61 133.68 634.20 136.03 635.58 138.51 C 638.11 143.04 641.18 147.25 643.56 151.87 C 641.24 152.25 638.92 152.62 636.60 152.99 C 634.48 145.90 629.84 139.26 630.71 131.58 Z" />
<path fill="#d49b10" d=" M 636.60 152.99 C 638.92 152.62 641.24 152.25 643.56 151.87 L 643.97 151.80 C 649.57 160.91 653.81 170.75 658.78 180.21 C 664.78 191.66 669.79 203.58 675.55 215.15 C 669.73 217.07 663.79 218.57 658.00 220.59 C 657.13 214.90 655.82 209.24 653.18 204.09 C 648.65 194.18 646.83 183.32 642.95 173.17 C 640.59 167.12 640.35 160.34 637.07 154.67 C 636.95 154.25 636.71 153.41 636.60 152.99 Z" />
<path fill="#d49c11" d=" M 189.83 160.59 C 191.18 160.08 192.53 159.57 193.89 159.06 C 194.72 160.07 195.56 161.07 196.40 162.08 C 197.29 165.71 198.72 169.26 198.80 173.03 C 198.56 182.88 196.60 192.69 192.58 201.71 C 190.18 206.76 191.02 212.52 190.89 217.93 C 188.43 216.53 186.05 214.60 183.11 214.45 C 179.87 214.24 176.64 214.60 173.41 214.78 C 172.49 213.22 171.56 211.66 170.65 210.11 C 173.29 202.79 176.76 195.83 179.82 188.69 C 182.99 179.26 186.49 169.95 189.83 160.59 Z" />
<path fill="#d7a11e" d=" M 190.89 217.93 C 191.02 212.52 190.18 206.76 192.58 201.71 C 192.63 208.61 192.62 215.51 192.58 222.41 C 187.21 220.42 181.97 217.89 176.32 216.79 C 174.02 216.05 172.23 218.37 171.62 220.30 C 171.85 223.84 174.49 227.24 178.00 228.08 C 181.14 228.97 184.41 228.34 187.59 227.98 C 187.54 230.19 187.49 232.41 187.45 234.63 C 191.21 236.07 195.02 237.37 198.87 238.56 C 197.98 241.40 198.36 245.94 194.70 246.73 C 187.50 248.10 180.44 242.70 173.35 245.76 C 171.32 243.33 169.36 240.83 167.86 238.03 C 168.44 235.80 168.00 233.52 167.38 231.36 L 167.24 230.72 C 166.97 227.64 166.82 224.55 166.66 221.46 C 167.65 217.57 169.15 213.83 170.65 210.11 C 171.56 211.66 172.49 213.22 173.41 214.78 C 176.64 214.60 179.87 214.24 183.11 214.45 C 186.05 214.60 188.43 216.53 190.89 217.93 Z" />
<path fill="#dbab35" d=" M 653.18 204.09 C 655.82 209.24 657.13 214.90 658.00 220.59 C 663.79 218.57 669.73 217.07 675.55 215.15 L 676.73 214.79 L 675.81 215.51 C 670.87 219.94 663.56 219.02 658.02 222.42 C 657.49 222.15 656.97 221.88 656.46 221.62 C 656.59 215.58 654.02 209.99 653.18 204.09 Z" />
<path fill="#d49b0f" d=" M 171.62 220.30 C 172.23 218.37 174.02 216.05 176.32 216.79 C 181.97 217.89 187.21 220.42 192.58 222.41 C 200.52 225.42 208.51 228.27 216.34 231.54 C 213.72 232.87 211.11 234.21 208.49 235.56 C 211.79 237.51 217.36 238.35 217.74 243.00 C 218.35 246.17 216.73 249.08 215.20 251.72 C 218.09 254.19 220.65 257.00 223.46 259.55 C 227.14 262.83 232.50 262.82 236.47 265.59 C 239.12 267.94 240.46 271.42 243.13 273.75 C 244.94 274.93 247.01 275.61 248.98 276.48 C 248.15 278.04 247.29 281.38 244.88 280.03 C 238.85 277.24 233.26 273.54 227.23 270.73 C 216.00 263.91 205.15 256.22 192.80 251.49 C 187.19 249.37 181.12 249.38 175.27 248.39 C 174.63 247.52 173.99 246.64 173.35 245.76 C 180.44 242.70 187.50 248.10 194.70 246.73 C 198.36 245.94 197.98 241.40 198.87 238.56 C 195.02 237.37 191.21 236.07 187.45 234.63 C 187.49 232.41 187.54 230.19 187.59 227.98 C 184.41 228.34 181.14 228.97 178.00 228.08 C 174.49 227.24 171.85 223.84 171.62 220.30 Z" />
<path fill="#b1995f" d=" M 658.02 222.42 C 663.56 219.02 670.87 219.94 675.81 215.51 C 677.14 218.06 678.70 220.53 679.60 223.28 C 680.46 226.67 679.95 230.20 679.67 233.62 C 677.57 229.71 674.86 226.18 672.33 222.54 C 663.59 224.01 655.02 226.27 646.36 228.12 C 649.08 225.44 652.15 223.15 655.34 221.05 L 656.46 221.62 C 656.97 221.88 657.49 222.15 658.02 222.42 Z" />
<path fill="#dcaf44" d=" M 166.56 219.92 L 166.66 221.46 C 166.82 224.55 166.97 227.64 167.24 230.72 C 165.13 227.48 165.99 223.46 166.56 219.92 Z" />
<path fill="#d7aa3b" d=" M 646.36 228.12 C 655.02 226.27 663.59 224.01 672.33 222.54 C 674.86 226.18 677.57 229.71 679.67 233.62 C 679.78 234.36 680.01 235.82 680.12 236.55 C 677.52 232.41 674.78 228.36 672.32 224.14 C 661.97 225.04 652.19 228.82 641.94 230.25 C 643.36 229.47 644.77 228.57 646.36 228.12 Z" />
<path fill="#d4990c" d=" M 641.94 230.25 C 652.19 228.82 661.97 225.04 672.32 224.14 C 674.78 228.36 677.52 232.41 680.12 236.55 C 679.62 241.84 676.80 246.58 674.57 251.30 C 668.63 251.34 662.46 250.66 656.78 252.78 C 650.86 255.41 644.24 256.17 638.66 259.60 C 631.98 263.65 624.29 266.10 618.49 271.50 C 614.12 275.57 608.61 278.42 605.12 283.39 C 600.88 289.02 595.72 294.05 592.65 300.47 C 589.83 306.17 586.45 311.67 584.87 317.89 C 583.85 321.95 582.48 325.90 581.15 329.87 C 579.48 336.27 580.04 342.96 579.81 349.50 C 578.32 349.38 576.82 349.25 575.33 349.14 C 575.53 340.28 578.61 331.87 579.70 323.14 C 575.93 320.84 572.12 318.60 568.24 316.50 C 568.94 314.64 569.03 312.18 571.01 311.14 C 574.45 308.96 578.38 307.75 582.18 306.33 C 582.05 304.65 582.00 302.96 581.69 301.32 C 579.96 299.49 577.63 298.40 575.56 297.06 C 579.42 291.47 585.25 287.76 589.73 282.73 C 596.81 275.74 601.86 266.97 609.42 260.43 C 614.14 256.24 611.69 249.12 608.95 244.48 C 613.92 242.36 618.43 239.27 623.47 237.32 C 628.79 235.99 634.21 234.66 638.81 231.52 C 639.80 231.00 640.83 230.51 641.94 230.25 Z" />
<path fill="#daae45" d=" M 167.38 231.36 C 168.00 233.52 168.44 235.80 167.86 238.03 L 167.51 238.05 C 166.27 236.15 166.33 233.32 167.38 231.36 Z" />
<path fill="#d8a426" d=" M 216.34 231.54 C 223.77 234.91 230.69 239.23 237.55 243.60 C 242.79 246.50 247.13 250.65 251.98 254.10 C 254.83 256.18 257.84 258.13 260.14 260.85 C 265.37 267.31 271.47 273.11 275.75 280.30 C 278.54 285.17 282.15 289.61 284.09 294.93 C 287.00 302.86 289.97 310.78 293.59 318.42 C 296.49 324.58 298.39 331.13 300.16 337.69 C 298.85 336.73 297.54 335.77 296.24 334.82 C 292.96 342.45 297.11 350.41 297.02 358.26 C 293.93 358.26 290.85 358.06 287.80 357.65 C 287.47 360.94 286.97 364.20 286.49 367.47 C 285.86 371.33 287.29 375.12 287.97 378.88 C 284.83 376.92 282.04 374.46 279.56 371.72 C 277.27 373.98 275.20 376.64 274.76 379.93 C 273.58 384.41 275.20 388.91 276.71 393.10 C 273.31 394.39 269.95 395.77 266.63 397.25 C 266.88 395.92 267.13 394.61 267.39 393.30 C 269.94 392.50 272.23 391.10 273.70 388.83 C 270.61 387.83 267.50 386.90 264.39 386.00 C 263.03 390.22 262.34 394.70 260.42 398.72 C 258.36 401.72 255.42 403.97 252.96 406.63 C 255.11 407.20 257.40 407.49 259.41 408.53 C 263.55 411.52 267.30 416.48 265.65 421.87 C 267.23 422.40 268.85 422.88 270.36 423.61 C 269.78 427.89 268.27 431.98 267.15 436.13 C 266.20 439.19 265.00 443.10 261.31 443.66 C 255.19 445.59 250.83 439.64 246.35 436.58 C 245.66 438.25 243.98 439.98 244.99 441.88 C 247.27 448.03 253.43 451.63 259.45 453.37 C 262.38 454.37 265.36 453.21 268.13 452.23 C 268.13 450.29 267.88 448.29 268.39 446.39 C 269.38 444.11 271.32 442.44 272.95 440.62 C 274.76 441.00 276.58 441.37 278.41 441.75 C 278.87 439.62 279.26 437.46 279.97 435.40 C 281.10 432.34 283.60 430.05 284.91 427.08 C 285.46 424.15 285.12 421.14 285.52 418.20 C 285.51 418.96 285.49 420.48 285.48 421.24 C 290.67 422.91 295.81 424.78 301.04 426.35 C 297.59 428.82 294.95 432.16 292.55 435.62 C 289.43 440.08 283.41 440.88 279.87 444.84 C 279.38 446.47 279.39 448.20 279.25 449.89 C 285.05 448.10 289.71 444.14 293.92 439.92 C 294.92 440.60 295.92 441.28 296.93 441.97 C 295.38 443.17 293.83 444.36 292.29 445.56 C 292.63 447.51 292.97 449.46 293.32 451.42 C 295.70 449.71 298.06 447.98 300.42 446.26 C 303.16 447.39 305.84 448.91 308.83 449.27 C 314.30 448.86 318.50 444.71 321.57 440.51 C 323.41 441.39 325.25 442.28 327.09 443.17 C 324.22 445.54 321.36 447.90 318.58 450.37 C 320.68 450.84 322.98 452.20 325.09 451.05 C 329.52 448.88 333.38 445.75 337.65 443.28 C 336.36 442.15 335.09 441.02 333.75 439.97 C 339.62 442.38 344.55 446.48 349.50 450.36 C 345.84 452.07 342.31 454.04 338.61 455.65 C 338.42 456.20 338.05 457.29 337.86 457.84 C 343.67 458.19 349.53 457.32 354.72 454.56 C 358.25 457.60 361.98 460.44 365.13 463.91 C 369.89 469.17 376.06 472.95 380.59 478.46 C 385.83 484.89 391.33 491.17 395.60 498.31 C 398.38 502.49 400.32 507.49 404.57 510.46 C 407.87 512.74 410.90 515.49 414.50 517.30 C 417.84 518.34 421.29 516.90 424.61 516.42 C 427.95 515.54 432.28 515.74 434.27 512.37 C 441.63 501.15 449.14 489.99 457.59 479.56 C 461.60 474.61 465.29 469.32 470.23 465.22 C 476.61 460.23 481.94 453.94 488.97 449.77 C 489.85 452.76 491.03 455.65 492.20 458.54 C 494.67 457.06 498.34 456.23 499.08 453.03 C 498.46 449.56 494.48 448.34 491.99 446.41 C 498.80 441.52 506.31 437.71 513.73 433.83 C 528.42 427.90 543.57 423.10 558.92 419.17 C 553.81 409.19 550.99 398.23 545.93 388.22 C 543.50 383.71 542.71 378.61 542.87 373.54 C 543.10 366.51 543.13 359.47 542.80 352.45 C 544.76 331.21 552.97 311.23 562.73 292.48 C 565.41 286.30 569.50 280.94 573.59 275.65 C 577.38 270.20 581.73 265.10 587.04 261.07 C 591.24 257.95 594.32 253.52 598.86 250.84 C 602.26 248.78 605.66 246.72 608.95 244.48 C 611.69 249.12 614.14 256.24 609.42 260.43 C 601.86 266.97 596.81 275.74 589.73 282.73 C 585.25 287.76 579.42 291.47 575.56 297.06 C 577.63 298.40 579.96 299.49 581.69 301.32 C 582.00 302.96 582.05 304.65 582.18 306.33 C 578.38 307.75 574.45 308.96 571.01 311.14 C 569.03 312.18 568.94 314.64 568.24 316.50 C 572.12 318.60 575.93 320.84 579.70 323.14 C 578.61 331.87 575.53 340.28 575.33 349.14 C 576.82 349.25 578.32 349.38 579.81 349.50 C 579.69 354.10 579.63 358.80 581.03 363.24 C 583.48 370.32 584.36 377.86 587.14 384.84 C 589.39 390.50 590.95 396.55 594.55 401.56 C 599.65 409.91 605.38 417.85 610.65 426.09 C 606.47 423.40 602.25 420.78 597.94 418.31 C 595.88 419.79 593.82 421.28 591.77 422.78 C 587.42 420.95 583.47 418.01 578.81 417.05 C 574.05 417.24 569.34 418.38 564.54 418.24 C 567.11 420.38 569.83 422.43 571.92 425.09 C 573.80 427.46 574.42 430.50 575.23 433.34 C 570.82 429.06 567.20 424.07 563.03 419.57 C 559.13 420.45 555.39 421.86 551.84 423.67 C 549.30 425.08 546.29 424.75 543.50 424.82 C 548.32 427.05 552.34 430.66 554.58 435.52 C 554.37 435.95 553.93 436.80 553.71 437.22 C 552.11 436.61 550.38 436.21 548.95 435.26 C 547.28 433.19 546.40 430.64 545.33 428.25 C 541.77 427.67 538.19 427.29 534.60 427.12 C 538.87 433.16 545.85 436.55 549.85 442.80 C 545.79 443.27 541.73 443.58 537.66 443.86 C 538.63 441.00 541.91 436.87 538.37 434.61 C 535.02 432.08 531.03 434.59 527.60 435.53 C 523.53 437.20 519.17 435.94 515.06 435.17 C 514.01 436.82 512.96 438.47 511.92 440.12 C 517.32 441.31 522.59 443.01 527.61 445.34 C 531.64 447.45 536.71 444.24 540.17 447.99 C 525.59 457.14 507.36 458.14 493.30 468.30 C 488.88 471.65 486.04 476.53 482.99 481.06 C 482.05 479.69 481.12 478.32 480.20 476.96 C 476.65 481.24 472.73 485.18 468.91 489.21 C 469.07 489.85 469.38 491.13 469.54 491.77 C 474.42 492.22 479.30 491.59 483.99 490.21 C 484.52 493.46 485.04 496.73 485.54 500.00 C 476.16 506.10 470.41 516.20 466.91 526.58 C 464.26 528.06 462.36 530.29 462.26 533.45 C 468.84 536.18 473.09 542.30 479.58 545.20 C 478.93 553.28 479.63 561.35 480.52 569.38 C 482.21 569.82 483.91 570.27 485.61 570.73 C 486.44 573.09 487.28 575.46 488.11 577.84 C 484.07 578.28 480.01 578.42 475.96 578.56 C 470.12 578.70 464.66 580.97 459.15 582.65 C 458.38 582.16 457.61 581.67 456.84 581.19 C 457.65 579.07 458.45 576.95 459.26 574.84 C 457.92 574.04 456.58 573.26 455.24 572.48 C 452.10 575.16 448.89 577.76 445.65 580.32 C 444.51 578.89 442.96 577.67 442.49 575.83 C 440.93 570.12 439.91 564.27 438.32 558.57 C 437.80 556.63 436.46 555.09 435.32 553.50 C 434.65 556.31 433.91 560.58 429.96 559.76 C 425.38 558.08 422.11 554.13 418.15 551.42 C 418.91 549.90 419.43 548.20 420.58 546.92 C 422.35 546.06 424.28 545.58 426.16 544.99 C 424.54 541.01 422.25 537.36 419.53 534.05 C 416.99 536.37 414.47 538.96 413.57 542.39 C 411.93 547.97 410.38 553.67 407.04 558.53 C 409.62 563.11 412.73 567.37 416.23 571.30 C 418.30 571.02 420.38 570.54 422.49 570.71 C 425.62 572.15 426.71 575.75 428.19 578.59 C 426.11 578.59 424.04 578.59 421.97 578.59 C 421.37 577.03 420.78 575.47 420.20 573.93 C 418.80 574.80 417.41 575.68 416.02 576.56 C 415.44 575.01 415.08 573.33 414.09 571.98 C 412.31 570.47 410.11 569.60 408.05 568.56 C 408.19 571.78 407.33 574.90 407.01 578.08 C 407.88 580.20 409.96 581.51 411.52 583.10 C 406.66 585.52 401.82 588.07 397.65 591.58 C 398.85 593.18 400.05 594.78 401.26 596.39 C 404.10 595.49 407.07 593.90 410.11 594.84 C 415.24 596.15 420.10 599.05 425.56 598.58 C 432.69 598.03 439.68 596.38 446.61 594.66 C 452.78 593.32 457.87 588.65 464.42 588.81 C 461.53 592.85 459.28 597.31 457.95 602.10 C 463.43 600.59 469.13 598.64 474.86 600.11 C 477.94 600.99 481.96 600.57 484.30 602.94 C 482.70 608.26 478.58 612.23 475.89 616.97 C 474.02 620.19 474.21 624.06 473.04 627.52 C 472.02 628.22 470.88 628.73 469.80 629.32 C 469.17 626.50 468.56 623.67 467.95 620.85 C 463.05 626.74 460.61 634.04 459.34 641.49 C 457.44 638.46 455.93 635.18 455.32 631.64 C 453.58 622.29 450.84 613.16 449.50 603.74 C 446.77 605.59 444.25 607.70 441.73 609.83 C 438.14 613.03 432.98 612.41 428.57 613.28 C 422.94 613.92 417.99 616.83 413.15 619.57 C 408.14 616.79 402.80 614.29 396.93 614.41 C 396.39 622.89 397.75 631.72 394.77 639.87 C 393.89 642.80 391.26 644.56 389.07 646.45 C 390.33 648.87 391.96 651.19 392.48 653.91 C 392.52 656.45 391.05 658.78 389.39 660.60 C 387.15 660.59 385.15 659.45 383.13 658.66 C 384.60 664.66 386.01 670.91 384.54 677.07 C 383.36 686.15 380.34 695.87 384.24 704.71 C 386.14 695.93 389.80 687.65 391.27 678.77 C 394.84 684.50 397.12 691.12 402.21 695.81 C 405.88 700.06 411.38 701.80 416.41 703.86 C 415.30 709.18 409.93 710.89 406.06 713.78 C 413.78 716.12 422.68 717.22 430.05 713.20 C 427.09 710.52 424.50 707.38 423.55 703.42 C 431.83 700.02 438.38 693.59 443.14 686.13 C 444.56 683.43 445.42 680.47 446.83 677.76 C 448.53 679.81 449.65 682.29 449.98 684.95 C 450.84 690.76 451.88 696.56 453.45 702.24 C 450.84 705.30 448.54 709.03 444.70 710.66 C 440.66 711.82 436.41 711.84 432.27 712.38 C 435.05 715.13 438.08 717.60 441.34 719.77 C 438.73 720.95 435.98 722.00 433.81 723.93 C 435.09 727.56 437.93 730.52 438.64 734.36 C 439.12 739.27 438.08 744.16 437.85 749.06 C 437.54 753.43 438.04 757.80 438.58 762.13 C 401.92 761.51 365.25 762.13 328.59 761.82 L 327.50 761.80 C 329.24 748.26 328.56 734.60 328.66 720.97 C 329.63 706.03 335.44 691.96 337.50 677.18 C 339.97 664.55 342.46 651.91 343.69 639.09 C 344.17 632.69 346.16 626.30 345.19 619.88 C 343.25 615.70 340.56 611.85 337.92 608.10 C 332.54 604.86 326.93 601.94 321.43 598.88 L 321.64 598.39 C 323.43 594.65 325.12 589.64 321.76 586.24 C 318.20 583.20 313.03 584.69 308.76 584.56 C 309.70 586.77 310.64 588.99 311.84 591.08 C 309.83 589.73 307.98 588.10 305.79 587.05 C 299.10 584.72 291.95 589.61 285.40 586.46 C 278.47 583.48 271.25 581.21 264.46 577.87 C 259.13 575.95 253.95 573.19 250.52 568.52 C 247.28 563.82 242.52 560.40 239.55 555.53 C 236.83 550.31 233.17 545.53 231.17 539.97 C 227.52 525.55 223.96 511.11 220.21 496.71 C 218.29 490.23 222.45 484.13 222.77 477.70 C 226.46 474.91 230.74 473.08 234.65 470.64 C 237.20 469.13 239.83 467.37 242.92 467.40 C 248.28 467.20 253.75 465.32 259.00 467.25 C 273.00 470.33 286.41 475.82 298.70 483.15 C 304.24 485.31 307.53 490.49 312.24 493.83 C 316.07 496.70 319.14 500.45 321.61 504.54 C 327.30 513.99 333.71 522.98 339.86 532.13 C 345.51 532.16 351.17 532.31 356.82 532.07 C 356.98 526.17 353.13 521.45 350.53 516.49 C 348.06 511.76 344.68 507.62 341.08 503.71 C 341.81 503.31 343.26 502.51 343.99 502.10 C 342.64 499.49 341.28 496.89 339.91 494.30 C 342.14 494.75 344.38 495.19 346.62 495.63 C 342.43 490.08 337.70 484.98 332.94 479.92 C 330.53 480.05 327.95 480.82 325.65 479.80 C 325.34 477.05 325.58 474.28 325.76 471.53 C 327.85 471.43 329.94 471.34 332.04 471.25 C 333.49 473.49 334.21 476.85 337.16 477.57 C 339.47 478.41 341.90 478.92 344.20 479.84 C 346.46 480.45 346.74 483.16 347.75 484.94 C 350.66 483.86 353.56 482.74 356.44 481.59 C 352.64 479.37 348.58 477.57 344.99 475.01 C 341.68 472.63 339.09 469.05 335.05 467.87 C 330.78 466.59 326.32 466.09 322.05 464.81 C 316.33 463.27 311.37 459.77 305.60 458.39 C 294.19 455.56 282.26 454.81 270.60 456.43 C 264.15 457.35 257.65 457.76 251.15 458.13 C 251.15 458.59 251.16 459.52 251.16 459.98 C 254.19 460.45 257.22 461.00 260.20 461.76 C 257.26 461.67 254.21 461.99 251.34 461.20 C 248.81 458.49 247.00 455.18 244.63 452.33 C 240.71 447.49 238.88 441.44 236.20 435.92 C 234.14 431.72 236.51 427.27 237.32 423.08 C 238.77 414.13 245.96 407.79 249.66 399.82 C 252.74 392.48 256.55 385.40 258.53 377.65 C 259.39 374.11 260.66 370.69 261.88 367.26 C 263.81 361.37 262.85 355.10 263.02 349.02 C 263.14 343.96 263.40 338.79 261.87 333.89 C 259.56 326.95 261.25 319.06 257.48 312.58 C 254.54 307.15 252.21 301.40 248.79 296.25 C 244.81 290.30 241.70 283.55 236.03 278.94 C 232.89 276.43 229.61 274.02 227.23 270.73 C 233.26 273.54 238.85 277.24 244.88 280.03 C 247.29 281.38 248.15 278.04 248.98 276.48 C 247.01 275.61 244.94 274.93 243.13 273.75 C 240.46 271.42 239.12 267.94 236.47 265.59 C 232.50 262.82 227.14 262.83 223.46 259.55 C 220.65 257.00 218.09 254.19 215.20 251.72 C 216.73 249.08 218.35 246.17 217.74 243.00 C 217.36 238.35 211.79 237.51 208.49 235.56 C 211.11 234.21 213.72 232.87 216.34 231.54 Z" />
<path fill="#c39e44" d=" M 623.47 237.32 C 628.33 234.79 633.39 232.54 638.81 231.52 C 634.21 234.66 628.79 235.99 623.47 237.32 Z" />
<path fill="#c09a3f" d=" M 656.78 252.78 C 662.46 250.66 668.63 251.34 674.57 251.30 L 674.66 251.30 C 668.77 252.23 662.77 253.13 656.78 252.78 Z" />
<path fill="#d2a843" d=" M 579.81 349.50 C 580.04 342.96 579.48 336.27 581.15 329.87 C 581.08 340.99 581.23 352.11 581.03 363.24 C 579.63 358.80 579.69 354.10 579.81 349.50 Z" />
<path fill="#d8ad46" d=" M 261.87 333.89 C 263.40 338.79 263.14 343.96 263.02 349.02 C 262.85 355.10 263.81 361.37 261.88 367.26 C 261.79 356.14 261.79 345.02 261.87 333.89 Z" />
<path fill="#d49a0c" d=" M 297.02 358.26 C 297.11 350.41 292.96 342.45 296.24 334.82 C 297.54 335.77 298.85 336.73 300.16 337.69 C 300.49 341.74 301.14 345.75 301.83 349.75 L 301.93 350.58 C 301.77 357.82 302.01 365.06 301.85 372.30 C 300.67 383.52 296.52 394.17 292.36 404.59 C 290.44 409.30 287.87 413.70 285.52 418.20 C 285.12 421.14 285.46 424.15 284.91 427.08 C 283.60 430.05 281.10 432.34 279.97 435.40 C 279.26 437.46 278.87 439.62 278.41 441.75 C 276.58 441.37 274.76 441.00 272.95 440.62 C 271.32 442.44 269.38 444.11 268.39 446.39 C 267.88 448.29 268.13 450.29 268.13 452.23 C 265.36 453.21 262.38 454.37 259.45 453.37 C 253.43 451.63 247.27 448.03 244.99 441.88 C 243.98 439.98 245.66 438.25 246.35 436.58 C 250.83 439.64 255.19 445.59 261.31 443.66 C 265.00 443.10 266.20 439.19 267.15 436.13 C 268.27 431.98 269.78 427.89 270.36 423.61 C 268.85 422.88 267.23 422.40 265.65 421.87 C 267.30 416.48 263.55 411.52 259.41 408.53 C 257.40 407.49 255.11 407.20 252.96 406.63 C 255.42 403.97 258.36 401.72 260.42 398.72 C 262.34 394.70 263.03 390.22 264.39 386.00 C 267.50 386.90 270.61 387.83 273.70 388.83 C 272.23 391.10 269.94 392.50 267.39 393.30 C 267.13 394.61 266.88 395.92 266.63 397.25 C 269.95 395.77 273.31 394.39 276.71 393.10 C 275.20 388.91 273.58 384.41 274.76 379.93 C 275.20 376.64 277.27 373.98 279.56 371.72 C 282.04 374.46 284.83 376.92 287.97 378.88 C 287.29 375.12 285.86 371.33 286.49 367.47 C 286.97 364.20 287.47 360.94 287.80 357.65 C 290.85 358.06 293.93 358.26 297.02 358.26 Z" />
<path fill="#cea643" d=" M 300.16 337.69 C 302.09 341.42 302.28 345.64 301.83 349.75 C 301.14 345.75 300.49 341.74 300.16 337.69 Z" />
<path fill="#d8ae47" d=" M 301.93 350.58 L 302.59 348.85 C 303.44 356.61 302.83 364.43 303.01 372.22 L 301.85 372.30 C 302.01 365.06 301.77 357.82 301.93 350.58 Z" />
<path fill="#d5ac4c" d=" M 542.49 350.80 L 542.80 352.45 C 543.13 359.47 543.10 366.51 542.87 373.54 L 542.47 375.21 C 541.65 367.12 541.63 358.88 542.49 350.80 Z" />
<path fill="#d39808" d=" M 564.54 418.24 C 569.34 418.38 574.05 417.24 578.81 417.05 C 583.47 418.01 587.42 420.95 591.77 422.78 C 593.82 421.28 595.88 419.79 597.94 418.31 C 602.25 420.78 606.47 423.40 610.65 426.09 C 610.90 426.25 611.41 426.58 611.66 426.74 C 611.72 432.31 611.18 437.89 610.14 443.36 C 608.17 448.00 605.73 452.44 603.48 456.95 C 595.76 462.08 585.97 459.15 577.50 461.71 C 574.43 462.61 571.21 462.39 568.07 462.80 C 557.88 464.78 547.85 467.57 538.09 471.09 C 532.87 473.15 528.36 476.57 523.51 479.33 C 517.05 483.02 511.92 488.48 505.91 492.80 C 502.97 494.85 500.67 497.62 498.46 500.41 C 494.73 505.02 490.06 509.10 487.88 514.76 C 486.07 519.28 483.62 523.52 482.01 528.12 C 481.29 529.55 481.66 531.15 482.60 532.40 C 487.20 533.59 491.92 534.16 496.61 534.93 C 495.69 538.86 494.88 542.83 494.15 546.81 C 493.85 546.84 493.24 546.90 492.94 546.93 C 492.46 543.96 491.94 540.99 491.34 538.05 C 485.66 543.25 487.59 551.28 487.57 558.07 C 491.55 560.85 495.55 563.61 499.61 566.29 C 499.77 572.67 498.66 579.47 501.61 585.41 C 504.54 591.58 507.80 597.60 511.45 603.38 C 507.73 605.35 503.76 606.92 500.30 609.33 C 497.91 611.81 496.60 615.09 494.99 618.08 C 494.37 619.62 493.24 621.25 493.77 622.99 C 495.87 630.88 498.92 638.48 501.68 646.16 C 505.32 656.91 506.40 668.25 509.31 679.18 C 510.69 684.76 511.41 690.48 512.86 696.04 C 513.55 698.71 513.69 701.47 513.91 704.21 C 514.25 712.72 516.75 720.94 517.44 729.42 C 518.47 740.39 521.21 751.16 521.56 762.21 C 493.90 762.41 466.23 762.55 438.58 762.13 C 438.04 757.80 437.54 753.43 437.85 749.06 C 438.08 744.16 439.12 739.27 438.64 734.36 C 437.93 730.52 435.09 727.56 433.81 723.93 C 435.98 722.00 438.73 720.95 441.34 719.77 C 438.08 717.60 435.05 715.13 432.27 712.38 C 436.41 711.84 440.66 711.82 444.70 710.66 C 448.54 709.03 450.84 705.30 453.45 702.24 C 451.88 696.56 450.84 690.76 449.98 684.95 C 449.65 682.29 448.53 679.81 446.83 677.76 C 445.42 680.47 444.56 683.43 443.14 686.13 C 438.38 693.59 431.83 700.02 423.55 703.42 C 424.50 707.38 427.09 710.52 430.05 713.20 C 422.68 717.22 413.78 716.12 406.06 713.78 C 409.93 710.89 415.30 709.18 416.41 703.86 C 411.38 701.80 405.88 700.06 402.21 695.81 C 397.12 691.12 394.84 684.50 391.27 678.77 C 389.80 687.65 386.14 695.93 384.24 704.71 C 380.34 695.87 383.36 686.15 384.54 677.07 C 386.01 670.91 384.60 664.66 383.13 658.66 C 385.15 659.45 387.15 660.59 389.39 660.60 C 391.05 658.78 392.52 656.45 392.48 653.91 C 391.96 651.19 390.33 648.87 389.07 646.45 C 391.26 644.56 393.89 642.80 394.77 639.87 C 397.75 631.72 396.39 622.89 396.93 614.41 C 402.80 614.29 408.14 616.79 413.15 619.57 C 417.99 616.83 422.94 613.92 428.57 613.28 C 432.98 612.41 438.14 613.03 441.73 609.83 C 444.25 607.70 446.77 605.59 449.50 603.74 C 450.84 613.16 453.58 622.29 455.32 631.64 C 455.93 635.18 457.44 638.46 459.34 641.49 C 460.61 634.04 463.05 626.74 467.95 620.85 C 468.56 623.67 469.17 626.50 469.80 629.32 C 470.88 628.73 472.02 628.22 473.04 627.52 C 474.21 624.06 474.02 620.19 475.89 616.97 C 478.58 612.23 482.70 608.26 484.30 602.94 C 481.96 600.57 477.94 600.99 474.86 600.11 C 469.13 598.64 463.43 600.59 457.95 602.10 C 459.28 597.31 461.53 592.85 464.42 588.81 C 457.87 588.65 452.78 593.32 446.61 594.66 C 439.68 596.38 432.69 598.03 425.56 598.58 C 420.10 599.05 415.24 596.15 410.11 594.84 C 407.07 593.90 404.10 595.49 401.26 596.39 C 400.05 594.78 398.85 593.18 397.65 591.58 C 401.82 588.07 406.66 585.52 411.52 583.10 C 409.96 581.51 407.88 580.20 407.01 578.08 C 407.33 574.90 408.19 571.78 408.05 568.56 C 410.11 569.60 412.31 570.47 414.09 571.98 C 415.08 573.33 415.44 575.01 416.02 576.56 C 417.41 575.68 418.80 574.80 420.20 573.93 C 420.78 575.47 421.37 577.03 421.97 578.59 C 424.04 578.59 426.11 578.59 428.19 578.59 C 426.71 575.75 425.62 572.15 422.49 570.71 C 420.38 570.54 418.30 571.02 416.23 571.30 C 412.73 567.37 409.62 563.11 407.04 558.53 C 410.38 553.67 411.93 547.97 413.57 542.39 C 414.47 538.96 416.99 536.37 419.53 534.05 C 422.25 537.36 424.54 541.01 426.16 544.99 C 424.28 545.58 422.35 546.06 420.58 546.92 C 419.43 548.20 418.91 549.90 418.15 551.42 C 422.11 554.13 425.38 558.08 429.96 559.76 C 433.91 560.58 434.65 556.31 435.32 553.50 C 436.46 555.09 437.80 556.63 438.32 558.57 C 439.91 564.27 440.93 570.12 442.49 575.83 C 442.96 577.67 444.51 578.89 445.65 580.32 C 448.89 577.76 452.10 575.16 455.24 572.48 C 456.58 573.26 457.92 574.04 459.26 574.84 C 458.45 576.95 457.65 579.07 456.84 581.19 C 457.61 581.67 458.38 582.16 459.15 582.65 C 464.66 580.97 470.12 578.70 475.96 578.56 C 480.01 578.42 484.07 578.28 488.11 577.84 C 487.28 575.46 486.44 573.09 485.61 570.73 C 483.91 570.27 482.21 569.82 480.52 569.38 C 479.63 561.35 478.93 553.28 479.58 545.20 C 473.09 542.30 468.84 536.18 462.26 533.45 C 462.36 530.29 464.26 528.06 466.91 526.58 C 470.41 516.20 476.16 506.10 485.54 500.00 C 485.04 496.73 484.52 493.46 483.99 490.21 C 479.30 491.59 474.42 492.22 469.54 491.77 C 469.38 491.13 469.07 489.85 468.91 489.21 C 472.73 485.18 476.65 481.24 480.20 476.96 C 481.12 478.32 482.05 479.69 482.99 481.06 C 486.04 476.53 488.88 471.65 493.30 468.30 C 507.36 458.14 525.59 457.14 540.17 447.99 C 536.71 444.24 531.64 447.45 527.61 445.34 C 522.59 443.01 517.32 441.31 511.92 440.12 C 512.96 438.47 514.01 436.82 515.06 435.17 C 519.17 435.94 523.53 437.20 527.60 435.53 C 531.03 434.59 535.02 432.08 538.37 434.61 C 541.91 436.87 538.63 441.00 537.66 443.86 C 541.73 443.58 545.79 443.27 549.85 442.80 C 545.85 436.55 538.87 433.16 534.60 427.12 C 538.19 427.29 541.77 427.67 545.33 428.25 C 546.40 430.64 547.28 433.19 548.95 435.26 C 550.38 436.21 552.11 436.61 553.71 437.22 C 553.93 436.80 554.37 435.95 554.58 435.52 C 552.34 430.66 548.32 427.05 543.50 424.82 C 546.29 424.75 549.30 425.08 551.84 423.67 C 555.39 421.86 559.13 420.45 563.03 419.57 C 567.20 424.07 570.82 429.06 575.23 433.34 C 574.42 430.50 573.80 427.46 571.92 425.09 C 569.83 422.43 567.11 420.38 564.54 418.24 Z" />
<path fill="#d49b0e" d=" M 292.55 435.62 C 294.95 432.16 297.59 428.82 301.04 426.35 C 304.24 428.13 307.44 430.10 311.07 430.85 C 319.17 432.41 326.20 436.94 333.75 439.97 C 335.09 441.02 336.36 442.15 337.65 443.28 C 333.38 445.75 329.52 448.88 325.09 451.05 C 322.98 452.20 320.68 450.84 318.58 450.37 C 321.36 447.90 324.22 445.54 327.09 443.17 C 325.25 442.28 323.41 441.39 321.57 440.51 C 318.50 444.71 314.30 448.86 308.83 449.27 C 305.84 448.91 303.16 447.39 300.42 446.26 C 298.06 447.98 295.70 449.71 293.32 451.42 C 292.97 449.46 292.63 447.51 292.29 445.56 C 293.83 444.36 295.38 443.17 296.93 441.97 C 295.92 441.28 294.92 440.60 293.92 439.92 C 289.71 444.14 285.05 448.10 279.25 449.89 C 279.39 448.20 279.38 446.47 279.87 444.84 C 283.41 440.88 289.43 440.08 292.55 435.62 Z" />
<path fill="#d49c11" d=" M 488.97 449.77 C 489.87 448.56 490.95 447.50 491.99 446.41 C 494.48 448.34 498.46 449.56 499.08 453.03 C 498.34 456.23 494.67 457.06 492.20 458.54 C 491.03 455.65 489.85 452.76 488.97 449.77 Z" />
<path fill="#d49b0f" d=" M 338.61 455.65 C 342.31 454.04 345.84 452.07 349.50 450.36 C 351.74 450.92 353.09 453.08 354.72 454.56 C 349.53 457.32 343.67 458.19 337.86 457.84 C 338.05 457.29 338.42 456.20 338.61 455.65 Z" />
<path fill="#d49a0d" d=" M 270.60 456.43 C 282.26 454.81 294.19 455.56 305.60 458.39 C 311.37 459.77 316.33 463.27 322.05 464.81 C 326.32 466.09 330.78 466.59 335.05 467.87 C 339.09 469.05 341.68 472.63 344.99 475.01 C 348.58 477.57 352.64 479.37 356.44 481.59 C 353.56 482.74 350.66 483.86 347.75 484.94 C 346.74 483.16 346.46 480.45 344.20 479.84 C 341.90 478.92 339.47 478.41 337.16 477.57 C 334.21 476.85 333.49 473.49 332.04 471.25 C 329.94 471.34 327.85 471.43 325.76 471.53 C 325.58 474.28 325.34 477.05 325.65 479.80 C 327.95 480.82 330.53 480.05 332.94 479.92 C 337.70 484.98 342.43 490.08 346.62 495.63 C 344.38 495.19 342.14 494.75 339.91 494.30 C 341.28 496.89 342.64 499.49 343.99 502.10 C 343.26 502.51 341.81 503.31 341.08 503.71 C 337.99 500.55 335.55 496.74 331.99 494.04 C 325.99 489.38 320.55 483.95 313.94 480.13 C 301.47 471.56 286.71 467.24 272.17 463.67 C 268.24 462.66 264.12 462.85 260.20 461.76 C 257.22 461.00 254.19 460.45 251.16 459.98 C 251.16 459.52 251.15 458.59 251.15 458.13 C 257.65 457.76 264.15 457.35 270.60 456.43 Z" />
<path fill="#be993e" d=" M 577.50 461.71 C 585.97 459.15 595.76 462.08 603.48 456.95 C 603.02 458.03 602.56 459.12 602.11 460.21 C 593.95 461.28 585.74 462.13 577.50 461.71 Z" />
<path fill="#dbab35" d=" M 571.49 473.20 C 580.31 472.15 589.12 471.03 597.94 469.93 C 603.36 469.95 608.72 471.06 614.08 471.82 C 617.12 475.80 620.01 479.88 622.99 483.91 C 625.91 487.30 624.49 492.02 624.14 496.03 C 623.62 503.67 619.68 510.40 617.33 517.54 C 615.53 524.45 616.65 531.99 613.63 538.61 C 611.36 543.68 610.26 549.36 606.80 553.83 C 603.92 557.26 600.95 560.62 598.30 564.23 C 595.49 568.19 591.19 570.58 587.47 573.54 C 584.22 576.01 581.07 578.89 577.00 579.87 C 568.70 582.01 560.34 583.88 552.08 586.17 C 545.14 588.32 538.11 584.64 531.10 585.37 C 528.42 586.79 526.59 589.33 524.66 591.59 C 521.00 596.25 516.95 600.87 511.45 603.38 C 507.80 597.60 504.54 591.58 501.61 585.41 C 498.66 579.47 499.77 572.67 499.61 566.29 C 495.55 563.61 491.55 560.85 487.57 558.07 C 487.59 551.28 485.66 543.25 491.34 538.05 C 491.94 540.99 492.46 543.96 492.94 546.93 C 493.24 546.90 493.85 546.84 494.15 546.81 C 494.88 542.83 495.69 538.86 496.61 534.93 C 491.92 534.16 487.20 533.59 482.60 532.40 C 487.42 532.25 492.27 532.96 497.08 532.35 C 501.42 530.16 504.55 526.27 508.42 523.41 C 513.17 520.21 514.70 514.42 517.65 509.81 C 521.13 502.88 526.94 497.65 531.66 491.62 C 533.17 489.65 535.29 488.31 537.50 487.24 C 543.61 484.18 549.29 480.20 555.78 477.93 C 560.95 476.16 565.98 473.76 571.49 473.20 Z" />
<path fill="#d39808" d=" M 243.53 491.58 C 247.47 487.28 253.45 485.79 259.00 484.85 C 264.56 484.52 270.18 485.34 275.59 486.59 C 283.75 489.38 291.42 493.55 298.39 498.63 C 302.33 501.47 303.30 506.55 305.42 510.66 C 307.70 515.38 309.73 521.21 307.22 526.23 C 304.31 528.00 300.94 528.81 297.76 529.97 C 298.51 533.26 298.84 536.63 298.94 540.02 C 296.36 539.81 293.78 539.60 291.21 539.38 C 290.02 543.01 291.70 546.35 293.67 549.32 C 296.84 554.61 297.64 560.84 298.91 566.77 C 291.82 569.16 284.16 567.29 277.54 564.40 C 274.14 561.30 272.34 556.90 269.86 553.11 C 266.11 546.29 260.85 539.94 259.92 531.95 C 259.43 527.68 258.00 523.52 254.97 520.37 C 258.82 519.10 262.61 517.63 266.29 515.94 C 261.19 512.66 254.76 511.14 250.96 506.12 C 248.42 502.90 245.57 499.94 242.27 497.50 C 242.46 495.51 241.84 493.08 243.53 491.58 Z" />
<path fill="#d39808" d=" M 566.68 487.67 C 570.91 485.87 575.54 486.94 579.90 487.57 C 584.34 488.34 588.97 488.90 592.98 491.11 C 594.64 491.56 594.87 493.53 594.18 494.89 C 592.50 498.43 589.58 501.14 587.17 504.17 C 585.28 506.25 583.70 508.94 580.88 509.88 C 568.65 513.50 557.37 519.86 547.23 527.54 C 546.97 532.40 547.98 537.19 548.19 542.02 C 546.90 550.76 541.73 558.43 535.58 564.57 C 533.16 566.79 529.87 567.60 526.91 568.84 C 520.80 571.19 515.07 574.40 509.42 577.69 C 507.39 575.37 507.61 571.97 509.89 569.91 C 513.18 567.60 517.69 567.56 520.65 564.68 C 525.96 559.43 529.58 552.83 533.99 546.87 C 535.31 545.21 536.06 543.15 535.70 541.02 C 534.52 531.23 533.89 521.21 535.66 511.45 C 533.94 511.38 532.22 511.31 530.51 511.26 C 530.59 508.49 530.46 505.55 531.99 503.11 C 534.54 498.73 536.68 493.93 540.35 490.34 C 541.37 489.08 543.28 489.74 544.42 490.49 C 544.33 492.49 543.86 494.44 543.53 496.41 C 551.26 493.52 558.98 490.64 566.68 487.67 Z" />
<path fill="#d49a0d" d=" M 299.86 492.59 C 301.88 491.02 304.56 492.38 306.43 493.57 C 310.84 496.97 312.94 502.74 312.16 508.22 C 309.96 508.03 307.10 508.41 305.92 506.04 C 303.40 501.77 303.05 496.53 299.86 492.59 Z" />
<path fill="#d49a0e" d=" M 306.40 550.73 C 309.23 551.54 311.80 553.02 314.03 554.93 C 313.84 557.56 313.69 560.20 313.59 562.84 C 311.20 563.76 308.35 566.10 305.91 564.10 C 303.19 562.18 300.64 559.89 298.84 557.08 C 297.70 555.39 298.63 553.36 298.82 551.56 C 301.31 554.40 303.75 557.32 306.78 559.62 C 306.71 556.65 306.55 553.69 306.40 550.73 Z" />
<path fill="#d39808" d=" M 345.62 583.76 C 348.18 582.07 351.03 579.74 354.31 580.66 C 361.38 582.75 367.36 587.36 372.80 592.19 C 374.39 593.76 376.48 595.49 376.29 597.98 C 372.40 601.85 366.97 603.55 362.01 605.61 C 359.33 601.18 357.33 596.42 355.34 591.65 C 353.74 587.46 349.01 586.14 345.62 583.76 Z" />
<path fill="#d49a0d" d=" M 369.05 584.89 C 370.55 584.14 371.98 582.53 373.81 583.26 C 377.15 583.99 380.45 585.01 383.51 586.54 C 385.45 587.38 385.33 589.86 385.97 591.58 C 379.68 594.25 372.56 590.19 369.05 584.89 Z" />
<path fill="#d49b0e" d=" M 308.76 584.56 C 313.03 584.69 318.20 583.20 321.76 586.24 C 325.12 589.64 323.43 594.65 321.64 598.39 C 318.27 596.10 314.76 593.94 311.84 591.08 C 310.64 588.99 309.70 586.77 308.76 584.56 Z" />
<path fill="#dbab35" d=" M 501.68 646.16 C 504.88 651.25 506.67 657.07 507.38 663.02 C 508.85 674.08 512.72 684.82 512.86 696.04 C 511.41 690.48 510.69 684.76 509.31 679.18 C 506.40 668.25 505.32 656.91 501.68 646.16 Z" />
<path fill="#dbab35" d=" M 513.91 704.21 C 515.89 708.42 515.74 713.20 516.82 717.67 C 518.59 725.31 518.83 733.19 520.17 740.90 C 521.19 748.21 523.17 755.45 522.72 762.89 C 458.00 763.12 393.28 762.98 328.56 762.95 L 328.59 761.82 C 365.25 762.13 401.92 761.51 438.58 762.13 C 466.23 762.55 493.90 762.41 521.56 762.21 C 521.21 751.16 518.47 740.39 517.44 729.42 C 516.75 720.94 514.25 712.72 513.91 704.21 Z" />
</svg>
