<?xml version="1.0" encoding="UTF-8" standalone="no"?>
<svg width="843px" height="869px" viewBox="0 0 843 869" version="1.1" xmlns="http://www.w3.org/2000/svg" xmlns:xlink="http://www.w3.org/1999/xlink" xmlns:sketch="http://www.bohemiancoding.com/sketch/ns">
    <!-- Generator: Sketch 3.4 (15575) - http://www.bohemiancoding.com/sketch -->
    <title>PuppetATPVertical2</title>
    <desc>Created with Sketch.</desc>
    <defs></defs>
    <g id="Page-1" stroke="none" stroke-width="1" fill="none" fill-rule="evenodd" sketch:type="MSPage">
        <g id="PuppetATPVertical" sketch:type="MSLayerGroup" transform="translate(1.000000, 0.000000)">
            <path d="M0,0 L841,0 L841,387.75 L0,387.75 L0,0 L0,0 Z" id="Shape" fill="#2C3376" sketch:type="MSShapeGroup"></path>
            <path d="M657.02,113.3 C663.67,112.32 670.35,111.48 677,110.46 L677,133 C683.77,133 690.55,132.99 697.33,133.01 C696.92,138.34 696.48,143.67 696,149 L677,149 C677,162.69 677,176.39 676.99,190.08 C676.88,192.62 677.69,195.67 680.34,196.64 C684.83,198.2 689.63,196.71 694.09,195.7 C694.81,200.88 695.64,206.04 696.39,211.21 C686.94,214.15 676.23,215.98 666.81,212.02 C660.27,209.24 657.19,201.95 657.07,195.21 C656.9,179.81 657.05,164.4 657,149 L645.25,149 L645.25,133 L657,133 C657,126.43 656.98,119.86 657.02,113.3 L657.02,113.3 Z" id="Shape" fill="#FFFFFF" sketch:type="MSShapeGroup"></path>
            <path d="M144.02,116.51 C164.66,116.49 185.29,116.48 205.93,116.51 C203.56,120.85 200.76,124.94 198.64,129.4 C198.29,143.26 198.64,157.15 198.48,171.03 C198.1,174.17 200.31,176.68 201.7,179.29 C218.71,208.67 235.66,238.1 252.65,267.5 C246.97,267.51 241.29,267.51 235.61,267.5 C218.41,237.65 201.18,207.82 183.94,177.99 C182.92,176.53 182.97,174.72 182.97,173.02 C183.03,159.01 182.99,145.01 183,131 L166,131 C166,134.48 166,137.95 165.99,141.43 C158.66,133.13 151.28,124.87 144.02,116.51 L144.02,116.51 Z" id="Shape" fill="#FFFFFF" sketch:type="MSShapeGroup"></path>
            <path d="M439.89,139.32 C449.15,132.84 460.97,129.59 472.17,132 C477.89,133.11 483.03,136.87 485.78,142.02 C488.36,146.92 489.28,152.52 489.27,158.02 C489.23,168 489.26,177.98 489.26,187.97 C489.14,194.73 487.58,201.88 482.97,207.06 C478.71,211.82 472.23,213.86 466.01,214.19 C457.96,214.57 449.91,213.51 442,212.06 C441.99,222.88 442.02,233.7 441.98,244.52 C435.32,245.44 428.65,246.34 422,247.31 L422,133 L437.98,133 C438.62,135.1 439.26,137.21 439.89,139.32 L439.89,139.32 Z" id="Shape" fill="#FFFFFF" sketch:type="MSShapeGroup"></path>
            <path d="M516.85,139.37 C526.09,132.75 538.02,129.61 549.24,132.03 C554.73,133.18 559.75,136.64 562.49,141.58 C565.97,147.77 566.43,155.08 566.26,162.03 C566.11,171.69 566.51,181.37 566.06,191.03 C565.6,199.84 561,209.17 552.25,212.27 C541.53,216.01 529.9,213.83 519,212.05 C518.98,222.87 519.04,233.68 518.96,244.49 C512.31,245.45 505.65,246.32 499,247.31 L499,133 L514.98,133 C515.6,135.12 516.23,137.25 516.85,139.37 L516.85,139.37 Z" id="Shape" fill="#FFFFFF" sketch:type="MSShapeGroup"></path>
            <path d="M581.11,142.07 C586.73,134.31 596.74,131.64 605.88,131.3 C614.8,131.01 624.72,132.08 631.56,138.43 C637.66,144.17 639.45,152.9 639.72,160.95 C639.81,167.47 639.72,173.99 639.75,180.5 C624.99,180.5 610.24,180.5 595.49,180.51 C595.55,184.6 595.07,189.04 597.17,192.76 C599.18,196.1 603.23,197.27 606.9,197.58 C616.51,198.33 626.17,196.67 635.38,193.95 C636.42,199.04 637.45,204.14 638.51,209.23 C625.92,213.69 612.21,215.39 598.96,213.48 C591.03,212.32 582.92,208.36 579.12,200.97 C574.11,191.43 575.79,180.34 575.5,170 C575.33,160.52 575.11,150.04 581.11,142.07 L581.11,142.07 Z" id="Shape" fill="#FFFFFF" sketch:type="MSShapeGroup"></path>
            <path d="M285.8,142.22 C295.06,135.71 306.87,132.6 318.06,134.92 C324.37,136.19 330.02,140.58 332.46,146.59 C336.51,155.85 334.93,166.19 335.25,175.99 C334.96,186.15 336.64,197.16 331.42,206.42 C328.06,212.72 321.07,216.24 314.15,216.89 C305.41,217.8 296.6,216.51 288,214.99 L288,247.43 C281.32,248.3 274.67,249.29 268,250.19 L268,136 L283.91,136 C284.54,138.07 285.17,140.14 285.8,142.22 L285.8,142.22 Z" id="Shape" fill="#FFFFFF" sketch:type="MSShapeGroup"></path>
            <path d="M344.25,136 L364.25,136 C364.27,154.69 364.22,173.37 364.27,192.05 C363.92,195.25 366.71,197.92 369.86,197.74 C377.37,197.46 384.4,194.23 391.01,190.89 C390.99,172.59 391,154.3 391,136 L411,136 C411,162.5 411.01,189 411,215.51 C405.88,215.5 400.77,215.51 395.67,215.5 C395.03,213.35 394.39,211.21 393.78,209.06 C384.08,213.44 373.72,216.74 363.03,217.22 C358.19,217.39 352.93,216.17 349.55,212.47 C345.47,208.08 344.51,201.8 344.26,196.04 C344.23,176.02 344.26,156.01 344.25,136 L344.25,136 Z" id="Shape" fill="#FFFFFF" sketch:type="MSShapeGroup"></path>
            <path d="M599.43,150.44 C604.01,147.04 610.66,146.95 615.76,149.2 C621.19,152.02 620.83,159.03 620.77,164.25 L595.47,164.25 C595.37,159.46 595.27,153.71 599.43,150.44 L599.43,150.44 Z" id="Shape" fill="#2C3376" sketch:type="MSShapeGroup"></path>
            <path d="M441.97,155.73 C447.69,150.85 455.31,147.44 462.95,148.75 C466.9,149.24 469.37,153.22 469.23,156.99 C469.31,166.3 469.19,175.62 469.27,184.94 C469.24,187.87 469.39,191.06 467.71,193.61 C466.38,195.89 463.65,196.82 461.16,196.97 C454.71,197.3 448.3,196.24 442,194.98 C441.99,181.9 442.03,168.81 441.97,155.73 L441.97,155.73 Z" id="Shape" fill="#2C3376" sketch:type="MSShapeGroup"></path>
            <path d="M518.96,155.75 C524.8,150.58 532.99,147.14 540.82,148.99 C544.79,149.94 546.43,154.31 546.25,158.01 C546.22,168.04 546.31,178.07 546.21,188.1 C546.28,191.93 543.99,196.09 539.94,196.72 C532.93,197.66 525.87,196.28 519,194.98 C518.98,181.9 519.04,168.82 518.96,155.75 L518.96,155.75 Z" id="Shape" fill="#2C3376" sketch:type="MSShapeGroup"></path>
            <path d="M288.01,158.44 C293.88,153.69 301.6,150.17 309.28,151.74 C313.06,152.47 315.2,156.31 315.18,159.94 C315.34,169.96 315.23,180 315.23,190.02 C315.41,194.14 313.4,198.93 308.9,199.64 C301.92,200.7 294.87,199.11 288,197.95 C288.01,184.78 287.98,171.61 288.01,158.44 L288.01,158.44 Z" id="Shape" fill="#2C3376" sketch:type="MSShapeGroup"></path>
            <path d="M92.86,268.83 C111.84,236.07 130.75,203.27 149.72,170.5 C155.35,170.49 160.98,170.5 166.61,170.49 C144.31,209.34 121.88,248.12 99.44,286.88 C98.12,286.53 96.8,286.18 95.49,285.83 C93.71,281.98 91.97,278.12 90.14,274.3 C90.98,272.44 91.85,270.6 92.86,268.83 L92.86,268.83 Z" id="Shape" fill="#FFFFFF" sketch:type="MSShapeGroup"></path>
            <path d="M158.34,199.87 C172.06,194.33 189.18,200.95 195.83,214.1 C199.76,221.7 199.79,230.58 198.54,238.86 C196.55,235.23 193.24,232.69 189.57,230.92 C189.77,226.35 190.16,221.61 188.79,217.17 C186.23,210.55 180.71,204.9 173.72,203.12 C168.95,201.67 163.91,202.32 159.14,203.41 C158.94,202.53 158.54,200.76 158.34,199.87 L158.34,199.87 Z" id="Shape" fill="#FFFFFF" sketch:type="MSShapeGroup"></path>
            <path d="M169.4,208.54 C174.07,205.57 180.87,209.5 180.53,215.05 C180.63,220.39 174.17,224.15 169.58,221.38 C164.69,218.92 164.55,211.11 169.4,208.54 L169.4,208.54 Z" id="Shape" fill="#FFFFFF" sketch:type="MSShapeGroup"></path>
            <path d="M145.17,221.16 C149.91,215.99 156.34,212.79 162.91,210.58 C160.43,213.97 159.99,218.2 160.01,222.27 C155.67,224.22 151.17,226.3 147.9,229.87 C143.94,234.9 141.53,241.51 142.78,247.94 C143.65,253.37 146.77,258.08 150.3,262.17 C149.29,262.82 148.3,263.49 147.23,264.04 C134.7,253.81 133.79,232.62 145.17,221.16 L145.17,221.16 Z" id="Shape" fill="#FFFFFF" sketch:type="MSShapeGroup"></path>
            <path d="M610.49,225.95 C613.91,225.44 617.34,224.99 620.77,224.51 C620.72,231.04 620.77,237.56 620.74,244.08 C626.73,242.15 633.69,240.26 639.62,243.38 C644.33,246.07 645.07,252.09 645.02,257.01 C644.78,263.07 645.66,269.3 644.05,275.22 C642.84,279.81 638.44,282.73 633.96,283.52 C626.2,285.05 618.24,283.94 610.51,282.88 C610.48,263.9 610.5,244.92 610.49,225.95 L610.49,225.95 Z" id="Shape" fill="#FFFFFF" sketch:type="MSShapeGroup"></path>
            <path d="M557.25,225.94 C560.67,225.45 564.09,224.98 567.51,224.52 C567.49,244.18 567.51,263.84 567.5,283.5 L557.25,283.5 L557.25,225.94 L557.25,225.94 Z" id="Shape" fill="#FFFFFF" sketch:type="MSShapeGroup"></path>
            <path d="M151.29,237.5 C156.16,235.19 162.37,239.51 161.54,244.93 C161.45,250.53 154.02,253.6 149.8,250.12 C145.41,247.08 146.26,239.41 151.29,237.5 L151.29,237.5 Z" id="Shape" fill="#FFFFFF" sketch:type="MSShapeGroup"></path>
            <path d="M186.43,238.56 C191.63,236.84 197.2,242.38 195.45,247.58 C194.3,252.91 186.75,254.92 183.14,250.82 C179.12,247.19 181.12,239.68 186.43,238.56 L186.43,238.56 Z" id="Shape" fill="#FFFFFF" sketch:type="MSShapeGroup"></path>
            <path d="M194.57,255.57 C200.47,252.28 203.95,246.04 205.87,239.77 C206.7,239.99 208.35,240.43 209.18,240.65 C207.52,255.47 192.63,266.89 177.96,265.81 C169.51,265.38 161.77,261.08 155.49,255.64 C159.63,255.88 163.39,254.07 166.8,251.94 C170.59,254.55 174.53,257.17 179.05,258.29 C184.32,259.02 189.96,258.39 194.57,255.57 L194.57,255.57 Z" id="Shape" fill="#FFFFFF" sketch:type="MSShapeGroup"></path>
            <path d="M573.88,243.6 C581.62,241.87 589.98,240.59 597.67,243.22 C602.13,244.78 604.33,249.54 604.4,254.02 C604.65,263.84 604.43,273.67 604.5,283.5 C601.71,283.5 598.93,283.5 596.14,283.53 C595.96,282.84 595.58,281.47 595.39,280.79 C590.33,283.59 584.06,285.52 578.42,283.34 C573.99,281.57 572.47,276.36 572.48,271.99 C572.46,268.01 573.69,263.19 577.8,261.62 C583.08,259.75 588.8,260.73 594.28,260.5 C594.02,257.26 595.33,252.19 591.31,250.8 C585.99,249.48 580.45,250.63 575.14,251.45 C574.72,248.83 574.28,246.22 573.88,243.6 L573.88,243.6 Z" id="Shape" fill="#FFFFFF" sketch:type="MSShapeGroup"></path>
            <path d="M655.64,242.73 C662.34,240.89 669.41,241.86 676.15,243.06 C675.83,245.81 675.49,248.55 675.16,251.3 C670.52,250.61 665.8,249.83 661.12,250.41 C658.11,250.65 657.85,255.63 659.95,257.07 C664.63,259.25 670.3,259.24 674.46,262.56 C677.47,265.17 676.99,269.64 676.96,273.22 C676.9,277.25 675.03,281.67 670.91,282.98 C663.53,285.46 655.53,284.01 648.23,281.97 C648.72,279.36 649.2,276.76 649.66,274.15 C654.38,275.26 659.23,276.14 664.1,275.66 C667.63,275.69 667.99,270.27 665.63,268.53 C660.83,265.62 653.99,266.37 650.3,261.59 C648.23,258.14 648.58,253.77 649.09,249.94 C649.51,246.45 652.28,243.6 655.64,242.73 L655.64,242.73 Z" id="Shape" fill="#FFFFFF" sketch:type="MSShapeGroup"></path>
            <path d="M620.74,252.73 C624.3,251.45 628.14,249.79 631.99,250.79 C633.79,251.25 634.7,253.19 634.71,254.92 C634.83,259.32 634.75,263.72 634.75,268.12 C634.69,270.32 634.52,273.09 632.39,274.34 C628.81,276.22 624.6,275.38 620.75,275.26 C620.75,267.75 620.76,260.24 620.74,252.73 L620.74,252.73 Z" id="Shape" fill="#2C3376" sketch:type="MSShapeGroup"></path>
            <path d="M583.54,268.57 C586.94,267.41 590.69,268.21 594.24,268.01 C594.24,270.05 594.25,272.09 594.27,274.13 C591.13,275.4 587.67,276.69 584.26,275.75 C581.77,274.46 581.95,270.48 583.54,268.57 L583.54,268.57 Z" id="Shape" fill="#2C3376" sketch:type="MSShapeGroup"></path>
            <path d="M113.15,272.23 C160.57,272.3 207.99,272.19 255.41,272.28 C255.61,272.98 256.02,274.36 256.22,275.06 C254.42,278.63 252.71,282.25 250.99,285.86 C249.03,286.35 247.05,286.82 245.02,286.77 C198.2,286.71 151.39,286.79 104.58,286.73 C107.38,281.87 110.29,277.06 113.15,272.23 L113.15,272.23 Z" id="Shape" fill="#FFFFFF" sketch:type="MSShapeGroup"></path>
            <path d="M0,387.75 L841,387.75 L841,677.25 L81.25,677.25 L81.25,682.25 L841,682.25 L841,837.5 L0,837.5 L0,387.75 L0,387.75 Z" id="Shape" stroke="#2C3376" fill="#FFFFFF" sketch:type="MSShapeGroup"></path>
            <path d="M228,456.05 C229.92,455.78 231.85,455.52 233.78,455.27 C233.71,463.37 233.76,471.47 233.75,479.58 C239.9,477.03 246.32,474.7 253.04,474.52 C256.23,474.51 259.83,475.62 261.53,478.54 C263.06,481.42 262.99,484.79 263.02,487.97 C262.97,499.73 263.01,511.49 263,523.25 C261.08,523.24 259.17,523.24 257.26,523.25 C257.21,510.16 257.33,497.07 257.21,483.99 C257.46,481.13 254.59,479.52 252.07,479.74 C245.65,480.15 239.54,482.51 233.75,485.18 C233.74,497.87 233.75,510.56 233.74,523.25 C231.83,523.24 229.91,523.24 228,523.25 L228,456.05 L228,456.05 Z" id="Shape" fill="#5D5D5D" sketch:type="MSShapeGroup"></path>
            <path d="M346.5,456 C348.41,455.99 350.33,456 352.25,456 C352.25,459.5 352.24,462.99 352.24,466.49 C350.33,466.49 348.41,466.49 346.51,466.5 C346.5,462.99 346.5,459.5 346.5,456 L346.5,456 Z" id="Shape" fill="#5D5D5D" sketch:type="MSShapeGroup"></path>
            <path d="M475,456.05 C476.92,455.78 478.84,455.52 480.78,455.27 C480.7,477.92 480.77,500.58 480.74,523.24 C479.02,523.24 477.3,523.24 475.6,523.25 C475.45,521.81 475.32,520.38 475.19,518.95 C468.55,523.34 459.88,525.85 452.16,523.02 C447.64,521.44 445.58,516.5 445.55,512.03 C445.46,504 445.46,495.97 445.55,487.94 C445.64,483.09 447.86,477.67 452.75,475.89 C459.91,473.25 467.69,475.03 475,476.05 L475,456.05 L475,456.05 Z" id="Shape" fill="#5D5D5D" sketch:type="MSShapeGroup"></path>
            <path d="M618.5,456 C620.41,455.99 622.32,456 624.25,456 C624.24,459.5 624.24,462.99 624.24,466.49 C622.32,466.49 620.41,466.49 618.51,466.5 C618.5,462.99 618.5,459.5 618.5,456 L618.5,456 Z" id="Shape" fill="#5D5D5D" sketch:type="MSShapeGroup"></path>
            <path d="M684.25,456 C686.16,456 688.07,455.99 690,456 L690,466.5 C688.08,466.49 686.16,466.49 684.26,466.5 C684.25,463 684.25,459.5 684.25,456 L684.25,456 Z" id="Shape" fill="#5D5D5D" sketch:type="MSShapeGroup"></path>
            <path d="M109.4,458.02 C112.24,458 115.08,457.99 117.93,458 C125.53,479.75 133.09,501.51 140.69,523.26 C138.78,523.24 136.88,523.24 134.97,523.24 C132.98,517.48 130.87,511.76 128.84,506.02 C118.7,506 108.55,505.95 98.41,506.05 C96.41,511.79 94.36,517.51 92.35,523.26 C90.47,523.24 88.59,523.24 86.71,523.24 C94.22,501.48 101.87,479.77 109.4,458.02 L109.4,458.02 Z" id="Shape" fill="#5D5D5D" sketch:type="MSShapeGroup"></path>
            <path d="M505.25,458 L551,458 C550.99,459.66 550.99,461.33 551,463 L531,463 L531,523.26 C529.07,523.24 527.15,523.22 525.23,523.21 C525.28,503.14 525.24,483.07 525.25,463 C518.58,462.99 511.92,463 505.25,463 C505.24,461.33 505.25,459.66 505.25,458 L505.25,458 Z" id="Shape" fill="#5D5D5D" sketch:type="MSShapeGroup"></path>
            <path d="M113.6,461.24 C118.06,474.5 122.58,487.74 127.05,500.99 C118.1,501 109.15,501 100.2,500.99 C104.65,487.74 109.25,474.53 113.6,461.24 L113.6,461.24 Z" id="Shape" fill="#FFFFFF" sketch:type="MSShapeGroup"></path>
            <path d="M199.25,464.3 C201.17,464.03 203.08,463.77 205,463.51 C205,467.51 205,471.51 205.01,475.51 C209.86,475.5 214.72,475.49 219.58,475.52 C219.36,477.17 219.15,478.84 218.94,480.5 C214.3,480.49 209.65,480.5 205.01,480.49 C205,491.7 204.99,502.91 205,514.11 C205.04,515.85 205.19,518.29 207.22,518.88 C211.12,519.93 215.19,518.84 219.05,518.07 C219.38,519.56 219.71,521.06 220.03,522.56 C214.59,523.98 208.47,525.48 203.16,522.85 C199.93,521.28 199.31,517.31 199.26,514.08 C199.23,502.89 199.27,491.69 199.25,480.5 C196.17,480.49 193.08,480.49 190,480.5 L190,475.5 L199.25,475.5 L199.25,464.3 L199.25,464.3 Z" id="Shape" fill="#5D5D5D" sketch:type="MSShapeGroup"></path>
            <path d="M147.75,475.51 C149.67,475.5 151.58,475.5 153.49,475.51 C153.54,488.61 153.41,501.71 153.55,514.81 C153.32,517.76 156.4,519.31 158.97,519 C165.28,518.56 171.21,516.11 176.95,513.63 C177.06,500.92 176.97,488.21 177,475.51 C178.91,475.5 180.82,475.49 182.74,475.5 C182.75,491.41 182.74,507.33 182.75,523.25 C181.08,523.24 179.41,523.24 177.74,523.25 C177.61,521.84 177.48,520.44 177.36,519.04 C171.48,521.51 165.38,523.71 158.97,524.19 C155.95,524.41 152.65,523.82 150.35,521.71 C147.88,519.13 147.79,515.35 147.74,512.01 C147.77,499.84 147.75,487.67 147.75,475.51 L147.75,475.51 Z" id="Shape" fill="#5D5D5D" sketch:type="MSShapeGroup"></path>
            <path d="M285.26,475.13 C290.6,474.12 296.36,474.32 301.38,476.57 C306.13,478.76 309.1,483.76 309.53,488.88 C310,494.25 309.64,499.64 309.77,505.02 C309.85,509.83 309.18,515.09 305.83,518.81 C302.21,523.02 296.34,524.18 291.04,524.23 C285.53,524.16 279.37,522.82 275.89,518.16 C272.01,513.34 272.48,506.79 272.5,500.98 C272.65,495.6 271.93,490.05 273.58,484.83 C275.24,479.7 280,475.99 285.26,475.13 L285.26,475.13 Z" id="Shape" fill="#5D5D5D" sketch:type="MSShapeGroup"></path>
            <path d="M320.01,475.5 C321.74,475.5 323.47,475.5 325.21,475.51 C325.24,477.81 325.29,480.12 325.38,482.43 C330.35,479.86 334.92,476.54 340.12,474.41 C340.35,476.29 340.58,478.18 340.81,480.08 C335.53,482.56 330.59,485.69 325.74,488.91 C325.75,500.36 325.75,511.8 325.75,523.25 C323.83,523.24 321.91,523.24 320,523.25 C320,507.33 319.99,491.41 320.01,475.5 L320.01,475.5 Z" id="Shape" fill="#5D5D5D" sketch:type="MSShapeGroup"></path>
            <path d="M403.16,483.09 C405.2,477.93 410.7,475.14 415.99,474.68 C422.25,473.99 429.8,474.81 433.76,480.35 C437.88,486.4 436.51,494.11 436.74,501 C426.91,501 417.08,500.99 407.25,501 C407.4,506.74 405.9,514.82 412.17,517.94 C419.47,520.74 427.51,518.65 434.86,517.01 C435.14,518.59 435.43,520.18 435.73,521.78 C426.87,523.97 416.79,526.14 408.25,521.77 C402.04,518.3 401.27,510.37 401.48,504 C401.84,497.04 400.47,489.72 403.16,483.09 L403.16,483.09 Z" id="Shape" fill="#5D5D5D" sketch:type="MSShapeGroup"></path>
            <path d="M549.01,475.5 C550.73,475.5 552.46,475.5 554.19,475.51 C554.24,477.9 554.3,480.3 554.43,482.69 C559.18,479.68 563.94,476.63 569.12,474.41 C569.34,476.29 569.58,478.18 569.81,480.08 C564.53,482.56 559.59,485.69 554.74,488.91 C554.75,500.36 554.75,511.8 554.74,523.25 C552.83,523.24 550.91,523.24 549,523.25 C549,507.33 548.99,491.41 549.01,475.5 L549.01,475.5 Z" id="Shape" fill="#5D5D5D" sketch:type="MSShapeGroup"></path>
            <path d="M574.92,476.3 C583.46,474.7 592.91,472.99 601.09,476.83 C605.96,479.23 607.27,485.06 607.02,490.04 C606.99,501.11 607.01,512.17 607,523.24 C605.35,523.24 603.72,523.25 602.09,523.26 C601.98,522.37 601.77,520.59 601.66,519.7 C595.15,523.15 587.34,525.61 580.05,523.35 C574.88,521.75 572.84,515.94 572.99,510.99 C572.8,506.16 574.54,500.25 579.73,498.77 C586.73,496.87 594.09,498.09 601.25,497.75 C601.16,493.77 601.52,489.78 601.05,485.82 C600.71,482.72 598.03,480.44 595.04,479.99 C588.64,478.77 582.12,480.1 575.78,481.06 C575.49,479.47 575.2,477.88 574.92,476.3 L574.92,476.3 Z" id="Shape" fill="#5D5D5D" sketch:type="MSShapeGroup"></path>
            <path d="M618.51,475.51 C620.41,475.5 622.33,475.5 624.25,475.51 C624.25,491.42 624.25,507.33 624.24,523.24 C622.32,523.24 620.41,523.24 618.51,523.25 C618.5,507.33 618.5,491.42 618.51,475.51 L618.51,475.51 Z" id="Shape" fill="#5D5D5D" sketch:type="MSShapeGroup"></path>
            <path d="M642.37,479.69 C649.51,476.92 657.1,473.71 664.92,474.82 C669.36,475.42 671.98,479.74 671.91,483.97 C672.13,497.06 671.93,510.16 672,523.25 C670.07,523.24 668.16,523.24 666.26,523.25 C666.21,510.17 666.33,497.1 666.21,484.03 C666.48,481.14 663.58,479.49 661.03,479.74 C654.61,480.13 648.56,482.58 642.76,485.17 C642.73,497.86 642.75,510.55 642.74,523.25 C640.82,523.24 638.91,523.24 637,523.25 L637,475.5 C638.67,475.5 640.35,475.5 642.03,475.51 C642.14,476.89 642.25,478.29 642.37,479.69 L642.37,479.69 Z" id="Shape" fill="#5D5D5D" sketch:type="MSShapeGroup"></path>
            <path d="M707.91,479.7 C714,477.15 720.35,474.86 727.01,474.52 C730.04,474.44 733.42,475.2 735.41,477.68 C737.27,480 737.37,483.14 737.5,485.98 C737.5,498.4 737.49,510.82 737.49,523.25 C735.57,523.24 733.66,523.24 731.76,523.25 C731.71,510.18 731.82,497.11 731.71,484.05 C731.91,481.49 729.6,479.7 727.19,479.74 C720.53,479.91 714.25,482.53 708.25,485.18 C708.24,497.87 708.25,510.56 708.24,523.24 C706.32,523.24 704.41,523.24 702.51,523.25 C702.5,507.33 702.5,491.42 702.51,475.5 C704.17,475.5 705.84,475.5 707.52,475.52 C707.64,476.91 707.77,478.3 707.91,479.7 L707.91,479.7 Z" id="Shape" fill="#5D5D5D" sketch:type="MSShapeGroup"></path>
            <path d="M753.51,477.49 C758.66,474.28 765.13,474.08 770.99,474.87 C776.35,475.91 781.82,475.41 787.24,475.5 C787.24,476.55 787.25,478.64 787.25,479.68 C785.32,479.8 783.39,479.92 781.48,480.03 C784.69,485.33 785.23,491.91 783.76,497.86 C782.73,501.89 779.88,505.46 775.95,506.98 C770.91,509.17 765.31,508.73 759.97,508.38 C756.58,509.28 753.89,515.99 758.36,517.38 C764.87,518.74 771.66,518.04 778.17,519.44 C781.56,520.16 784.67,522.61 785.48,526.09 C786.92,531.69 785.8,539.39 779.63,541.6 C769.64,544.92 758.78,543.49 748.72,541.22 C749.02,539.7 749.34,538.19 749.66,536.68 C758.25,538.34 767.26,539.53 775.89,537.56 C782.15,536.35 782.33,525.23 776.05,524.01 C769.67,522.72 763.07,523.48 756.7,522.24 C753.63,521.61 750.85,519.27 750.47,516.05 C749.51,512.22 751.9,508.71 754.58,506.25 C750.41,503.56 748.06,498.8 747.82,493.93 C747.39,488.08 748.26,481.07 753.51,477.49 L753.51,477.49 Z" id="Shape" fill="#5D5D5D" sketch:type="MSShapeGroup"></path>
            <path d="M346.51,475.5 C348.41,475.5 350.33,475.5 352.24,475.51 C352.25,491.42 352.25,507.33 352.24,523.24 C350.33,523.24 348.41,523.24 346.51,523.25 C346.5,507.33 346.5,491.42 346.51,475.5 L346.51,475.5 Z" id="Shape" fill="#5D5D5D" sketch:type="MSShapeGroup"></path>
            <path d="M363.09,475.48 C373.37,475.51 383.66,475.54 393.94,475.47 C393.67,477.53 394.1,479.88 392.74,481.65 C384.46,493.98 376.34,506.41 368.09,518.75 L394.75,518.75 C394.74,520.24 394.74,521.75 394.74,523.25 C383.88,523.24 373.03,523.25 362.17,523.24 C362.36,521.2 361.82,518.9 363.15,517.15 C371.39,504.76 379.66,492.4 387.9,480.01 C379.5,479.98 371.09,480.02 362.68,479.99 C362.81,478.48 362.95,476.98 363.09,475.48 L363.09,475.48 Z" id="Shape" fill="#5D5D5D" sketch:type="MSShapeGroup"></path>
            <path d="M684.25,475.5 L690,475.5 L690,523.25 C688.07,523.24 686.16,523.24 684.26,523.25 C684.25,507.33 684.25,491.42 684.25,475.5 L684.25,475.5 Z" id="Shape" fill="#5D5D5D" sketch:type="MSShapeGroup"></path>
            <path d="M284.46,480.6 C289.7,478.89 296.22,478.81 300.73,482.37 C305.05,486.36 303.84,492.76 304,498.02 C303.68,503.21 304.93,508.77 302.75,513.68 C300.17,519.08 293.19,519.71 287.95,519.03 C283.29,518.7 278.91,515.26 278.47,510.43 C277.95,503.94 278.36,497.41 278.25,490.9 C278.16,486.68 280.19,482.01 284.46,480.6 L284.46,480.6 Z" id="Shape" fill="#FFFFFF" sketch:type="MSShapeGroup"></path>
            <path d="M411.41,481.33 C416.05,478.75 422.24,478.73 426.97,481.1 C431.95,484.24 431.24,490.9 431.27,496 C423.25,496 415.24,496 407.23,495.99 C407.21,490.95 406.59,484.55 411.41,481.33 L411.41,481.33 Z" id="Shape" fill="#FFFFFF" sketch:type="MSShapeGroup"></path>
            <path d="M451.32,487.38 C451.36,483.95 453.41,480.37 457.05,479.85 C463.03,478.92 469.09,480.22 474.99,481.18 C475.02,491.82 474.98,502.47 475.02,513.11 C470.22,516.9 464.27,519.68 458.03,519.21 C455.99,518.97 453.58,518.54 452.46,516.6 C450.99,514.35 451.29,511.55 451.22,509 C451.34,501.79 451.1,494.58 451.32,487.38 L451.32,487.38 Z" id="Shape" fill="#FFFFFF" sketch:type="MSShapeGroup"></path>
            <path d="M759.28,480.25 C763.93,479.08 769.02,479.07 773.64,480.48 C777.52,481.78 778.99,486.17 779,489.92 C779.24,494.33 778.76,500.03 774.26,502.25 C769.56,504.36 763.98,504.22 759.09,502.85 C754.16,501.29 752.91,495.51 753.2,490.97 C753.02,486.69 754.58,481.4 759.28,480.25 L759.28,480.25 Z" id="Shape" fill="#FFFFFF" sketch:type="MSShapeGroup"></path>
            <path d="M578.72,510.01 C578.6,507.1 579.95,503.73 583.12,503.17 C589.11,502.24 595.21,502.97 601.25,502.75 C601.25,506.61 601.25,510.47 601.26,514.34 C595.72,517.8 588.85,520.5 582.29,518.63 C578.67,517.58 578.64,513.07 578.72,510.01 L578.72,510.01 Z" id="Shape" fill="#FFFFFF" sketch:type="MSShapeGroup"></path>
            <path d="M90.76,555.51 C99.85,555.53 108.94,555.45 118.03,555.53 C123.77,555.72 130.35,557.02 133.87,562.04 C137.79,567.94 136.56,575.38 136.74,582.07 C136.88,587.67 134.87,593.93 129.66,596.73 C121.48,601.12 111.88,599.39 103,599.75 C102.99,606.75 103.01,613.75 103,620.75 C98.92,620.74 94.83,620.74 90.75,620.74 C90.75,599 90.75,577.25 90.76,555.51 L90.76,555.51 Z" id="Shape" fill="#5D5D5D" sketch:type="MSShapeGroup"></path>
            <path d="M223.77,561.19 C227.76,560.61 231.77,560.06 235.77,559.52 C235.73,564.01 235.75,568.5 235.75,573 L248,573 C247.71,576.16 247.44,579.32 247.17,582.5 C243.36,582.49 239.55,582.49 235.75,582.5 C236.01,591.6 235.22,600.77 236.13,609.82 C238.4,613.13 242.81,611.29 246.02,610.85 C246.49,613.89 246.96,616.94 247.42,619.99 C241.47,621.58 234.72,622.96 228.95,620 C225.03,617.93 223.73,613.21 223.76,609.08 C223.71,600.22 223.78,591.36 223.75,582.5 C221.33,582.49 218.92,582.49 216.51,582.49 C216.5,579.33 216.5,576.16 216.5,573 C218.92,572.99 221.34,572.99 223.76,573 C223.75,569.06 223.75,565.12 223.77,561.19 L223.77,561.19 Z" id="Shape" fill="#5D5D5D" sketch:type="MSShapeGroup"></path>
            <path d="M103,566.5 C108.33,566.63 113.68,566.19 119,566.72 C121.8,566.9 124.14,569.2 124.33,572.02 C124.62,575.97 124.79,580.01 124.17,583.95 C123.71,586.87 120.73,588.53 117.98,588.64 C113,588.94 108,588.66 103,588.75 L103,566.5 L103,566.5 Z" id="Shape" fill="#FFFFFF" sketch:type="MSShapeGroup"></path>
            <path d="M143.83,574.19 C152.7,572.09 162.3,570.7 171.15,573.59 C176.83,575.35 179.39,581.51 179.41,587.05 C179.62,598.27 179.43,609.51 179.5,620.74 L169.66,620.74 C169.46,619.97 169.04,618.43 168.84,617.66 C163.02,620.87 155.86,623.12 149.34,620.79 C144.24,618.91 142.27,613.07 142.25,608.07 C142.13,603.5 143.14,597.86 147.8,595.79 C154.02,593.16 160.96,594.63 167.51,594.25 C167.19,590.43 168.87,584.53 164.35,582.67 C158.1,581.08 151.53,582.33 145.28,583.37 C144.79,580.3 144.29,577.25 143.83,574.19 L143.83,574.19 Z" id="Shape" fill="#5D5D5D" sketch:type="MSShapeGroup"></path>
            <path d="M200.86,578.26 C204.84,575.75 209.02,573.56 213.42,571.9 C213.83,575.59 214.23,579.29 214.57,583 C210.21,585.01 206.02,587.37 201.99,589.98 C202.01,600.24 202,610.49 202,620.75 C198,620.74 194,620.74 190,620.75 L190,573 L200.15,573 C200.38,574.74 200.62,576.5 200.86,578.26 L200.86,578.26 Z" id="Shape" fill="#5D5D5D" sketch:type="MSShapeGroup"></path>
            <path d="M265.08,576.96 C271.06,574.31 277.42,572.22 284.02,572.02 C287.39,571.9 291.03,573.28 292.82,576.28 C294.76,579.46 294.97,583.35 295.01,586.99 C294.99,598.24 295.01,609.49 295,620.75 C291,620.74 287,620.74 283,620.75 C282.98,609.8 283.01,598.85 283.01,587.91 C283.16,585.98 282.36,583.48 280.03,583.56 C275.3,583.41 270.91,585.61 266.73,587.58 C266.76,598.63 266.74,609.69 266.75,620.75 C262.75,620.74 258.75,620.74 254.75,620.74 L254.75,573 L263.87,573 C264.27,574.31 264.67,575.63 265.08,576.96 L265.08,576.96 Z" id="Shape" fill="#5D5D5D" sketch:type="MSShapeGroup"></path>
            <path d="M308.49,577.6 C312.3,573.2 318.46,572.1 323.99,572.01 C329.91,572 336.75,573.55 339.98,579.05 C343.9,585.84 342.48,594.02 342.74,601.5 C333.88,601.49 325.03,601.49 316.17,601.5 C316.25,604.89 315.88,609.63 319.76,611.12 C326.43,613.18 333.53,611.36 340.12,609.82 C340.74,612.8 341.37,615.78 342,618.76 C334.48,621.23 326.4,622.46 318.52,621.27 C313.67,620.55 308.65,618.14 306.39,613.56 C303.31,607.5 304.48,600.52 304.23,594 C304.13,588.35 304.42,581.97 308.49,577.6 L308.49,577.6 Z" id="Shape" fill="#5D5D5D" sketch:type="MSShapeGroup"></path>
            <path d="M362.11,578.26 C366.08,575.75 370.26,573.58 374.65,571.88 C375.08,575.58 375.48,579.28 375.82,583 C371.46,585.01 367.28,587.38 363.24,589.97 C363.25,600.23 363.24,610.49 363.25,620.75 C359.25,620.74 355.25,620.74 351.25,620.75 C351.25,604.83 351.26,588.92 351.25,573 C354.63,573 358.02,572.99 361.4,573 C361.63,574.75 361.86,576.49 362.11,578.26 L362.11,578.26 Z" id="Shape" fill="#5D5D5D" sketch:type="MSShapeGroup"></path>
            <path d="M319.09,583.03 C322.06,581.34 326.14,581.14 329.09,582.99 C331.86,585.07 331.38,588.93 331.6,591.98 C326.45,592.01 321.29,592.01 316.14,591.98 C316.26,588.84 316.08,584.98 319.09,583.03 L319.09,583.03 Z" id="Shape" fill="#FFFFFF" sketch:type="MSShapeGroup"></path>
            <path d="M155.38,603.26 C159.32,602.22 163.48,602.92 167.51,602.76 C167.5,605.18 167.49,607.6 167.48,610.03 C163.54,611.4 158.75,613.68 154.81,611.2 C153.23,608.97 153.08,605.06 155.38,603.26 L155.38,603.26 Z" id="Shape" fill="#FFFFFF" sketch:type="MSShapeGroup"></path>
            <path d="M81.25,677.25 L841,677.25 L841,682.25 L81.25,682.25 L81.25,677.25 L81.25,677.25 Z" id="Shape" fill="#2C3376" sketch:type="MSShapeGroup"></path>
            <path d="M0,837.5 L841,837.5 L841,869 L0,869 L0,837.5 L0,837.5 Z" id="Shape" fill="#2C3376" sketch:type="MSShapeGroup"></path>
        </g>
    </g>
</svg>